<?xml version="1.0" encoding="UTF-8"?>
<svg width="500px" height="500px" viewBox="0 0 500 500" version="1.1" xmlns="http://www.w3.org/2000/svg" xmlns:xlink="http://www.w3.org/1999/xlink">
    <!-- Generator: Sketch 50.2 (55047) - http://www.bohemiancoding.com/sketch -->
    <title>Application2@1440</title>
    <desc>Created with Sketch.</desc>
    <defs>
        <linearGradient x1="50%" y1="16.9450884%" x2="50%" y2="100%" id="linearGradient-1">
            <stop stop-color="#98B8FF" offset="0%"></stop>
            <stop stop-color="#8CFFD5" offset="100%"></stop>
        </linearGradient>
        <path d="M4,3.07503557e-14 L13.9196714,1.56319402e-13 C19.5422049,2.25199941e-13 24.5275348,3.6145796 26.2754923,8.95850407 L33.948285,32.4160689 C34.6350716,34.5157402 33.4897024,36.7746106 31.3900312,37.4613972 C30.9885908,37.5927053 30.5688867,37.6596037 30.1465169,37.6596062 L4,37.6597793 C1.790861,37.659792 -1.02857458e-05,35.8689413 -2.29740192e-05,33.6598023 C-2.29740632e-05,33.6597946 -2.29740852e-05,33.659787 -2.29740852e-05,33.6597793 L3.01980663e-14,4 C2.99275239e-14,1.790861 1.790861,-2.09104698e-14 4,-2.13162821e-14 Z" id="path-2"></path>
    </defs>
    <g id="Page-1" stroke="none" stroke-width="1" fill="none" fill-rule="evenodd">
        <g id="Artboard-2-Copy-2" transform="translate(-713.000000, -7818.000000)">
            <g id="Application2" transform="translate(713.000000, 7818.000000)">
                <rect id="Rectangle-16" fill="url(#linearGradient-1)" x="0" y="0" width="500" height="500"></rect>
                <g id="Group-3-Copy" transform="translate(218.500000, 248.500000) scale(-1, 1) translate(-218.500000, -248.500000) translate(65.000000, 180.000000)">
                    <polygon id="Rectangle-47" fill="#79B0DB" points="0 0 293.56875 0 306.969853 137 0 137"></polygon>
                    <rect id="Rectangle" fill="#96C4F9" x="112.566667" y="16.0046729" width="165.0125" height="11.5233645"></rect>
                    <rect id="Rectangle-Copy" fill="#96C4F9" x="184.2" y="50.5747664" width="92.7395833" height="45.453271"></rect>
                </g>
                <path d="M88.7598137,348.385262 C105.384607,355.459872 106.790478,355.00628 113.984521,348.385262 C121.018067,341.911957 118.488398,315.930931 126.063959,297.5 C132.375811,282.143604 172.274482,348.205894 181.908466,335.540711 C194.665506,318.769844 178.004265,225.202003 192.20419,223.066561 C214.359093,219.734817 210.915365,342.590396 254.238585,342.707199 C266.754014,342.740941 282.812962,258.08123 310.332152,240.851195 C322.933916,232.961107 344.429192,323.253287 377.560192,342.707199 C385.263615,347.230506 420.76643,335.886693 428.148788,335.540711 C437.541219,335.100525 445.491623,347.253621 452,372 L439.183229,372 L47,372 C56.2496921,348.345868 70.16963,340.474289 88.7598137,348.385262 Z" id="Rectangle-48-Copy" fill="#7EC3D1"></path>
                <rect id="Rectangle-65" fill="#72697D" x="159" y="128" width="13" height="258" rx="6.5"></rect>
                <rect id="Rectangle-65" fill="#72697D" transform="translate(219.000000, 137.000000) rotate(78.000000) translate(-219.000000, -137.000000) " x="216" y="56" width="6" height="162" rx="3"></rect>
                <path d="M38,371 L462,371 L462,371 C462,379.284271 455.284271,386 447,386 L53,386 C44.7157288,386 38,379.284271 38,371 Z" id="Rectangle-52" fill="#877261"></path>
                <g id="Group-33" transform="translate(72.000000, 221.000000)">
                    <g id="Group-36-Copy-3" transform="translate(17.293194, 105.957447)">
                        <rect id="Rectangle-59" fill="#B87A2C" x="4.48342059" y="8.29787234" width="11.5287958" height="35.7446809"></rect>
                        <polygon id="Rectangle-59-Copy-3" fill="#AD7329" points="0.550741112 0 11.5148595 0 15.447539 8.29787234 4.48342059 8.29787234"></polygon>
                        <rect id="Rectangle-59-Copy" fill="#DE8F36" x="15.3717277" y="8.29787234" width="30.7434555" height="35.7446809"></rect>
                        <polygon id="Rectangle-59-Copy" fill="#C98631" points="15.3717277 37.3742009 46.1151832 16.9840306 46.1151832 44.0425532 15.3717277 44.0425532"></polygon>
                        <polygon id="Rectangle-59-Copy-2" fill="#C98631" points="18.7278409 0 49.4712964 0 46.1151832 8.29787234 15.3717277 8.29787234"></polygon>
                    </g>
                    <g id="Group-28" transform="translate(244.026178, 114.255319)">
                        <path d="M17.9336824,35.7446809 C19.1587999,35.7446809 20.9663766,35.7446809 23.3564125,35.7446809 C30.6839195,33.4982776 35.8673647,25.9115709 35.8673647,17.8723404 C35.8673647,9.65442386 30.9360532,2.08776024 23.3564125,0 C20.8468437,2.72955417e-13 19.039267,4.09433126e-13 17.9336824,4.09433126e-13 C8.02918309,4.09433126e-13 0,8.00171937 0,17.8723404 C0,27.7429615 8.02918309,35.7446809 17.9336824,35.7446809 Z" id="Oval-26-Copy" fill="#4E3C38"></path>
                        <ellipse id="Oval-26" fill="#664E49" cx="23.0575916" cy="17.8723404" rx="17.9336824" ry="17.8723404"></ellipse>
                        <ellipse id="Oval-26-Copy-2" fill="#4E3C38" cx="23.0575916" cy="17.8723404" rx="11.5287958" ry="11.4893617"></ellipse>
                    </g>
                    <g id="Group-28-Copy" transform="translate(99.275742, 114.255319)">
                        <path d="M17.9336824,35.7446809 C19.1587999,35.7446809 20.9663766,35.7446809 23.3564125,35.7446809 C30.6839195,33.4982776 35.8673647,25.9115709 35.8673647,17.8723404 C35.8673647,9.65442386 30.9360532,2.08776024 23.3564125,0 C20.8468437,2.72955417e-13 19.039267,4.09433126e-13 17.9336824,4.09433126e-13 C8.02918309,4.09433126e-13 0,8.00171937 0,17.8723404 C0,27.7429615 8.02918309,35.7446809 17.9336824,35.7446809 Z" id="Oval-26-Copy" fill="#4E3C38"></path>
                        <ellipse id="Oval-26" fill="#664E49" cx="23.0575916" cy="17.8723404" rx="17.9336824" ry="17.8723404"></ellipse>
                        <ellipse id="Oval-26-Copy-2" fill="#4E3C38" cx="23.0575916" cy="17.8723404" rx="11.5287958" ry="11.4893617"></ellipse>
                    </g>
                    <g id="Group-31" transform="translate(69.172775, 0.000000)">
                        <path d="M58.9249564,0 L191.708551,-4.4408921e-16 C193.365406,-7.48448398e-16 194.708551,1.34314575 194.708551,3 L194.708551,122.553191 L58.9249564,122.553191 L58.9249564,0 Z" id="Rectangle-54" fill="#EFF5FF"></path>
                        <path d="M3,0 L59.565445,0 L59.565445,122.553191 L0,122.553191 L0,3 C-2.02906125e-16,1.34314575 1.34314575,-1.39730022e-16 3,-4.4408921e-16 Z" id="Rectangle-54-Copy" fill="#CDD4E1"></path>
                        <polygon id="Rectangle-54-Copy-2" fill="#5C4250" points="9.60732984 10.8510638 49.9581152 10.8510638 49.9581152 122.553191 9.60732984 122.553191"></polygon>
                        <polygon id="Rectangle-54-Copy-2" fill="#694C5B" transform="translate(29.782723, 66.702128) scale(-1, -1) translate(-29.782723, -66.702128) " points="9.60732984 10.8510638 49.9581152 122.553191 9.60732984 122.553191"></polygon>
                    </g>
                    <g id="Group-30" transform="translate(263.881326, 20.425532)">
                        <g id="Group-41">
                            <g id="Group-39">
                                <path d="M9.60732984,11.4893617 L19.2146597,11.4893617 L47.977404,11.4893617 C55.6462707,11.4893617 59.53499,17.0064212 60.1443221,18.7792405 L71.178265,52.6624857 C80.5981858,55.146401 99.242285,58.2926623 99.242285,71.7457492 L99.242285,102.12766 L9.60732984,102.12766 L9.60732984,11.4893617 Z" id="Rectangle-61-Copy" fill="#E36F32"></path>
                                <path d="M9.60732984,11.4893617 L19.2146597,11.4893617 L47.977404,11.4893617 C55.6462707,11.4893617 59.53499,17.0064212 60.1443221,18.7792405 L71.178265,52.6624857 C80.5981858,55.146401 99.242285,58.2926623 99.242285,71.7457492 L9.60732984,71.7457492 L9.60732984,11.4893617 Z" id="Rectangle-61-Copy" fill="#F47A3B"></path>
                                <rect id="Rectangle-62" fill="#E36F32" x="14.0907504" y="15.3191489" width="14.0907504" height="37.6595745" rx="4"></rect>
                                <path d="M0,0 L19.8945825,-1.77635684e-15 C26.2399817,-2.94198777e-15 31.3839442,5.14396245 31.3839442,11.4893617 L0,11.4893617 L0,0 Z" id="Rectangle-62-Copy-2" fill="#C2542E"></path>
                                <g id="Rectangle-62-Copy" transform="translate(31.383944, 15.319149)">
                                    <mask id="mask-3" fill="white">
                                        <use xlink:href="#path-2"></use>
                                    </mask>
                                    <use id="Mask" fill="#B7DFD4" xlink:href="#path-2"></use>
                                    <polygon fill="#A8D7CB" mask="url(#mask-3)" transform="translate(27.975230, 31.269335) rotate(35.000000) translate(-27.975230, -31.269335) " points="9.29608329 9.24793837 33.7507945 9.24793837 46.6543761 53.2904916 9.29608329 53.2904916"></polygon>
                                    <polygon fill="#48766B" opacity="0.200407609" mask="url(#mask-3)" points="0 28.0851064 37.3582928 28.0851064 37.3582928 72.1276596 0 72.1276596"></polygon>
                                </g>
                            </g>
                            <g id="Group-40" transform="translate(57.003490, 15.957447)">
                                <path d="M8.32635253,1.77635684e-15 L12.4320661,2.66453526e-15 C14.5727426,2.27129937e-15 16.4759286,1.36273835 17.1655262,3.38929972 L20.8125603,14.1070544 C20.9904734,14.6298979 20.7108519,15.1979734 20.1880084,15.3758864 C20.0842742,15.4111851 19.9754437,15.4291944 19.8658683,15.4291944 L13.5765938,15.4291944 L8.32635253,1.77635684e-15 Z" id="Rectangle-63-Copy-2" fill="#6A4C5B"></path>
                                <rect id="Rectangle-63" fill="#F47A3B" x="0" y="0" width="15.3717277" height="2.55319149" rx="1.27659574"></rect>
                                <path d="M10.2478185,1.77635684e-15 L14.3535321,3.55271368e-15 C16.4942086,3.15947778e-15 18.3973945,1.36273835 19.0869922,3.38929972 L22.7340263,14.1070544 C22.9119393,14.6298979 22.6323179,15.1979734 22.1094743,15.3758864 C22.0057402,15.4111851 21.8969097,15.4291944 21.7873343,15.4291944 L15.4980598,15.4291944 L10.2478185,1.77635684e-15 Z" id="Rectangle-63-Copy" fill="#F47A3B"></path>
                            </g>
                            <path d="M86.4659686,89.3617021 L98.6505885,89.3617021 C101.118244,89.3617021 103.118674,91.362132 103.118674,93.8297872 L103.118674,93.8297872 C103.118674,96.2974425 101.118244,98.2978723 98.6505885,98.2978723 L86.4659686,98.2978723 L86.4659686,89.3617021 Z" id="Rectangle-64" fill="#FFAE3E"></path>
                            <path d="M88.3874346,84.893617 L98.3182949,84.893617 C98.8470782,84.893617 99.2757417,85.3222806 99.2757417,85.8510638 L99.2757417,85.8510638 C99.2757417,86.3798471 98.8470782,86.8085106 98.3182949,86.8085106 L88.3874346,86.8085106 L88.3874346,84.893617 Z" id="Rectangle-64-Copy" fill="#A7483B" transform="translate(93.831588, 85.851064) scale(-1, 1) translate(-93.831588, -85.851064) "></path>
                            <path d="M88.3874346,75.9574468 L98.3182949,75.9574468 C98.8470782,75.9574468 99.2757417,76.3861103 99.2757417,76.9148936 L99.2757417,76.9148936 C99.2757417,77.4436769 98.8470782,77.8723404 98.3182949,77.8723404 L88.3874346,77.8723404 L88.3874346,75.9574468 Z" id="Rectangle-64-Copy-2" fill="#A7483B" transform="translate(93.831588, 76.914894) scale(-1, 1) translate(-93.831588, -76.914894) "></path>
                            <path d="M88.3874346,80.4255319 L98.3182949,80.4255319 C98.8470782,80.4255319 99.2757417,80.8541955 99.2757417,81.3829787 L99.2757417,81.3829787 C99.2757417,81.911762 98.8470782,82.3404255 98.3182949,82.3404255 L88.3874346,82.3404255 L88.3874346,80.4255319 Z" id="Rectangle-64-Copy-3" fill="#A7483B" transform="translate(93.831588, 81.382979) scale(-1, 1) translate(-93.831588, -81.382979) "></path>
                        </g>
                        <rect id="Rectangle-61" fill="#E06442" x="0" y="11.4893617" width="9.60732984" height="90.6382979"></rect>
                    </g>
                    <g id="Group-29" transform="translate(65.329843, 122.553191)">
                        <path d="M198.551483,0 L286.318146,-8.8817842e-16 C289.490846,-1.47099389e-15 292.062827,2.57198122 292.062827,5.74468085 L292.062827,5.74468085 C292.062827,8.91738048 289.490846,11.4893617 286.318146,11.4893617 L198.551483,11.4893617 L198.551483,0 Z" id="Rectangle-53-Copy" fill="#694C5B"></path>
                        <path d="M0,0 L192.806803,4.17443857e-14 C195.979502,2.42540302e-14 198.551483,2.57198122 198.551483,5.74468085 L198.551483,5.74468085 C198.551483,8.91738048 195.979502,11.4893617 192.806803,11.4893617 L0,11.4893617 L0,0 Z" id="Rectangle-53-Copy-2" fill="#855F70" transform="translate(99.275742, 5.744681) scale(-1, 1) translate(-99.275742, -5.744681) "></path>
                        <rect id="Rectangle-53-Copy-2" fill="#694C5B" transform="translate(31.383944, 5.744681) scale(-1, 1) translate(-31.383944, -5.744681) " x="0" y="0" width="62.7678883" height="11.4893617" rx="5.74468085"></rect>
                        <path d="M208.158813,0 L295.925476,-1.50990331e-14 C299.098176,-7.22807858e-15 301.670157,2.57198122 301.670157,5.74468085 L301.670157,5.74468085 C301.670157,8.91738048 299.098176,11.4893617 295.925476,11.4893617 L208.158813,11.4893617 L208.158813,0 Z" id="Rectangle-53" fill="#855F70"></path>
                    </g>
                    <path d="M338.818499,134.042553 C338.818499,119.941666 327.348238,108.510638 313.198953,108.510638 C299.049668,108.510638 287.579407,119.941666 287.579407,134.042553 L338.818499,134.042553 Z" id="Oval-27" fill="#363837"></path>
                    <g id="Group-27" transform="translate(293.343805, 114.255319)">
                        <path d="M17.9336824,35.7446809 C19.1587999,35.7446809 20.9663766,35.7446809 23.3564125,35.7446809 C30.6839195,33.4982776 35.8673647,25.9115709 35.8673647,17.8723404 C35.8673647,9.65442386 30.9360532,2.08776024 23.3564125,0 C20.8468437,2.72955417e-13 19.039267,4.09433126e-13 17.9336824,4.09433126e-13 C8.02918309,4.09433126e-13 0,8.00171937 0,17.8723404 C0,27.7429615 8.02918309,35.7446809 17.9336824,35.7446809 Z" id="Oval-26-Copy" fill="#4E3C38"></path>
                        <ellipse id="Oval-26" fill="#664E49" cx="23.0575916" cy="17.8723404" rx="17.9336824" ry="17.8723404"></ellipse>
                        <ellipse id="Oval-26-Copy-2" fill="#E3E2B3" cx="23.0575916" cy="17.8723404" rx="11.5287958" ry="11.4893617"></ellipse>
                        <ellipse id="Oval-26-Copy-3" fill="#CCCBA1" cx="23.0575916" cy="17.8723404" rx="6.40488656" ry="6.38297872"></ellipse>
                    </g>
                    <path d="M202.394415,134.042553 C202.394415,119.941666 190.924154,108.510638 176.774869,108.510638 C162.625584,108.510638 151.155323,119.941666 151.155323,134.042553 L202.394415,134.042553 Z" id="Oval-27-Copy" fill="#363837"></path>
                    <g id="Group-27-Copy" transform="translate(156.279232, 114.255319)">
                        <path d="M17.9336824,35.7446809 C19.1587999,35.7446809 20.9663766,35.7446809 23.3564125,35.7446809 C30.6839195,33.4982776 35.8673647,25.9115709 35.8673647,17.8723404 C35.8673647,9.65442386 30.9360532,2.08776024 23.3564125,0 C20.8468437,2.72955417e-13 19.039267,4.09433126e-13 17.9336824,4.09433126e-13 C8.02918309,4.09433126e-13 0,8.00171937 0,17.8723404 C0,27.7429615 8.02918309,35.7446809 17.9336824,35.7446809 Z" id="Oval-26-Copy" fill="#4E3C38"></path>
                        <ellipse id="Oval-26" fill="#664E49" cx="23.0575916" cy="17.8723404" rx="17.9336824" ry="17.8723404"></ellipse>
                        <ellipse id="Oval-26-Copy-2" fill="#E3E2B3" cx="23.0575916" cy="17.8723404" rx="11.5287958" ry="11.4893617"></ellipse>
                        <ellipse id="Oval-26-Copy-3" fill="#CCCBA1" cx="23.0575916" cy="17.8723404" rx="6.40488656" ry="6.38297872"></ellipse>
                    </g>
                    <rect id="Rectangle-55" fill="#92A6ED" x="128.73822" y="11.4893617" width="135.143106" height="3.19148936"></rect>
                    <rect id="Rectangle-55-Copy" fill="#92A6ED" x="128.73822" y="104.680851" width="135.143106" height="3.19148936"></rect>
                    <g id="Group-32" transform="translate(38.429319, 118.723404)">
                        <polygon id="Rectangle-56" fill="#E3E2B3" points="39.5380787 0 82.4508187 0 42.91274 26.8085106 0 26.8085106"></polygon>
                        <rect id="Rectangle-57" fill="#B5B48F" x="0" y="26.8085106" width="42.91274" height="4.46808511"></rect>
                        <polygon id="Rectangle-57-Copy" fill="#CCCBA1" points="42.91274 26.8085106 82.4004571 0.00796183669 82.4004571 4.47604694 42.91274 31.2765957"></polygon>
                    </g>
                    <path d="M49.6378709,142.021277 L81.6623037,142.021277" id="Line-71" stroke="#B5B48F" stroke-linecap="round"></path>
                    <path d="M59.2452007,135.638298 L91.2696335,135.638298" id="Line-71-Copy" stroke="#B5B48F" stroke-linecap="round"></path>
                    <path d="M68.2120419,129.255319 L100.236475,129.255319" id="Line-71-Copy-2" stroke="#B5B48F" stroke-linecap="round"></path>
                    <path d="M78.4598604,122.87234 L110.484293,122.87234" id="Line-71-Copy-3" stroke="#B5B48F" stroke-linecap="round"></path>
                    <g id="Group" transform="translate(157.560209, 35.106383)" fill="#323232">
                        <path d="M5.86447426,0 C7.33467337,-2.70071196e-16 8.52650524,1.19183186 8.52650524,2.66203098 L8.52650524,35.6358414 C8.52650524,37.1060405 7.33467337,38.2978723 5.86447426,38.2978723 C4.39427515,38.2978723 3.20244328,37.1060405 3.20244328,35.6358414 L3.20244328,2.66203098 C3.20244328,1.19183186 4.39427515,2.70071196e-16 5.86447426,0 Z M31.4199716,0 C32.8901708,-2.70071196e-16 34.0820026,1.19183186 34.0820026,2.66203098 L34.0820026,35.6358414 C34.0820026,37.1060405 32.8901708,38.2978723 31.4199716,38.2978723 C29.9497725,38.2978723 28.7579407,37.1060405 28.7579407,35.6358414 L28.7579407,2.66203098 C28.7579407,1.19183186 29.9497725,2.70071196e-16 31.4199716,0 Z M50.5865947,0 C52.0567938,-2.70071196e-16 53.2486257,1.19183186 53.2486257,2.66203098 L53.2486257,35.6358414 C53.2486257,37.1060405 52.0567938,38.2978723 50.5865947,38.2978723 C49.1163956,38.2978723 47.9245637,37.1060405 47.9245637,35.6358414 L47.9245637,2.66203098 C47.9245637,1.19183186 49.1163956,2.70071196e-16 50.5865947,0 Z M76.1420921,0 C77.6122912,-2.70071196e-16 78.804123,1.19183186 78.804123,2.66203098 L78.804123,35.6358414 C78.804123,37.1060405 77.6122912,38.2978723 76.1420921,38.2978723 C74.6718929,38.2978723 73.4800611,37.1060405 73.4800611,35.6358414 L73.4800611,2.66203098 C73.4800611,1.19183186 74.6718929,2.70071196e-16 76.1420921,0 Z M15.4477858,12.7659574 C16.9179849,12.7659574 18.1098168,13.9577893 18.1098168,15.4279884 L18.1098168,32.444352 C18.1098168,33.9145511 16.9179849,35.106383 15.4477858,35.106383 C13.9775867,35.106383 12.7857548,33.9145511 12.7857548,32.444352 L12.7857548,15.4279884 C12.7857548,13.9577893 13.9775867,12.7659574 15.4477858,12.7659574 Z M41.0032832,18.0851064 C42.4734823,18.0851064 43.6653141,19.2769382 43.6653141,20.7471374 L43.6653141,35.6358414 C43.6653141,37.1060405 42.4734823,38.2978723 41.0032832,38.2978723 C39.533084,38.2978723 38.3412522,37.1060405 38.3412522,35.6358414 L38.3412522,20.7471374 C38.3412522,19.2769382 39.533084,18.0851064 41.0032832,18.0851064 Z M68.6884053,23.4042553 C70.1586044,23.4042553 71.3504363,24.5960872 71.3504363,26.0662863 L71.3504363,35.6358414 C71.3504363,37.1060405 70.1586044,38.2978723 68.6884053,38.2978723 C67.2182062,38.2978723 66.0263743,37.1060405 66.0263743,35.6358414 L66.0263743,26.0662863 C66.0263743,24.5960872 67.2182062,23.4042553 68.6884053,23.4042553 Z M85.7254036,0 C87.1956027,-2.70071196e-16 88.3874346,1.19183186 88.3874346,2.66203098 L88.3874346,12.231586 C88.3874346,13.7017852 87.1956027,14.893617 85.7254036,14.893617 C84.2552045,14.893617 83.0633726,13.7017852 83.0633726,12.231586 L83.0633726,2.66203098 C83.0633726,1.19183186 84.2552045,2.70071196e-16 85.7254036,0 Z" id="logo-copy-2"></path>
                        <text id="DIMENSION" font-family=".SFNSDisplay, .SF NS Display" font-size="23" font-weight="normal" letter-spacing="0.4928572">
                            <tspan x="0" y="58.5661702">DIMENS</tspan>
                            <tspan x="0" y="85.5661702">ION</tspan>
                        </text>
                    </g>
                    <g id="Group-36" transform="translate(147.952880, 93.829787)">
                        <rect id="Rectangle-59" fill="#B87A2C" x="0" y="0" width="16.6527051" height="56.1702128"></rect>
                        <rect id="Rectangle-59-Copy" fill="#DE8F36" x="16.0122164" y="0" width="16.6527051" height="56.1702128"></rect>
                    </g>
                    <g id="Group-37" transform="translate(89.027923, 67.659574)">
                        <g id="Group-36-Copy-4" transform="translate(0.000000, 20.425532)">
                            <rect id="Rectangle-59" fill="#B87A2C" x="0" y="0" width="11.5287958" height="30.6382979"></rect>
                            <rect id="Rectangle-59-Copy" fill="#DE8F36" x="10.8883072" y="0" width="20.495637" height="30.6382979"></rect>
                        </g>
                        <g id="Group-36-Copy-5" transform="translate(8.966841, 0.000000)">
                            <rect id="Rectangle-59" fill="#B87A2C" x="0" y="0" width="15.3717277" height="20.4255319"></rect>
                            <rect id="Rectangle-59-Copy" fill="#DE8F36" x="15.3717277" y="0" width="7.04537522" height="20.4255319"></rect>
                            <polygon id="Rectangle-59-Copy" fill="#C98631" points="18.181857 0 22.417103 0 22.417103 51.0638298 11.177239 51.0638298"></polygon>
                        </g>
                    </g>
                    <g id="Group-36-Copy-2" transform="translate(0.000000, 128.297872)">
                        <rect id="Rectangle-59" fill="#B87A2C" x="0" y="0" width="10.2478185" height="21.7021277"></rect>
                        <rect id="Rectangle-59-Copy" fill="#DE8F36" x="9.60732984" y="0" width="17.9336824" height="21.7021277"></rect>
                    </g>
                    <g id="Group-36-Copy" transform="translate(108.883072, 115.531915)">
                        <rect id="Rectangle-59" fill="#B87A2C" x="0" y="0" width="16.6527051" height="34.4680851"></rect>
                        <rect id="Rectangle-59-Copy" fill="#DE8F36" x="16.0122164" y="0" width="35.2268761" height="34.4680851"></rect>
                        <polygon id="Rectangle-59-Copy" fill="#C98631" points="51.2390925 0 51.2390925 34.4680851 16.0122164 34.4680851 24.1345078 26.5207488 24.1345078 21.1633208 29.6098758 21.1633208"></polygon>
                    </g>
                    <g id="Group-35" transform="translate(134.502618, 138.510638)">
                        <rect id="Rectangle-58" fill="#B87A2C" x="0" y="0" width="8.32635253" height="11.4893617"></rect>
                        <rect id="Rectangle-58-Copy" fill="#DE8F36" x="8.32635253" y="0" width="42.91274" height="11.4893617"></rect>
                    </g>
                    <path d="M70.8917976,102.12766 L78.7801047,102.12766 L78.7801047,111.702128 L70.8917976,111.702128 C69.2349433,111.702128 67.8917976,110.358982 67.8917976,108.702128 L67.8917976,105.12766 C67.8917976,103.470805 69.2349433,102.12766 70.8917976,102.12766 Z" id="Rectangle-60" fill="#D55F3C"></path>
                    <g id="Group-38" transform="translate(120.411867, 102.127660)">
                        <rect id="Rectangle-60-Copy" fill="#D55F3C" x="0" y="0" width="8.32635253" height="9.57446809"></rect>
                        <path d="M8.32635253,0 L16.8551483,0 C18.5120026,-3.04359188e-16 19.8551483,1.34314575 19.8551483,3 L19.8551483,6.57446809 C19.8551483,8.23132233 18.5120026,9.57446809 16.8551483,9.57446809 L8.32635253,9.57446809 L8.32635253,0 Z" id="Rectangle-60-Copy-2" fill="#F47A3B"></path>
                    </g>
                </g>
                <g id="Group-36-Copy-3" transform="translate(278.000000, 343.000000)">
                    <rect id="Rectangle-59" fill="#B87A2C" x="5.12" y="10.9555556" width="15.36" height="47.0444444"></rect>
                    <polygon id="Rectangle-59-Copy-3" fill="#AD7329" points="0 0 14.1312969 0 19.2 10.9555556 5.06870314 10.9555556"></polygon>
                    <rect id="Rectangle-59-Copy" fill="#DE8F36" x="19.2" y="10.9555556" width="40.32" height="47.0444444"></rect>
                    <polygon id="Rectangle-59-Copy" fill="#C98631" points="19.2 49.2650056 59.52 22.5555556 59.52 58 19.2 58"></polygon>
                    <polygon id="Rectangle-59-Copy-2" fill="#C98631" points="23.6092601 0 64 0 59.5907399 10.9555556 19.2 10.9555556"></polygon>
                </g>
                <path d="M271,136 C277.627417,136 283,132.517593 283,128.221825 C283,123.926058 259,123.926058 259,128.221825 C259,132.517593 264.372583,136 271,136 Z" id="Oval-28" fill="#FFFFFF" transform="translate(271.000000, 130.500000) rotate(-12.000000) translate(-271.000000, -130.500000) "></path>
            </g>
        </g>
    </g>
</svg>