<?xml version="1.0" encoding="UTF-8"?>
<svg width="500px" height="500px" viewBox="0 0 500 500" version="1.1" xmlns="http://www.w3.org/2000/svg" xmlns:xlink="http://www.w3.org/1999/xlink">
    <!-- Generator: Sketch 50.2 (55047) - http://www.bohemiancoding.com/sketch -->
    <title>Application1</title>
    <desc>Created with Sketch.</desc>
    <defs>
        <linearGradient x1="50%" y1="0%" x2="50%" y2="100%" id="linearGradient-1">
            <stop stop-color="#A4B4FF" offset="0%"></stop>
            <stop stop-color="#BD8CFF" offset="100%"></stop>
        </linearGradient>
        <rect id="path-2" x="0" y="0" width="128" height="20"></rect>
        <rect id="path-4" x="0" y="0" width="128" height="20"></rect>
        <rect id="path-6" x="0" y="0" width="121" height="48.7801418"></rect>
    </defs>
    <g id="Page-1" stroke="none" stroke-width="1" fill="none" fill-rule="evenodd">
        <g id="Artboard-2-Copy-2" transform="translate(-147.000000, -7818.000000)">
            <g id="Application1" transform="translate(147.000000, 7818.000000)">
                <rect id="Rectangle-16" fill="url(#linearGradient-1)" x="0" y="0" width="500" height="500"></rect>
                <path d="M104.759814,329.385262 C121.384607,336.459872 122.790478,336.00628 129.984521,329.385262 C137.018067,322.911957 134.488398,296.930931 142.063959,278.5 C148.375811,263.143604 188.274482,329.205894 197.908466,316.540711 C210.665506,299.769844 194.004265,206.202003 208.20419,204.066561 C230.359093,200.734817 226.915365,323.590396 270.238585,323.707199 C282.754014,323.740941 298.812962,239.08123 326.332152,221.851195 C338.933916,213.961107 360.429192,304.253287 393.560192,323.707199 C401.263615,328.230506 436.76643,316.886693 444.148788,316.540711 C453.541219,316.100525 461.491623,328.253621 468,353 L455.183229,353 L63,353 C72.2496921,329.345868 86.16963,321.474289 104.759814,329.385262 Z" id="Rectangle-48" fill="#9F92EC"></path>
                <g id="Group-4" transform="translate(344.000000, 86.000000)">
                    <circle id="Oval-5" fill="#1B1D27" cx="41.8192308" cy="42.4576923" r="27.1346154"></circle>
                    <path d="M41.5,83 C18.5801829,83 0,64.4198171 0,41.5 C0,18.5801829 18.5801829,0 41.5,0 C64.4198171,0 83,18.5801829 83,41.5 C83,64.4198171 64.4198171,83 41.5,83 Z M41.8214024,27.6753532 C47.8565944,27.6753532 52.7490842,22.7828634 52.7490842,16.7476714 C52.7490842,10.7124793 47.8565944,5.81998953 41.8214024,5.81998953 C35.7862104,5.81998953 30.8937206,10.7124793 30.8937206,16.7476714 C30.8937206,22.7828634 35.7862104,27.6753532 41.8214024,27.6753532 Z M54.213116,35.0676086 C57.230712,40.2942382 63.9139774,42.0850138 69.140607,39.0674177 C74.3672366,36.0498217 76.1580122,29.3665564 73.1404162,24.1399267 C70.1228202,18.9132971 63.4395548,17.1225216 58.2129252,20.1401176 C52.9862956,23.1577136 51.19552,29.840979 54.213116,35.0676086 Z M54.213116,49.8521193 C51.19552,55.0787489 52.9862956,61.7620143 58.2129252,64.7796103 C63.4395548,67.7972063 70.1228202,66.0064308 73.1404162,60.7798012 C76.1580122,55.5531715 74.3672366,48.8699062 69.140607,45.8523102 C63.9139774,42.8347141 57.230712,44.6254897 54.213116,49.8521193 Z M41.8214024,57.2443747 C35.7862104,57.2443747 30.8937206,62.1368645 30.8937206,68.1720565 C30.8937206,74.2072485 35.7862104,79.0997384 41.8214024,79.0997384 C47.8565944,79.0997384 52.7490842,74.2072485 52.7490842,68.1720565 C52.7490842,62.1368645 47.8565944,57.2443747 41.8214024,57.2443747 Z M28.786884,49.8521193 C25.769288,44.6254897 19.0860226,42.8347141 13.859393,45.8523102 C8.63276337,48.8699062 6.84198781,55.5531715 9.85958383,60.7798012 C12.8771798,66.0064308 19.5604452,67.7972063 24.7870748,64.7796103 C30.0137044,61.7620143 31.80448,55.0787489 28.786884,49.8521193 Z M28.786884,35.0676086 C31.80448,29.840979 30.0137044,23.1577136 24.7870748,20.1401176 C19.5604452,17.1225216 12.8771798,18.9132971 9.85958383,24.1399267 C6.84198781,29.3665564 8.63276337,36.0498217 13.859393,39.0674177 C19.0860226,42.0850138 25.769288,40.2942382 28.786884,35.0676086 Z" id="Combined-Shape" fill="#FFAE5C"></path>
                </g>
                <rect id="Rectangle-42" fill="#211D3E" x="218" y="310" width="63" height="38"></rect>
                <path d="M226,312 L274,312 L274,312 C274,332.98682 256.98682,350 236,350 L226,350 L226,312 Z" id="Rectangle-42-Copy-2" fill="#343453"></path>
                <ellipse id="Oval-25-Copy" fill="#998CE3" cx="250" cy="361.5" rx="136" ry="6.5"></ellipse>
                <ellipse id="Oval-25-Copy-2" fill="#998CE3" cx="355" cy="376.5" rx="89" ry="6.5"></ellipse>
                <g id="Group-3" transform="translate(143.000000, 147.000000)">
                    <polygon id="Rectangle-47" fill="#9285E5" points="13.4550898 0 307.54491 0 320.9698 137 13.4550898 137"></polygon>
                    <polygon id="Rectangle-47-Copy" fill="#B0A3FF" points="0 20.4859813 294.08982 20.4859813 300.606302 117.154206 0 117.154206"></polygon>
                    <rect id="Rectangle-4" fill="#B0A3FF" x="243.473054" y="3.8411215" width="6.40718563" height="13.4439252"></rect>
                    <rect id="Rectangle-4-Copy-6" fill="#B0A3FF" x="243.473054" y="120.35514" width="6.40718563" height="13.4439252"></rect>
                    <rect id="Rectangle-4-Copy-2" fill="#B0A3FF" x="265.257485" y="3.8411215" width="6.40718563" height="13.4439252"></rect>
                    <rect id="Rectangle-4-Copy-7" fill="#B0A3FF" x="265.257485" y="120.35514" width="6.40718563" height="13.4439252"></rect>
                    <rect id="Rectangle-4-Copy-4" fill="#B0A3FF" x="287.041916" y="3.8411215" width="6.40718563" height="13.4439252"></rect>
                    <rect id="Rectangle-4-Copy-8" fill="#B0A3FF" x="287.041916" y="120.35514" width="6.40718563" height="13.4439252"></rect>
                    <rect id="Rectangle-4-Copy" fill="#B0A3FF" x="254.365269" y="3.8411215" width="6.40718563" height="13.4439252"></rect>
                    <rect id="Rectangle-4-Copy-9" fill="#B0A3FF" x="254.365269" y="120.35514" width="6.40718563" height="13.4439252"></rect>
                    <rect id="Rectangle-4-Copy-3" fill="#B0A3FF" x="276.149701" y="3.8411215" width="6.40718563" height="13.4439252"></rect>
                    <rect id="Rectangle-4-Copy-10" fill="#B0A3FF" x="276.149701" y="120.35514" width="6.40718563" height="13.4439252"></rect>
                    <rect id="Rectangle-4-Copy-5" fill="#B0A3FF" x="297.934132" y="3.8411215" width="6.40718563" height="13.4439252"></rect>
                    <rect id="Rectangle-4-Copy-11" fill="#B0A3FF" x="297.934132" y="120.35514" width="6.40718563" height="13.4439252"></rect>
                    <rect id="Rectangle-4-Copy-12" fill="#B0A3FF" x="308.826347" y="120.35514" width="6.40718563" height="13.4439252"></rect>
                </g>
                <ellipse id="Oval-25-Copy-3" fill="#3D3671" transform="translate(133.500000, 304.000000) rotate(109.000000) translate(-133.500000, -304.000000) " cx="133.5" cy="304" rx="60.5" ry="3"></ellipse>
                <ellipse id="Oval-25-Copy-5" fill="#3D3671" transform="translate(224.000000, 303.000000) scale(-1, 1) rotate(109.000000) translate(-224.000000, -303.000000) " cx="224" cy="303" rx="51" ry="3"></ellipse>
                <ellipse id="Oval-25-Copy-4" fill="#3D3671" transform="translate(152.500000, 305.000000) rotate(90.000000) translate(-152.500000, -305.000000) " cx="152.5" cy="305" rx="60.5" ry="3"></ellipse>
                <g id="Group-5" transform="translate(102.000000, 86.000000)">
                    <path d="M79.9635518,10.211762 L83.9241606,10.2378505 C86.9011107,10.2574596 89.4134946,12.4569296 89.8265934,15.4051436 L90.2814386,18.6512943 C90.741258,21.9329448 88.4537119,24.9660055 85.1720614,25.4258249 C84.8962196,25.4644754 84.6180212,25.483871 84.3394847,25.483871 L79.4329208,25.483871 C76.1192123,25.483871 73.4329208,22.7975795 73.4329208,19.483871 C73.4329208,19.1857894 73.4551339,18.8881222 73.4993756,18.5933422 L73.9904856,15.3211031 C74.4334925,12.3693715 76.978826,10.1921017 79.9635518,10.211762 Z" id="Rectangle-5-Copy-3" fill="#3B3B5F"></path>
                    <path d="M19.4712213,45.9732744 C17.5478188,45.9634615 15.8897605,47.3239827 15.5238591,49.2122861 L14.27165,55.6745476 C14.223065,55.9252795 14.198605,56.1800882 14.198605,56.4354839 C14.198605,58.6446229 15.989466,60.4354839 18.198605,60.4354839 L33.0176508,60.4354839 C33.2564377,60.4354839 33.4947449,60.4141018 33.7297177,60.3715937 C35.9035711,59.97833 37.3470243,57.8972704 36.9537606,55.723417 L35.7961503,49.3244655 C35.4531507,47.4284584 33.8072052,46.0464145 31.8804476,46.0365844 L19.4712213,45.9732744 Z" id="Rectangle-5-Copy-5" stroke="#211D3E" stroke-width="4" fill="#3B3B5F"></path>
                    <rect id="Rectangle-5-Copy-4" stroke="#211D3E" fill="#3B3B5F" x="57.4238579" y="6.87096774" width="50.8071066" height="8.55645161" rx="4.27822581"></rect>
                    <path d="M39.333892,18.4758065 C53.6394036,18.4758065 65.4263689,18.4758065 65.236312,10.1935484 C65.0462552,1.91129032 53.6394036,1.91129032 39.333892,1.91129032 C25.0283805,1.91129032 13.4314721,5.61938356 13.4314721,10.1935484 C13.4314721,14.7677132 25.0283805,18.4758065 39.333892,18.4758065 Z" id="Oval-6" stroke="#211D3E" fill="#3B3B5F"></path>
                    <path d="M109.050074,18.563319 C112.26333,19.4524794 115.19969,20.5550969 115.125528,10.4519377 C115.051366,0.348778438 112.241499,1.72468429 109.050074,2.34055637 C105.858649,2.95642844 102.974619,5.97214547 102.974619,10.4519377 C102.974619,14.9317299 105.836817,17.6741585 109.050074,18.563319 Z" id="Oval-6-Copy" stroke="#211D3E" fill="#3B3B5F" transform="translate(109.050761, 10.512097) rotate(-16.000000) translate(-109.050761, -10.512097) "></path>
                    <path d="M49.6192893,21.6612903 L101,21.6612903 C114.807119,21.6612903 126,32.8541716 126,46.6612903 L126,55 C126,68.254834 115.254834,79 102,79 L49.6192893,79 C40.2304486,79 32.6192893,71.3888407 32.6192893,62 L32.6192893,38.6612903 C32.6192893,29.2724496 40.2304486,21.6612903 49.6192893,21.6612903 Z" id="Rectangle-49" fill="#211D3E"></path>
                    <path d="M47.6548223,34.4032258 L89.857868,34.4032258 C94.276146,34.4032258 97.857868,37.9849478 97.857868,42.4032258 L97.857868,68.4516129 C97.857868,72.8698909 94.276146,76.4516129 89.857868,76.4516129 L47.6548223,76.4516129 C43.2365443,76.4516129 39.6548223,72.8698909 39.6548223,68.4516129 L39.6548223,42.4032258 C39.6548223,37.9849478 43.2365443,34.4032258 47.6548223,34.4032258 Z M53.7567545,38.6080645 C49.3384765,38.6080645 45.7567545,42.1897865 45.7567545,46.6080645 L45.7567545,55.8370968 C45.7567545,60.2553748 49.3384765,63.8370968 53.7567545,63.8370968 L84.2253152,63.8370968 C88.6435932,63.8370968 92.2253152,60.2553748 92.2253152,55.8370968 L92.2253152,46.6080645 C92.2253152,42.1897865 88.6435932,38.6080645 84.2253152,38.6080645 L53.7567545,38.6080645 Z" id="Combined-Shape" fill="#FFFFFF" opacity="0.093580163"></path>
                    <rect id="Rectangle-5-Copy" fill="#FFFFFF" opacity="0.093580163" x="101.695431" y="34.4032258" width="18.5482234" height="25.483871" rx="6"></rect>
                    <path d="M11.7056293,33.9732444 C11.1736905,33.6277654 10.5578679,33.4333325 9.92398806,33.410729 C7.99221923,33.3418442 6.37036898,34.85201 6.30148414,36.7837789 L5.1228903,69.8356232 C5.09741625,70.5500036 5.29129381,71.2550553 5.67845186,71.8559686 C6.72537298,73.4809093 8.8913449,73.9494867 10.5162856,72.9025656 L23.4793747,64.5506718 C24.479451,63.90634 25.0837563,62.7981271 25.0837563,61.6084565 L25.0837563,44.5621978 C25.0837563,43.3770711 24.4840265,42.2724471 23.4901246,41.6269363 L11.7056293,33.9732444 Z" id="Rectangle-50-Copy" stroke="#211D3E" fill="#3B3B5F"></path>
                    <rect id="Rectangle-50" stroke="#211D3E" fill="#3B3B5F" x="0.5" y="27.8951613" width="8.59390863" height="50.6048387" rx="4"></rect>
                    <ellipse id="Oval-24" fill="#FF6969" cx="46.3705584" cy="28.9879032" rx="2.23857868" ry="2.22983871"></ellipse>
                    <ellipse id="Oval-24-Copy" fill="#F57C23" cx="55.964467" cy="28.9879032" rx="2.23857868" ry="2.22983871"></ellipse>
                    <ellipse id="Oval-24-Copy-2" fill="#F57C23" cx="64.9187817" cy="28.9879032" rx="2.23857868" ry="2.22983871"></ellipse>
                    <ellipse id="Oval-24-Copy-3" fill="#FFFFFF" cx="74.5126904" cy="28.9879032" rx="2.23857868" ry="2.22983871"></ellipse>
                </g>
                <g id="Group-3-Copy" transform="translate(218.500000, 238.500000) scale(-1, 1) translate(-218.500000, -238.500000) translate(58.000000, 170.000000)">
                    <polygon id="Rectangle-47" fill="#9285E5" points="13.4550898 0 307.54491 0 320.9698 137 13.4550898 137"></polygon>
                    <polygon id="Rectangle-47-Copy" fill="#B0A3FF" points="0 20.4859813 294.08982 20.4859813 300.606302 117.154206 0 117.154206"></polygon>
                    <rect id="Rectangle-4" fill="#B0A3FF" x="243.473054" y="3.8411215" width="6.40718563" height="13.4439252"></rect>
                    <rect id="Rectangle-4-Copy-6" fill="#B0A3FF" x="243.473054" y="120.35514" width="6.40718563" height="13.4439252"></rect>
                    <rect id="Rectangle-4-Copy-2" fill="#B0A3FF" x="265.257485" y="3.8411215" width="6.40718563" height="13.4439252"></rect>
                    <rect id="Rectangle-4-Copy-7" fill="#B0A3FF" x="265.257485" y="120.35514" width="6.40718563" height="13.4439252"></rect>
                    <rect id="Rectangle-4-Copy-4" fill="#B0A3FF" x="287.041916" y="3.8411215" width="6.40718563" height="13.4439252"></rect>
                    <rect id="Rectangle-4-Copy-8" fill="#B0A3FF" x="287.041916" y="120.35514" width="6.40718563" height="13.4439252"></rect>
                    <rect id="Rectangle-4-Copy" fill="#B0A3FF" x="254.365269" y="3.8411215" width="6.40718563" height="13.4439252"></rect>
                    <rect id="Rectangle-4-Copy-9" fill="#B0A3FF" x="254.365269" y="120.35514" width="6.40718563" height="13.4439252"></rect>
                    <rect id="Rectangle-4-Copy-3" fill="#B0A3FF" x="276.149701" y="3.8411215" width="6.40718563" height="13.4439252"></rect>
                    <rect id="Rectangle-4-Copy-10" fill="#B0A3FF" x="276.149701" y="120.35514" width="6.40718563" height="13.4439252"></rect>
                    <rect id="Rectangle-4-Copy-5" fill="#B0A3FF" x="297.934132" y="3.8411215" width="6.40718563" height="13.4439252"></rect>
                    <rect id="Rectangle-4-Copy-11" fill="#B0A3FF" x="297.934132" y="120.35514" width="6.40718563" height="13.4439252"></rect>
                    <rect id="Rectangle-4-Copy-12" fill="#B0A3FF" x="308.826347" y="120.35514" width="6.40718563" height="13.4439252"></rect>
                </g>
                <rect id="Rectangle-42-Copy" fill="#211D3E" x="182" y="348" width="136" height="13"></rect>
                <rect id="Rectangle-41" stroke="#211D3E" stroke-width="10" fill="#EFEFEF" x="119" y="145" width="262" height="162" rx="10"></rect>
                <circle id="Oval" fill="#FFFFFF" cx="250.5" cy="215.5" r="22.5"></circle>
                <polygon id="Triangle" fill="#EFEFEF" transform="translate(252.500000, 215.500000) rotate(90.000000) translate(-252.500000, -215.500000) " points="252.5 207 263 224 242 224"></polygon>
                <rect id="Rectangle-43" stroke="#FFFFFF" stroke-width="9" x="138.5" y="163.5" width="223" height="128"></rect>
                <rect id="Rectangle-43-Copy" fill="#FFFFFF" x="134" y="271" width="232" height="26"></rect>
                <rect id="Rectangle-43-Copy-2" fill="#FFFFFF" x="134" y="262" width="232" height="2"></rect>
                <circle id="Oval-20" fill="#FF6969" cx="156.5" cy="263.5" r="4.5"></circle>
                <rect id="Rectangle-44" fill="#332F52" x="287" y="288" width="128" height="86"></rect>
                <rect id="Rectangle-44-Copy" fill="#332F52" transform="translate(346.000000, 260.000000) rotate(-18.000000) translate(-346.000000, -260.000000) " x="282" y="250" width="128" height="20"></rect>
                <g id="Combined-Shape-Copy" transform="translate(346.000000, 260.000000) rotate(-18.000000) translate(-346.000000, -260.000000) translate(282.000000, 250.000000)">
                    <mask id="mask-3" fill="white">
                        <use xlink:href="#path-2"></use>
                    </mask>
                    <use id="Mask" fill="#332F52" xlink:href="#path-2"></use>
                    <path d="M4.43636044,0 L17.2406388,0 L5.76427839,20 L-7.04,20 L4.43636044,0 Z M44.1296234,0 L56.9339018,0 L45.4575414,20 L32.653263,20 L44.1296234,0 Z M83.1826725,0 L95.9869509,0 L84.5105905,20 L71.7063121,20 L83.1826725,0 Z M24.2829919,0 L37.0872703,0 L25.6109099,20 L12.8066315,20 L24.2829919,0 Z M63.9762549,0 L76.7805333,0 L65.3041729,20 L52.4998945,20 L63.9762549,0 Z M103.029304,0 L115.833582,0 L104.357222,20 L91.5529436,20 L103.029304,0 Z M122.235722,0 L135.04,0 L123.56364,20 L110.759361,20 L122.235722,0 Z" id="Combined-Shape" fill="#FFFFFF" mask="url(#mask-3)"></path>
                </g>
                <ellipse id="Oval-25" fill="#9F92EC" cx="174.5" cy="389" rx="60.5" ry="3"></ellipse>
                <g id="Combined-Shape" transform="translate(287.000000, 288.000000)">
                    <mask id="mask-5" fill="white">
                        <use xlink:href="#path-4"></use>
                    </mask>
                    <use id="Mask" fill="#332F52" xlink:href="#path-4"></use>
                    <path d="M4.43636044,0 L17.2406388,0 L5.76427839,20 L-7.04,20 L4.43636044,0 Z M44.1296234,0 L56.9339018,0 L45.4575414,20 L32.653263,20 L44.1296234,0 Z M83.1826725,0 L95.9869509,0 L84.5105905,20 L71.7063121,20 L83.1826725,0 Z M24.2829919,0 L37.0872703,0 L25.6109099,20 L12.8066315,20 L24.2829919,0 Z M63.9762549,0 L76.7805333,0 L65.3041729,20 L52.4998945,20 L63.9762549,0 Z M103.029304,0 L115.833582,0 L104.357222,20 L91.5529436,20 L103.029304,0 Z M122.235722,0 L135.04,0 L123.56364,20 L110.759361,20 L122.235722,0 Z" fill="#FFFFFF" mask="url(#mask-5)"></path>
                </g>
                <rect id="Rectangle-45" stroke="#FFFFFF" x="300.5" y="318.5" width="102" height="46"></rect>
                <path d="M352,318.321918 L352,364.963354" id="Line" stroke="#FFFFFF" stroke-linecap="square"></path>
                <path d="M301.320755,326 L402.729985,326" id="Line-Copy" stroke="#FFFFFF" stroke-linecap="square"></path>
                <g id="Group-2" transform="translate(143.000000, 208.000000)">
                    <rect id="Rectangle" fill="#5066B4" x="60.8201058" y="51.3475177" width="3.84126984" height="120.024823"></rect>
                    <g id="Oval-21" transform="translate(0.000000, 132.219858)">
                        <mask id="mask-7" fill="white">
                            <use xlink:href="#path-6"></use>
                        </mask>
                        <g id="Mask"></g>
                        <path d="M63.0608466,112.964539 C86.5738584,112.964539 125.454807,93.1033809 125.454807,72.0117829 C125.454807,50.920185 86.5738584,36.5851064 63.0608466,36.5851064 C39.5478347,36.5851064 20.4867725,53.6832248 20.4867725,74.7748227 C20.4867725,95.8664206 39.5478347,112.964539 63.0608466,112.964539 Z" fill="#343451" mask="url(#mask-7)"></path>
                    </g>
                    <g id="Group" transform="translate(56.080927, 34.631891) rotate(31.000000) translate(-56.080927, -34.631891) translate(13.080927, 20.131891)">
                        <polygon id="Rectangle-46-Copy-2" fill="#211D3E" points="23.176261 2.74245485 78.4810435 6.38238476 78.4810435 21.7753127 23.176261 25.758606"></polygon>
                        <path d="M77.9565141,6.33691442 L77.9565141,6.33691442 C82.2231459,6.33691442 85.6819344,9.79570291 85.6819344,14.0623347 L85.6819344,14.1017294 C85.6819344,18.3683612 82.2231459,21.8271497 77.9565141,21.8271497 L77.9565141,6.33691442 Z" id="Rectangle-2" fill="#FF6969"></path>
                        <rect id="Rectangle-3" fill="#ADA7FF" x="0" y="3.52050801" width="23.176261" height="21.1230481"></rect>
                        <rect id="Rectangle-46" fill="#FF6969" x="20.3670172" y="0" width="5.6184875" height="28.1640641" rx="2.80924375"></rect>
                        <rect id="Rectangle-46-Copy" fill="#FF6969" x="70.2310938" y="4.92871122" width="2.10693281" height="18.3066417" rx="1.05346641"></rect>
                    </g>
                    <ellipse id="Oval-2" fill="#211D3E" cx="62.7407407" cy="48.7801418" rx="6.4021164" ry="6.41843972"></ellipse>
                </g>
                <circle id="Oval-4" fill="#FFF78C" cx="385.5" cy="128.5" r="7.5"></circle>
                <circle id="Oval-4" fill="#4E4E4E" cx="385.5" cy="128.5" r="2.5"></circle>
            </g>
        </g>
    </g>
</svg>