<?xml version="1.0" encoding="UTF-8"?>
<svg width="1920px" height="766px" viewBox="0 0 1920 766" version="1.1" xmlns="http://www.w3.org/2000/svg" xmlns:xlink="http://www.w3.org/1999/xlink">
    <!-- Generator: Sketch 50.2 (55047) - http://www.bohemiancoding.com/sketch -->
    <title>BannerBackground@720</title>
    <desc>Created with Sketch.</desc>
    <defs></defs>
    <g id="Page-1" stroke="none" stroke-width="1" fill="none" fill-rule="evenodd">
        <g id="Artboard-2-Copy-2">
            <g id="BannerBackground" transform="translate(-47.000000, -161.000000)">
                <path d="M129.5,922.5 L182.5,418.5" id="Line" stroke="#A8BBD7" stroke-width="0.5" opacity="0.304404438" stroke-linecap="square"></path>
                <circle id="Oval-6" fill="#CEDCEF" cx="1149" cy="268" r="5"></circle>
                <circle id="Oval-6-Copy" fill="#CEDCEF" cx="1249" cy="323" r="5"></circle>
                <circle id="Oval-6-Copy-2" fill="#CEDCEF" cx="1391" cy="360" r="5"></circle>
                <circle id="Oval-6-Copy-3" fill="#CEDCEF" cx="898" cy="532" r="5"></circle>
                <circle id="Oval-6-Copy-4" fill="#CEDCEF" cx="934" cy="323" r="5"></circle>
                <circle id="Oval-6-Copy-5" fill="#CEDCEF" cx="1287" cy="642" r="5"></circle>
                <path d="M1287.5,639.5 L1247.5,322.5" id="Line-52" stroke="#A8BBD7" stroke-width="0.5" opacity="0.304404438" stroke-linecap="square"></path>
                <path d="M932.5,322.5 L1284.5,639.5" id="Line-53" stroke="#A8BBD7" stroke-width="0.5" opacity="0.304404438" stroke-linecap="square"></path>
                <circle id="Oval-6-Copy-6" fill="#CEDCEF" cx="1515" cy="408" r="5"></circle>
                <circle id="Oval-6-Copy-7" fill="#CEDCEF" cx="417" cy="426" r="5"></circle>
                <circle id="Oval-6-Copy-8" fill="#CEDCEF" cx="128" cy="922" r="5"></circle>
                <circle id="Oval-6-Copy-9" fill="#CEDCEF" cx="183" cy="418" r="5"></circle>
                <path d="M182.5,417.5 L367.5,359.5" id="Line-2" stroke="#A8BBD7" stroke-width="0.5" opacity="0.304404438" stroke-linecap="square"></path>
                <path d="M182.5,417.5 L417.5,426.5" id="Line-3" stroke="#A8BBD7" stroke-width="0.5" opacity="0.304404438" stroke-linecap="square"></path>
                <path d="M418.5,426.5 L365.5,359.5" id="Line-4" stroke="#A8BBD7" stroke-width="0.5" opacity="0.304404438" stroke-linecap="square"></path>
                <path d="M417.5,427.5 L127.5,922.5" id="Line-5" stroke="#A8BBD7" stroke-width="0.5" opacity="0.304404438" stroke-linecap="square"></path>
                <path d="M127.5,922.5 L364.5,361.5" id="Line-6" stroke="#A8BBD7" stroke-width="0.5" opacity="0.304404438" stroke-linecap="square"></path>
                <path d="M364.5,360.5 L718.5,327.5" id="Line-7" stroke="#A8BBD7" stroke-width="0.5" opacity="0.304404438" stroke-linecap="square"></path>
                <path d="M718.5,327.5 L417.5,425.5" id="Line-8" stroke="#A8BBD7" stroke-width="0.5" opacity="0.304404438" stroke-linecap="square"></path>
                <path d="M718.5,327.5 L958.5,231.5" id="Line-9" stroke="#A8BBD7" stroke-width="0.5" opacity="0.304404438" stroke-linecap="square"></path>
                <path d="M958.5,231.5 L932.5,322.5" id="Line-10" stroke="#A8BBD7" stroke-width="0.5" opacity="0.304404438" stroke-linecap="square"></path>
                <path d="M932.5,322.5 L898.5,532.5" id="Line-11" stroke="#A8BBD7" stroke-width="0.5" opacity="0.304404438" stroke-linecap="square"></path>
                <path d="M898.5,532.5 L719.5,330.5" id="Line-12" stroke="#A8BBD7" stroke-width="0.5" opacity="0.304404438" stroke-linecap="square"></path>
                <path d="M719.5,330.5 L933.5,323.5" id="Line-13" stroke="#A8BBD7" stroke-width="0.5" opacity="0.304404438" stroke-linecap="square"></path>
                <path d="M897.5,531.5 L417.5,426.5" id="Line-14" stroke="#A8BBD7" stroke-width="0.5" opacity="0.304404438" stroke-linecap="square"></path>
                <path d="M934.5,322.5 L1148.5,269.5" id="Line-15" stroke="#A8BBD7" stroke-width="0.5" opacity="0.304404438" stroke-linecap="square"></path>
                <path d="M957.5,232.5 L1148.5,268.5" id="Line-16" stroke="#A8BBD7" stroke-width="0.5" opacity="0.304404438" stroke-linecap="square"></path>
                <path d="M1148.5,268.5 L1249.5,323.5" id="Line-17" stroke="#A8BBD7" stroke-width="0.5" opacity="0.304404438" stroke-linecap="square"></path>
                <path d="M1249.5,322.25 L934.5,322.25" id="Line-18" stroke="#A8BBD7" stroke-width="0.5" opacity="0.304404438" stroke-linecap="square"></path>
                <path d="M1249.5,321.5 L1390.5,358.5" id="Line-19" stroke="#A8BBD7" stroke-width="0.5" opacity="0.304404438" stroke-linecap="square"></path>
                <path d="M1390.5,358.5 L1558.5,279.5" id="Line-20" stroke="#A8BBD7" stroke-width="0.5" opacity="0.304404438" stroke-linecap="square"></path>
                <path d="M1558.5,279.5 L1249.5,321.5" id="Line-21" stroke="#A8BBD7" stroke-width="0.5" opacity="0.304404438" stroke-linecap="square"></path>
                <path d="M1559.5,281.5 L1607.5,339.5" id="Line-22" stroke="#A8BBD7" stroke-width="0.5" opacity="0.304404438" stroke-linecap="square"></path>
                <path d="M1608.5,339.5 L1616.5,272.5" id="Line-23" stroke="#A8BBD7" stroke-width="0.5" opacity="0.304404438" stroke-linecap="square"></path>
                <path d="M1616.5,272.5 L1558.5,279.5" id="Line-24" stroke="#A8BBD7" stroke-width="0.5" opacity="0.304404438" stroke-linecap="square"></path>
                <path d="M1393.5,362.5 L1514.5,408.5" id="Line-25" stroke="#A8BBD7" stroke-width="0.5" opacity="0.304404438" stroke-linecap="square"></path>
                <path d="M1514.5,408.5 L1556.5,280.5" id="Line-26" stroke="#A8BBD7" stroke-width="0.5" opacity="0.304404438" stroke-linecap="square"></path>
                <path d="M1514.5,409.5 L1605.5,339.5" id="Line-27" stroke="#A8BBD7" stroke-width="0.5" opacity="0.304404438" stroke-linecap="square"></path>
                <path d="M1605.5,339.5 L1390.5,358.5" id="Line-28" stroke="#A8BBD7" stroke-width="0.5" opacity="0.304404438" stroke-linecap="square"></path>
                <path d="M1616.5,271.5 L1149.5,268.5" id="Line-29" stroke="#A8BBD7" stroke-width="0.5" opacity="0.304404438" stroke-linecap="square"></path>
                <circle id="Oval-6-Copy-10" fill="#CEDCEF" cx="366" cy="360" r="5"></circle>
                <circle id="Oval-6-Copy-11" fill="#CEDCEF" cx="720" cy="328" r="5"></circle>
                <circle id="Oval-6-Copy-12" fill="#CEDCEF" cx="958" cy="232" r="5"></circle>
                <circle id="Oval-6-Copy-13" fill="#CEDCEF" cx="1557" cy="280" r="5"></circle>
                <circle id="Oval-6-Copy-14" fill="#CEDCEF" cx="1606" cy="338" r="5"></circle>
                <circle id="Oval-6-Copy-15" fill="#CEDCEF" cx="1616" cy="273" r="5"></circle>
                <circle id="Oval-6-Copy-16" fill="#CEDCEF" cx="1734" cy="505" r="5"></circle>
                <circle id="Oval-6-Copy-17" fill="#CEDCEF" cx="1858" cy="343" r="5"></circle>
                <circle id="Oval-6-Copy-18" fill="#CEDCEF" cx="1868" cy="652" r="5"></circle>
                <path d="M1867.5,652.5 L1904.5,474.5" id="Line-49" stroke="#A8BBD7" stroke-width="0.5" opacity="0.304404438" stroke-linecap="square"></path>
                <circle id="Oval-6-Copy-19" fill="#CEDCEF" cx="1905" cy="475" r="5"></circle>
                <circle id="Oval-6-Copy-20" fill="#CEDCEF" cx="1848" cy="398" r="5"></circle>
                <circle id="Oval-6-Copy-21" fill="#CEDCEF" cx="1962" cy="290" r="5"></circle>
                <circle id="Oval-6-Copy-22" fill="#CEDCEF" cx="1868" cy="200" r="5"></circle>
                <circle id="Oval-6-Copy-23" fill="#CEDCEF" cx="1729" cy="210" r="5"></circle>
                <path d="M1555.5,279.5 L1148.5,268.5" id="Line-30" stroke="#A8BBD7" stroke-width="0.5" opacity="0.304404438" stroke-linecap="square"></path>
                <path d="M1616.5,271.5 L1729.5,210.5" id="Line-31" stroke="#A8BBD7" stroke-width="0.5" opacity="0.304404438" stroke-linecap="square"></path>
                <path d="M1729.5,210.5 L1867.5,199.5" id="Line-32" stroke="#A8BBD7" stroke-width="0.5" opacity="0.304404438" stroke-linecap="square"></path>
                <path d="M1867.5,199.5 L1615.5,273.5" id="Line-33" stroke="#A8BBD7" stroke-width="0.5" opacity="0.304404438" stroke-linecap="square"></path>
                <path d="M1615.5,273.5 L1734.5,503.5" id="Line-34" stroke="#A8BBD7" stroke-width="0.5" opacity="0.304404438" stroke-linecap="square"></path>
                <path d="M1733.5,504.5 L1607.5,338.5" id="Line-35" stroke="#A8BBD7" stroke-width="0.5" opacity="0.304404438" stroke-linecap="square"></path>
                <path d="M1607.5,338.5 L1846.5,398.5" id="Line-36" stroke="#A8BBD7" stroke-width="0.5" opacity="0.304404438" stroke-linecap="square"></path>
                <path d="M1846.5,398.5 L1857.5,342.5" id="Line-37" stroke="#A8BBD7" stroke-width="0.5" opacity="0.304404438" stroke-linecap="square"></path>
                <path d="M1857.5,342.5 L1605.5,335.5" id="Line-38" stroke="#A8BBD7" stroke-width="0.5" opacity="0.304404438" stroke-linecap="square"></path>
                <path d="M1857.5,343.5 L1734.5,502.5" id="Line-39" stroke="#A8BBD7" stroke-width="0.5" opacity="0.304404438" stroke-linecap="square"></path>
                <path d="M1734.5,502.5 L1846.5,398.5" id="Line-40" stroke="#A8BBD7" stroke-width="0.5" opacity="0.304404438" stroke-linecap="square"></path>
                <path d="M1865.5,198.5 L1963.5,289.5" id="Line-41" stroke="#A8BBD7" stroke-width="0.5" opacity="0.304404438" stroke-linecap="square"></path>
                <path d="M1963.5,289.5 L1856.5,342.5" id="Line-42" stroke="#A8BBD7" stroke-width="0.5" opacity="0.304404438" stroke-linecap="square"></path>
                <path d="M1857.5,341.5 L1867.5,200.5" id="Line-43" stroke="#A8BBD7" stroke-width="0.5" opacity="0.304404438" stroke-linecap="square"></path>
                <path d="M1961.5,288.5 L1904.5,475.5" id="Line-44" stroke="#A8BBD7" stroke-width="0.5" opacity="0.304404438" stroke-linecap="square"></path>
                <path d="M1904.5,475.5 L1857.5,342.5" id="Line-45" stroke="#A8BBD7" stroke-width="0.5" opacity="0.304404438" stroke-linecap="square"></path>
                <path d="M1845.5,397.5 L1904.5,474.5" id="Line-46" stroke="#A8BBD7" stroke-width="0.5" opacity="0.304404438" stroke-linecap="square"></path>
                <path d="M1905.5,475.5 L1733.5,504.5" id="Line-47" stroke="#A8BBD7" stroke-width="0.5" opacity="0.304404438" stroke-linecap="square"></path>
                <path d="M1733.5,504.5 L1866.5,652.5" id="Line-48" stroke="#A8BBD7" stroke-width="0.5" opacity="0.304404438" stroke-linecap="square"></path>
                <path d="M1846.5,396.5 L1868.5,650.5" id="Line-50" stroke="#A8BBD7" stroke-width="0.5" opacity="0.304404438" stroke-linecap="square"></path>
                <path d="M1148.5,266.5 L1286.5,642.5" id="Line-54" stroke="#A8BBD7" stroke-width="0.5" opacity="0.304404438" stroke-linecap="square"></path>
                <path d="M898.5,532.5 L1249.5,323.5" id="Line-55" stroke="#A8BBD7" stroke-width="0.5" opacity="0.304404438" stroke-linecap="square"></path>
                <path d="M1390.5,358.5 L1287.5,638.5" id="Line-56" stroke="#A8BBD7" stroke-width="0.5" opacity="0.304404438" stroke-linecap="square"></path>
                <path d="M1287.5,638.5 L1516.5,405.5" id="Line-57" stroke="#A8BBD7" stroke-width="0.5" opacity="0.304404438" stroke-linecap="square"></path>
                <path d="M1287.5,643.5 L1732.5,502.5" id="Line-58" stroke="#A8BBD7" stroke-width="0.5" opacity="0.304404438" stroke-linecap="square"></path>
                <path d="M181.5,418.5 L0.5,387.5" id="Line-51" stroke="#A8BBD7" stroke-width="0.5" opacity="0.304404438" stroke-linecap="square"></path>
                <path d="M364.5,356.5 L29.5,391.5" id="Line-59" stroke="#A8BBD7" stroke-width="0.5" opacity="0.304404438" stroke-linecap="square"></path>
                <path d="M363.5,358.5 L344.5,140.5" id="Line-60" stroke="#A8BBD7" stroke-width="0.5" opacity="0.304404438" stroke-linecap="square"></path>
                <path d="M718.5,325.5 L829.5,180.5" id="Line-61" stroke="#A8BBD7" stroke-width="0.5" opacity="0.304404438" stroke-linecap="square"></path>
                <path d="M829.5,180.5 L957.5,229.5" id="Line-62" stroke="#A8BBD7" stroke-width="0.5" opacity="0.304404438" stroke-linecap="square"></path>
                <path d="M957.5,229.5 L1081.5,105.5" id="Line-63" stroke="#A8BBD7" stroke-width="0.5" opacity="0.304404438" stroke-linecap="square"></path>
                <path d="M1149.5,265.5 L1239.5,31.5" id="Line-64" stroke="#A8BBD7" stroke-width="0.5" opacity="0.304404438" stroke-linecap="square"></path>
                <path d="M1726.5,204.5 L1314.5,133.5" id="Line-65" stroke="#A8BBD7" stroke-width="0.5" opacity="0.304404438" stroke-linecap="square"></path>
                <path d="M718.5,327.5 L562.5,91.5" id="Line-66" stroke="#A8BBD7" stroke-width="0.5" opacity="0.304404438" stroke-linecap="square"></path>
                <path d="M830.5,180.5 L491.5,137.5" id="Line-67" stroke="#A8BBD7" stroke-width="0.5" opacity="0.304404438" stroke-linecap="square"></path>
                <path d="M177.5,419.5 L291.5,0.5" id="Line-68" stroke="#A8BBD7" stroke-width="0.5" opacity="0.304404438" stroke-linecap="square"></path>
            </g>
        </g>
    </g>
</svg>