<?xml version="1.0" encoding="UTF-8"?>
<svg width="546px" height="426px" viewBox="0 0 546 426" version="1.1" xmlns="http://www.w3.org/2000/svg" xmlns:xlink="http://www.w3.org/1999/xlink">
    <!-- Generator: Sketch 50.2 (55047) - http://www.bohemiancoding.com/sketch -->
    <title>CredibilityOfData@1440</title>
    <desc>Created with Sketch.</desc>
    <defs>
        <polygon id="path-1" points="57.1657873 95.7522179 62.0916586 90.0856512 329.173641 183.035388 451.538605 406.075964 446.701873 411.639988 148.064944 352.048904"></polygon>
        <filter x="-15.7%" y="-7.5%" width="122.8%" height="128.0%" filterUnits="objectBoundingBox" id="filter-2">
            <feOffset dx="-17" dy="21" in="SourceAlpha" result="shadowOffsetOuter1"></feOffset>
            <feGaussianBlur stdDeviation="11.5" in="shadowOffsetOuter1" result="shadowBlurOuter1"></feGaussianBlur>
            <feColorMatrix values="0 0 0 0 0   0 0 0 0 0.00195518749   0 0 0 0 0.267724277  0 0 0 0.120442708 0" type="matrix" in="shadowBlurOuter1"></feColorMatrix>
        </filter>
        <polygon id="path-3" points="246 112 296 140.084143 296 160 246 131.915857"></polygon>
        <filter x="-6.0%" y="-6.2%" width="112.0%" height="112.5%" filterUnits="objectBoundingBox" id="filter-4">
            <feOffset dx="0" dy="0" in="SourceAlpha" result="shadowOffsetOuter1"></feOffset>
            <feGaussianBlur stdDeviation="1" in="shadowOffsetOuter1" result="shadowBlurOuter1"></feGaussianBlur>
            <feColorMatrix values="0 0 0 0 0.116206865   0 0 0 0 0.163911222   0 0 0 0 0.59026892  0 0 0 0.497452446 0" type="matrix" in="shadowBlurOuter1"></feColorMatrix>
        </filter>
        <path d="M193.043813,154.96543 L198.043813,152.243762 C199.013967,151.715674 200.228531,152.07404 200.756618,153.044193 C200.916327,153.337595 201,153.666327 201,154.00038 L201,169.283161 C201,170.015669 200.599555,170.689572 199.956187,171.039779 L194.956187,173.761448 C193.986033,174.289535 192.771469,173.931169 192.243382,172.961016 C192.083673,172.667614 192,172.338882 192,172.00483 L192,156.722048 C192,155.98954 192.400445,155.315637 193.043813,154.96543 Z" id="path-5"></path>
        <filter x="-266.7%" y="-109.1%" width="633.3%" height="318.1%" filterUnits="objectBoundingBox" id="filter-6">
            <feMorphology radius="4" operator="dilate" in="SourceAlpha" result="shadowSpreadOuter1"></feMorphology>
            <feOffset dx="0" dy="0" in="shadowSpreadOuter1" result="shadowOffsetOuter1"></feOffset>
            <feGaussianBlur stdDeviation="4" in="shadowOffsetOuter1" result="shadowBlurOuter1"></feGaussianBlur>
            <feColorMatrix values="0 0 0 0 0.712594697   0 0 0 0 1   0 0 0 0 0.785471076  0 0 0 1 0" type="matrix" in="shadowBlurOuter1"></feColorMatrix>
        </filter>
        <path d="M44.1397059,36.8589744 L62.8602941,26.1410256" id="path-7"></path>
        <filter x="-48.7%" y="-84.1%" width="197.4%" height="268.2%" filterUnits="objectBoundingBox" id="filter-8">
            <feMorphology radius="1.25" operator="dilate" in="SourceAlpha" result="shadowSpreadOuter1"></feMorphology>
            <feOffset dx="0" dy="0" in="shadowSpreadOuter1" result="shadowOffsetOuter1"></feOffset>
            <feMorphology radius="2" operator="erode" in="SourceAlpha" result="shadowInner"></feMorphology>
            <feOffset dx="0" dy="0" in="shadowInner" result="shadowInner"></feOffset>
            <feComposite in="shadowOffsetOuter1" in2="shadowInner" operator="out" result="shadowOffsetOuter1"></feComposite>
            <feGaussianBlur stdDeviation="2" in="shadowOffsetOuter1" result="shadowBlurOuter1"></feGaussianBlur>
            <feColorMatrix values="0 0 0 0 1   0 0 0 0 1   0 0 0 0 1  0 0 0 0.5 0" type="matrix" in="shadowBlurOuter1"></feColorMatrix>
        </filter>
    </defs>
    <g id="Page-1" stroke="none" stroke-width="1" fill="none" fill-rule="evenodd">
        <g id="Artboard-2-Copy-2" transform="translate(-263.000000, -2884.000000)">
            <g id="CredibilityOfData" transform="translate(282.000000, 2865.000000)">
                <g id="Group-4-Copy-11" transform="translate(254.500000, 251.000000) scale(-1, 1) translate(-254.500000, -251.000000) ">
                    <g id="Rectangle-2-Copy-12" transform="translate(254.352196, 250.862819) rotate(-41.000000) translate(-254.352196, -250.862819) ">
                        <use fill="black" fill-opacity="1" filter="url(#filter-2)" xlink:href="#path-1"></use>
                        <use fill="#AFB8D7" fill-rule="evenodd" xlink:href="#path-1"></use>
                    </g>
                    <polygon id="Rectangle-2-Copy-13" fill="#EDF0FD" transform="translate(254.394425, 247.079834) rotate(-41.000000) translate(-254.394425, -247.079834) " points="59.6677044 89.038057 359.216316 149.955239 449.121146 405.121611 150.536759 344.995459"></polygon>
                </g>
                <g id="Group-Copy-2" transform="translate(262.000000, 126.000000) scale(-1, 1) translate(-262.000000, -126.000000) translate(194.000000, 19.000000)">
                    <path d="M16.8354825,54.041902 C22.6451758,50.6782683 28.0333483,47.621471 33,44.8715102 C37.7985274,43.4171181 90.0138334,12.5633263 92.1474334,11.519465 L108.616806,2.2642599 C114.785197,-0.614682607 119.079319,1.31157568 121.230164,2.2642599 L131.040365,7.889782 C131.040365,90.2937126 126,134.491781 126,135.84995 C126,139.486168 123.012899,141.797487 118.886161,144.128548 C70.4155412,177.618998 34.7777136,200.80987 11.9726788,213.701164 L3.45182776,208.428766 C0.58075701,206.491507 1.00000001,201.586891 1.00000001,193.675053 C1.00000001,168.345446 1.00000001,130.351036 1.00000001,79.6918215 C1.00000001,70.0977858 8.12094259,59.0873526 16.8354825,54.041902 Z" id="Path-5-Copy-2" fill="#FCFFFD"></path>
                    <path d="M25.8354825,60.041902 C31.6451758,56.6782683 37.0333483,53.621471 42,50.8715102 C46.7985274,49.4171181 96.6124543,19.7381982 101.147433,17.519465 L117.616806,8.2642599 C126.631664,2.70133805 135,8.2642599 135,15.490795 C135,97.8947256 135,140.491781 135,141.84995 C135,145.486168 132.012899,147.797487 127.886161,150.128548 C82.2665937,175.916505 48.0542925,195.256131 25.2492576,208.147425 C9.98973459,216.77337 10,217.072895 10,199.675053 C10,174.345446 10,136.351036 10,85.6918215 C10,76.0977858 17.1209426,65.0873526 25.8354825,60.041902 Z" id="Path-5" fill="#DEDDED"></path>
                </g>
                <polygon id="Rectangle-23-Copy" fill="#ADA7CB" transform="translate(324.500000, 191.500000) scale(-1, 1) translate(-324.500000, -191.500000) " points="320 172 329 177.015682 329 211 320 205.984318"></polygon>
                <path d="M195.850267,80.2868388 C201.665385,76.9197428 207.058588,73.859799 212.029877,71.1070076 C215.231882,70.1364148 235.844628,58.5339788 273.868114,36.2996994 L287.717282,28.4559002 C293.775308,25.1329029 298.631183,25.3287218 303.480143,28.1604361 L319,36.9758452 C319,119.464597 305.116706,160.819527 305.116706,162.179095 C305.116706,165.819056 302.126815,168.132754 297.996225,170.466214 C255.39772,205.917508 222.685304,230.095437 199.858977,243 C189.063858,236.89847 183.043818,233.455253 181.798859,232.670349 C180.005069,231.539426 180,228.596427 180,220.063719 C180,194.70804 180,156.67452 180,105.963161 C180,96.3592495 187.127591,85.3374828 195.850267,80.2868388 Z" id="Path-5-Copy-6" fill="#D7D4E4" transform="translate(249.500000, 134.500000) scale(-1, 1) translate(-249.500000, -134.500000) "></path>
                <polygon id="Rectangle-25" fill="#A6A2BB" transform="translate(304.000000, 165.000000) scale(-1, 1) translate(-304.000000, -165.000000) " points="302 129.202552 306 127 306 200.797448 302 203"></polygon>
                <g id="Group-2-Copy" transform="translate(337.000000, 235.000000) scale(-1, 1) translate(-337.000000, -235.000000) translate(283.000000, 196.000000)">
                    <path d="M13.0949722,45.7074575 L92.9050278,1.11945732 C97.1488651,-1.25147471 102.511195,0.266814976 104.882127,4.51065226 C105.615153,5.82272887 106,7.30064983 106,8.80360447 L106,8.80360447 C106,18.0652007 100.990384,26.602359 92.9050278,31.1194573 L13.0949722,75.7074575 C8.85113492,78.0783896 3.48880489,76.5600999 1.11787285,72.3162626 C0.384846521,71.004186 1.84058858e-16,69.526265 0,68.0233104 L0,68.0233104 C-1.13421842e-15,58.7617141 5.00961582,50.2245559 13.0949722,45.7074575 Z" id="Rectangle-2-Copy-2" fill="#E7E0E7"></path>
                    <path d="M15.0949722,46.7074575 L94.9050278,2.11945732 C99.1488651,-0.251474712 104.511195,1.26681498 106.882127,5.51065226 C107.615153,6.82272887 108,8.30064983 108,9.80360447 L108,9.80360447 C108,19.0652007 102.990384,27.602359 94.9050278,32.1194573 L15.0949722,76.7074575 C10.8511349,79.0783896 5.48880489,77.5600999 3.11787285,73.3162626 C2.38484652,72.004186 2,70.526265 2,69.0233104 L2,69.0233104 C2,59.7617141 7.00961582,51.2245559 15.0949722,46.7074575 Z" id="Rectangle-2" fill="#C5C0CE"></path>
                    <path d="M15.525425,51.3522928 L98.474575,4.70546643 C101.5517,2.97503146 105.448997,4.06673933 107.179432,7.14386422 C107.717406,8.10050928 108,9.17955783 108,10.2770939 L108,10.2770939 C108,17.0276266 104.35854,23.2531782 98.474575,26.5620523 L15.525425,73.2088787 C12.4483001,74.9393137 8.55100282,73.8476058 6.82056784,70.7704809 C6.2825942,69.8138358 6,68.7347873 6,67.6372512 L6,67.6372512 C6,60.8867185 9.64146,54.6611669 15.525425,51.3522928 Z" id="Rectangle-2-Copy" fill="#7E6E92"></path>
                </g>
                <polygon id="Rectangle-4" fill="#000000" opacity="0.401098279" transform="translate(304.500000, 274.000000) scale(-1, 1) translate(-304.500000, -274.000000) " points="218 282.620373 320.872173 225 391 265.273198 289.155811 323"></polygon>
                <g id="Group-5" transform="translate(316.500000, 306.500000) scale(-1, 1) translate(-316.500000, -306.500000) translate(310.000000, 296.000000)">
                    <path d="M6.5,21 C10.0898509,21 13,19.209139 13,17 C13,16.3069223 13,14.973589 13,13 C11.8114606,12.1998187 8.400474,13 6.5,13 C4.04162208,13 1.10453665,11.761096 2.51521026e-13,13 C1.59631567e-13,15.2024726 1.13686838e-13,16.535806 1.13686838e-13,17 C1.13686838e-13,19.209139 2.91014913,21 6.5,21 Z" id="Oval-11" fill="#3E2658"></path>
                    <ellipse id="Oval-11-Copy" fill="#5F4F74" cx="6.5" cy="13" rx="6.5" ry="4"></ellipse>
                    <path d="M6.5,15.4814891 C8.98528137,15.4814891 11,14.6568542 11,13 C11,11.8954305 11,7.7772415 11,0.64543299 C9.73006976,0.64543299 2.81818393,0.0813844626 2,0.64543299 C2,8.34165494 2,12.4598439 2,13 C2,14.6568542 4.01471863,15.4814891 6.5,15.4814891 Z" id="Oval-11-Copy-2" fill="#A296AC"></path>
                </g>
                <g id="Group-5-Copy" transform="translate(372.500000, 274.500000) scale(-1, 1) translate(-372.500000, -274.500000) translate(366.000000, 264.000000)">
                    <path d="M6.5,21 C10.0898509,21 13,19.209139 13,17 C13,16.3069223 13,14.973589 13,13 C11.8114606,12.1998187 8.400474,13 6.5,13 C4.04162208,13 1.10453665,11.761096 2.51521026e-13,13 C1.59631567e-13,15.2024726 1.13686838e-13,16.535806 1.13686838e-13,17 C1.13686838e-13,19.209139 2.91014913,21 6.5,21 Z" id="Oval-11" fill="#3E2658"></path>
                    <ellipse id="Oval-11-Copy" fill="#5F4F74" cx="6.5" cy="13" rx="6.5" ry="4"></ellipse>
                    <path d="M6.5,15.4814891 C8.98528137,15.4814891 11,14.6568542 11,13 C11,11.8954305 11,7.7772415 11,0.64543299 C9.73006976,0.64543299 2.81818393,0.0813844626 2,0.64543299 C2,8.34165494 2,12.4598439 2,13 C2,14.6568542 4.01471863,15.4814891 6.5,15.4814891 Z" id="Oval-11-Copy-2" fill="#A296AC"></path>
                </g>
                <path d="M191.835482,89.0638583 C197.645176,85.698858 203.033348,82.6408188 208,79.8897407 C212.798527,78.4347577 216.402895,57.2465445 222.183229,53.769543 C225.527697,51.7577695 234.912637,46.2563151 250.33805,37.2651798 C258.011892,34.3325706 262.612454,48.7437798 267.147433,46.5241452 L283.616806,37.2651798 C292.631664,31.6999979 301,37.2651798 301,44.4946509 C301,126.932061 301,169.546422 301,170.905143 C301,174.542839 298.012899,176.855097 293.886161,179.187105 C248.266594,204.985539 214.054292,224.333022 191.249258,237.229554 C175.989735,245.859004 176,246.158651 176,228.75374 C176,203.413842 176,165.403995 176,114.724199 C176,105.126265 183.120943,94.1113588 191.835482,89.0638583 Z" id="Path-5-Copy-5" fill="#C1C1C1" transform="translate(238.500000, 139.000000) scale(-1, 1) translate(-238.500000, -139.000000) "></path>
                <path d="M281.923254,250.252947 L374.856422,198.129695 C379.107873,195.745191 384.487377,197.258651 386.871881,201.510102 C387.611544,202.828885 388,204.315579 388,205.827628 L388,209.361464 C388,217.580115 386.986821,225.767422 384.983387,233.738148 C374.900144,273.854638 362.08101,298.275043 346.525984,306.999361 L285.171533,272.601888 C283.497971,271.507408 280.913666,269.077276 281.002217,264.858708 C281.061251,262.046329 281.368263,257.177742 281.923254,250.252947 Z" id="Rectangle-2" fill="#655079" transform="translate(334.500000, 251.999680) scale(-1, 1) translate(-334.500000, -251.999680) "></path>
                <polygon id="Rectangle-22" fill="#655079" transform="translate(306.500000, 240.000000) scale(-1, 1) translate(-306.500000, -240.000000) " points="318.860968 199 379 233.426299 294.425208 281 234 246.734675"></polygon>
                <g id="Group-2" transform="translate(274.000000, 271.000000) scale(-1, 1) translate(-274.000000, -271.000000) translate(220.000000, 232.000000)">
                    <path d="M13.0949722,45.7074575 L92.9050278,1.11945732 C97.1488651,-1.25147471 102.511195,0.266814976 104.882127,4.51065226 C105.615153,5.82272887 106,7.30064983 106,8.80360447 L106,8.80360447 C106,18.0652007 100.990384,26.602359 92.9050278,31.1194573 L13.0949722,75.7074575 C8.85113492,78.0783896 3.48880489,76.5600999 1.11787285,72.3162626 C0.384846521,71.004186 1.84058858e-16,69.526265 0,68.0233104 L0,68.0233104 C-1.13421842e-15,58.7617141 5.00961582,50.2245559 13.0949722,45.7074575 Z" id="Rectangle-2-Copy-2" fill="#E7E0E7"></path>
                    <path d="M15.0949722,46.7074575 L94.9050278,2.11945732 C99.1488651,-0.251474712 104.511195,1.26681498 106.882127,5.51065226 C107.615153,6.82272887 108,8.30064983 108,9.80360447 L108,9.80360447 C108,19.0652007 102.990384,27.602359 94.9050278,32.1194573 L15.0949722,76.7074575 C10.8511349,79.0783896 5.48880489,77.5600999 3.11787285,73.3162626 C2.38484652,72.004186 2,70.526265 2,69.0233104 L2,69.0233104 C2,59.7617141 7.00961582,51.2245559 15.0949722,46.7074575 Z" id="Rectangle-2" fill="#C5C0CE"></path>
                    <path d="M15.525425,51.3522928 L98.474575,4.70546643 C101.5517,2.97503146 105.448997,4.06673933 107.179432,7.14386422 C107.717406,8.10050928 108,9.17955783 108,10.2770939 L108,10.2770939 C108,17.0276266 104.35854,23.2531782 98.474575,26.5620523 L15.525425,73.2088787 C12.4483001,74.9393137 8.55100282,73.8476058 6.82056784,70.7704809 C6.2825942,69.8138358 6,68.7347873 6,67.6372512 L6,67.6372512 C6,60.8867185 9.64146,54.6611669 15.525425,51.3522928 Z" id="Rectangle-2-Copy" fill="#7E6E92"></path>
                </g>
                <path d="M117.850267,124.286839 C123.665385,120.919743 129.058588,117.859799 134.029877,115.107008 C138.832884,113.651118 142.440617,92.4497092 148.226347,88.9705422 C151.573938,86.9575158 160.967641,81.4526351 176.407455,72.4559002 C177.660186,71.7794291 180.807884,71.7810473 182.522932,72.8190801 L195.868114,80.2996994 L209.717282,72.4559002 C215.775308,69.1329029 220.631183,69.3287218 225.480143,72.1604361 L241,80.9758452 C241,163.464597 227.116706,204.819527 227.116706,206.179095 C227.116706,209.819056 224.126815,212.132754 219.996225,214.466214 C177.39772,249.917508 144.685304,274.095437 121.858977,287 C111.063858,280.89847 105.043818,277.455253 103.798859,276.670349 C102.005069,275.539426 102,272.596427 102,264.063719 C102,238.70804 102,200.67452 102,149.963161 C102,140.35925 109.127591,129.337483 117.850267,124.286839 Z" id="Path-5-Copy-7" fill="#D7D5E4" transform="translate(171.500000, 178.500000) scale(-1, 1) translate(-171.500000, -178.500000) "></path>
                <g id="Group" transform="translate(155.500000, 186.500000) scale(-1, 1) translate(-155.500000, -186.500000) translate(88.000000, 79.000000)">
                    <path d="M15.9487057,53.8078934 C21.799938,50.4119664 27.2266358,47.3258217 32.2287989,44.5494592 L91.7991344,10.8772104 L108.386263,1.53314861 C114.598757,-1.37343383 118.923582,0.571317927 121.089806,1.53314861 L130.970149,7.21267978 C130.970149,90.4077475 125.893746,135.030149 125.893746,136.401358 C125.893746,140.072486 122.885287,142.405995 118.729043,144.759436 C69.9118599,178.571419 34.0192231,201.98494 11.051133,215 L2.85471229,210.284676 C1.2878215,209.268206 -9.34382067e-09,207.666679 2.13162821e-13,200.082565 C3.15072177e-08,174.509807 3.46219863e-08,134.383642 9.34451894e-09,79.7040707 C9.34391007e-09,70.0179253 7.17185709,58.901784 15.9487057,53.8078934 Z" id="Path-5-Copy-2" fill="#FCFFFD"></path>
                    <path d="M25.0208219,59.6184485 C30.8738711,56.221852 36.3022539,53.1350988 41.3059702,50.358189 L100.894802,16.6793015 L117.487081,7.33339748 C126.569213,1.71596028 135,7.33339748 135,14.630751 C135,97.842221 135,140.856717 135,142.228196 C135,145.900049 131.990607,148.234018 127.833073,150.587923 C81.8730608,176.628596 47.4054439,196.157745 24.4302222,209.175371 C9.05682216,217.885849 9.06716419,218.188309 9.06716419,200.619972 C9.06716419,175.042141 9.06716419,136.675394 9.06716419,85.5197313 C9.06716419,75.8316763 16.2412481,64.7133433 25.0208219,59.6184485 Z" id="Path-5" fill="#DEDDED"></path>
                </g>
                <polygon id="Rectangle-3" fill="#918AB4" transform="translate(151.000000, 218.500000) scale(-1, 1) translate(-151.000000, -218.500000) " points="88 237.113552 214 166 214 199.886448 88 271"></polygon>
                <path d="M201.063292,89.982637 L216.75478,81.1200926 C220.102347,79.1922721 224.960101,78.9843277 227,80.0683643 L133.735768,27.058361 C131.532994,25.814874 125.535235,25.4889316 122.442094,27.058361 C113.987829,31.8387523 108.233316,35.1039611 105.178557,36.8539874 C102.546026,38.3621252 129.022795,53.0327999 184.608863,80.8660115 C185.970119,80.0952482 200.187045,90.4806201 201.063292,89.982637 Z" id="Path-16-Copy-2" fill="#92A6ED" transform="translate(166.000000, 58.000000) scale(-1, 1) translate(-166.000000, -58.000000) "></path>
                <g id="Group-4" transform="translate(271.000000, 172.500000) scale(-1, 1) translate(-271.000000, -172.500000) translate(239.000000, 107.000000)">
                    <g id="Group-3" transform="translate(56.000000, 32.000000)">
                        <polygon id="Rectangle-21-Copy" fill="#4F3A65" points="1.2136039 0.463471491 7.02882303 3.66150957 7.02882303 97.6273683 5.99560517 98.3842717 0.0269720848 1.02561979"></polygon>
                        <polygon id="Rectangle-21" fill="#5E4972" points="0 1 6 4.38507657 6 98.3850766 0 95"></polygon>
                    </g>
                    <g id="Group-3-Copy-4" transform="translate(28.000000, 16.000000)">
                        <polygon id="Rectangle-21-Copy" fill="#4F3A65" points="1.2136039 0.463471491 7.02882303 3.66150957 7.02882303 97.6273683 5.99560517 98.3842717 0.0269720848 1.02561979"></polygon>
                        <polygon id="Rectangle-21" fill="#5E4972" points="0 1 6 4.38507657 6 98.3850766 0 95"></polygon>
                    </g>
                    <g id="Group-3-Copy-2" transform="translate(42.000000, 24.000000)">
                        <polygon id="Rectangle-21-Copy" fill="#4F3A65" points="1.2136039 0.463471491 7.02882303 3.66150957 7.02882303 97.6273683 5.99560517 98.3842717 0.0269720848 1.02561979"></polygon>
                        <polygon id="Rectangle-21" fill="#5E4972" points="0 1 6 4.38507657 6 98.3850766 0 95"></polygon>
                    </g>
                    <g id="Group-3-Copy-5" transform="translate(14.000000, 8.000000)">
                        <polygon id="Rectangle-21-Copy" fill="#4F3A65" points="1.2136039 0.463471491 7.02882303 3.66150957 7.02882303 97.6273683 5.99560517 98.3842717 0.0269720848 1.02561979"></polygon>
                        <polygon id="Rectangle-21" fill="#5E4972" points="0 1 6 4.38507657 6 98.3850766 0 95"></polygon>
                    </g>
                    <g id="Group-3-Copy" transform="translate(49.000000, 28.000000)">
                        <polygon id="Rectangle-21-Copy" fill="#4F3A65" points="1.2136039 0.463471491 7.02882303 3.66150957 7.02882303 97.6273683 5.99560517 98.3842717 0.0269720848 1.02561979"></polygon>
                        <polygon id="Rectangle-21" fill="#5E4972" points="0 1 6 4.38507657 6 98.3850766 0 95"></polygon>
                    </g>
                    <g id="Group-3-Copy-6" transform="translate(21.000000, 12.000000)">
                        <polygon id="Rectangle-21-Copy" fill="#4F3A65" points="1.2136039 0.463471491 7.02882303 3.66150957 7.02882303 97.6273683 5.99560517 98.3842717 0.0269720848 1.02561979"></polygon>
                        <polygon id="Rectangle-21" fill="#5E4972" points="0 1 6 4.38507657 6 98.3850766 0 95"></polygon>
                    </g>
                    <g id="Group-3-Copy-3" transform="translate(35.000000, 20.000000)">
                        <polygon id="Rectangle-21-Copy" fill="#4F3A65" points="1.2136039 0.463471491 7.02882303 3.66150957 7.02882303 97.6273683 5.99560517 98.3842717 0.0269720848 1.02561979"></polygon>
                        <polygon id="Rectangle-21" fill="#5E4972" points="0 1 6 4.38507657 6 98.3850766 0 95"></polygon>
                    </g>
                    <g id="Group-3-Copy-7" transform="translate(7.000000, 4.000000)">
                        <polygon id="Rectangle-21-Copy" fill="#4F3A65" points="1.2136039 0.463471491 7.02882303 3.66150957 7.02882303 97.6273683 5.99560517 98.3842717 0.0269720848 1.02561979"></polygon>
                        <polygon id="Rectangle-21" fill="#5E4972" points="0 1 6 4.38507657 6 98.3850766 0 95"></polygon>
                    </g>
                    <g id="Group-3-Copy-8">
                        <polygon id="Rectangle-21-Copy" fill="#4F3A65" points="1.2136039 0.463471491 7.02882303 3.66150957 7.02882303 97.6273683 5.99560517 98.3842717 0.0269720848 1.02561979"></polygon>
                        <polygon id="Rectangle-21" fill="#5E4972" points="0 1 6 4.38507657 6 98.3850766 0 95"></polygon>
                    </g>
                </g>
                <g id="Group-15" transform="translate(142.000000, 148.000000) scale(-1, 1) translate(-142.000000, -148.000000) translate(112.000000, 107.000000)">
                    <path d="M-7.95807864e-13,74.0925554 L-7.95807864e-13,40.8173537 C-7.95807864e-13,32.1140219 -7.95807864e-13,32.1386022 7.1462463,27.9151089 C26.7703461,16.7095429 41.4694079,8.24622037 51.2434317,2.52514137 C54.3018166,0.734961388 55.966859,-0.237335367 56.8733394,0.0497594962 L58.9794719,1.09255278 C59.1712171,2.25215804 57.9565823,4.5925046 57.9565823,7.22773617 L57.9565823,40.9453173 C57.9565823,49.5367533 57.9565823,49.5131898 51.2985842,53.2789904 L7.8783684,78.1736294 C6.07108705,79.1983054 4.02467832,81.4950095 2.95146484,82 L0.751690223,80.8435464 C-7.95807864e-13,80.1174483 -7.95807864e-13,77.9964937 -7.95807864e-13,74.0925554 Z" id="Path-14-Copy" fill="#7B8ACF"></path>
                    <path d="M2,74.9699379 L2,41.7498041 C2,33.0608756 2,33.0854153 9.15159985,28.8689115 C28.7904009,17.6818899 43.5004743,9.23257351 53.2818202,3.52096245 C60,-0.401977221 60,-0.390861351 60,8.21577482 L60,41.8775559 C60,50.4547738 60,50.4312493 53.3370141,54.1908178 L9.88427041,79.044258 C2,83.503672 2,83.4992908 2,74.9699379 Z" id="Path-14" fill="#5F65A5"></path>
                </g>
                <path d="M256.350809,236.513075 L302.536437,210.275113 C303.194154,209.901465 304.001654,209.908884 304.652396,210.294553 L304.652396,210.294553 C304.989245,210.49419 305.100478,210.9291 304.90084,211.265949 C304.837798,211.37232 304.748034,211.460354 304.640457,211.521314 L258.376148,237.737318 C257.740562,238.097477 256.960083,238.086594 256.334786,237.708853 L256.334786,237.708853 C256.007174,237.510942 255.90203,237.084922 256.09994,236.757309 C256.161281,236.655768 256.247661,236.571673 256.350809,236.513075 Z" id="Rectangle" fill="#55406C"></path>
                <path d="M280.350809,250.513075 L326.536437,224.275113 C327.194154,223.901465 328.001654,223.908884 328.652396,224.294553 L328.652396,224.294553 C328.989245,224.49419 329.100478,224.9291 328.90084,225.265949 C328.837798,225.37232 328.748034,225.460354 328.640457,225.521314 L282.376148,251.737318 C281.740562,252.097477 280.960083,252.086594 280.334786,251.708853 L280.334786,251.708853 C280.007174,251.510942 279.90203,251.084922 280.09994,250.757309 C280.161281,250.655768 280.247661,250.571673 280.350809,250.513075 Z" id="Rectangle-Copy" fill="#55406C"></path>
                <path d="M131.875909,146.872437 L158.124091,131.082792 C158.397622,130.918249 158.752752,131.006601 158.917295,131.280132 C158.971408,131.370089 159,131.473085 159,131.578064 L159,131.578064 C159,132.212328 158.667596,132.800198 158.124091,133.127145 L131.875909,148.91679 C131.602378,149.081333 131.247248,148.992981 131.082705,148.71945 C131.028592,148.629493 131,148.526497 131,148.421518 L131,148.421518 C131,147.787253 131.332404,147.199384 131.875909,146.872437 Z" id="Rectangle-5" fill="#2A2E59" opacity="0.601392663" transform="translate(145.000000, 139.999791) scale(-1, 1) translate(-145.000000, -139.999791) "></path>
                <path d="M131.875909,158.872437 L158.124091,143.082792 C158.397622,142.918249 158.752752,143.006601 158.917295,143.280132 C158.971408,143.370089 159,143.473085 159,143.578064 L159,143.578064 C159,144.212328 158.667596,144.800198 158.124091,145.127145 L131.875909,160.91679 C131.602378,161.081333 131.247248,160.992981 131.082705,160.71945 C131.028592,160.629493 131,160.526497 131,160.421518 L131,160.421518 C131,159.787253 131.332404,159.199384 131.875909,158.872437 Z" id="Rectangle-5-Copy-3" fill="#2A2E59" opacity="0.601392663" transform="translate(145.000000, 151.999791) scale(-1, 1) translate(-145.000000, -151.999791) "></path>
                <path d="M131.875909,169.872437 L158.124091,154.082792 C158.397622,153.918249 158.752752,154.006601 158.917295,154.280132 C158.971408,154.370089 159,154.473085 159,154.578064 L159,154.578064 C159,155.212328 158.667596,155.800198 158.124091,156.127145 L131.875909,171.91679 C131.602378,172.081333 131.247248,171.992981 131.082705,171.71945 C131.028592,171.629493 131,171.526497 131,171.421518 L131,171.421518 C131,170.787253 131.332404,170.199384 131.875909,169.872437 Z" id="Rectangle-5-Copy-4" fill="#2A2E59" opacity="0.601392663" transform="translate(145.000000, 162.999791) scale(-1, 1) translate(-145.000000, -162.999791) "></path>
                <path d="M304.350809,264.513075 L350.536437,238.275113 C351.194154,237.901465 352.001654,237.908884 352.652396,238.294553 L352.652396,238.294553 C352.989245,238.49419 353.100478,238.9291 352.90084,239.265949 C352.837798,239.37232 352.748034,239.460354 352.640457,239.521314 L306.376148,265.737318 C305.740562,266.097477 304.960083,266.086594 304.334786,265.708853 L304.334786,265.708853 C304.007174,265.510942 303.90203,265.084922 304.09994,264.757309 C304.161281,264.655768 304.247661,264.571673 304.350809,264.513075 Z" id="Rectangle-Copy-2" fill="#55406C"></path>
                <path d="M329.350809,279.513075 L375.536437,253.275113 C376.194154,252.901465 377.001654,252.908884 377.652396,253.294553 L377.652396,253.294553 C377.989245,253.49419 378.100478,253.9291 377.90084,254.265949 C377.837798,254.37232 377.748034,254.460354 377.640457,254.521314 L331.376148,280.737318 C330.740562,281.097477 329.960083,281.086594 329.334786,280.708853 L329.334786,280.708853 C329.007174,280.510942 328.90203,280.084922 329.09994,279.757309 C329.161281,279.655768 329.247661,279.571673 329.350809,279.513075 Z" id="Rectangle-Copy-3" fill="#55406C"></path>
                <path d="M129.961081,122.436038 L226.316927,177 L226.316927,158.749298 C226.316927,150.67483 232.289089,138.514359 242.231332,132.868302 L319,89.4389427 L223.226975,36.1815158 L145.44033,80.4826782 C138.587313,84.4615815 129.961081,94.7909761 129.961081,106.015528 L129.961081,122.436038 Z" id="Path-16" fill="#92A6ED" transform="translate(224.480540, 106.590758) scale(-1, 1) translate(-224.480540, -106.590758) "></path>
                <g id="Rectangle" transform="translate(271.000000, 136.000000) scale(-1, 1) translate(-271.000000, -136.000000) ">
                    <use fill="black" fill-opacity="1" filter="url(#filter-4)" xlink:href="#path-3"></use>
                    <use fill="#EE2563" fill-rule="evenodd" xlink:href="#path-3"></use>
                </g>
                <polygon id="Rectangle-23" fill="#ADA7CB" transform="translate(218.500000, 251.500000) scale(-1, 1) translate(-218.500000, -251.500000) " points="214 232 223 237.015682 223 271 214 265.984318"></polygon>
                <g id="Group-6" transform="translate(305.000000, 118.500000) scale(-1, 1) translate(-305.000000, -118.500000) translate(299.000000, 111.000000)">
                    <path d="M6.10047403,0.934340912 L6.10047403,0.934340912 C9.20686206,2.3907428 11.1757952,5.52787844 11.136612,8.95850778 L11.1270868,9.79246947 C11.1000779,12.1571984 9.16119124,14.0522949 6.79646231,14.0252859 C6.27585438,14.0193398 5.76069528,13.9185 5.27626846,13.7277158 C5.27626846,13.7277158 5.27626846,13.7277158 5.27626846,13.7277158 C5.27626846,13.7277158 5.27626846,13.7277158 5.27626846,13.7277158 L5.27626846,13.7277158 C2.55759108,11.3312828 1,7.8819851 1,4.25788555 L1,4.17625309 C1,2.19877939 2.60305917,0.595720212 4.58053288,0.595720212 C5.10588669,0.595720212 5.62480436,0.711327494 6.10047403,0.934340912 Z" id="Rectangle-5-Copy-2" fill="#F5A623"></path>
                    <path d="M5,1.41891487 L5,1.41891487 C8.08440856,3.11903018 10,6.36221244 10,9.88413921 L10,10.7610365 C10,12.6234367 8.49022633,14.1332103 6.62782613,14.1332103 C6.05855621,14.1332103 5.49855125,13.9890952 5,13.7142955 L5,13.7142955 C1.91559144,12.0141802 0,8.7709979 0,5.24907113 L1.77635684e-15,4.37217387 C1.77635684e-15,2.50977367 1.50977367,1 3.37217387,1 C3.94144379,1 4.50144875,1.14411515 5,1.41891487 Z" id="Rectangle-5-Copy" fill="#F8E71C"></path>
                </g>
                <g id="Group-6-Copy" transform="translate(235.000000, 158.500000) scale(-1, 1) translate(-235.000000, -158.500000) translate(229.000000, 151.000000)">
                    <path d="M6.10047403,0.934340912 L6.10047403,0.934340912 C9.20686206,2.3907428 11.1757952,5.52787844 11.136612,8.95850778 L11.1270868,9.79246947 C11.1000779,12.1571984 9.16119124,14.0522949 6.79646231,14.0252859 C6.27585438,14.0193398 5.76069528,13.9185 5.27626846,13.7277158 C5.27626846,13.7277158 5.27626846,13.7277158 5.27626846,13.7277158 C5.27626846,13.7277158 5.27626846,13.7277158 5.27626846,13.7277158 L5.27626846,13.7277158 C2.55759108,11.3312828 1,7.8819851 1,4.25788555 L1,4.17625309 C1,2.19877939 2.60305917,0.595720212 4.58053288,0.595720212 C5.10588669,0.595720212 5.62480436,0.711327494 6.10047403,0.934340912 Z" id="Rectangle-5-Copy-2" fill="#F5A623"></path>
                    <path d="M5,1.41891487 L5,1.41891487 C8.08440856,3.11903018 10,6.36221244 10,9.88413921 L10,10.7610365 C10,12.6234367 8.49022633,14.1332103 6.62782613,14.1332103 C6.05855621,14.1332103 5.49855125,13.9890952 5,13.7142955 L5,13.7142955 C1.91559144,12.0141802 0,8.7709979 0,5.24907113 L1.77635684e-15,4.37217387 C1.77635684e-15,2.50977367 1.50977367,1 3.37217387,1 C3.94144379,1 4.50144875,1.14411515 5,1.41891487 Z" id="Rectangle-5-Copy" fill="#F8E71C"></path>
                </g>
                <g id="Group-6-Copy-2" transform="translate(120.000000, 122.000000)" fill="#F8E71C">
                    <path d="M3,1.25517896 L3,1.25517896 C4.8525235,2.29184302 6,4.24888944 6,6.37174499 L6,6.98582879 C6,8.0990557 5.09755128,9.00150441 3.98432438,9.00150441 C3.63966733,9.00150441 3.30076718,8.91312904 3,8.74482104 L3,8.74482104 C1.1474765,7.70815698 3.55271368e-15,5.75111056 3.55271368e-15,3.62825501 L2.66453526e-15,3.01417121 C2.66453526e-15,1.9009443 0.902448716,0.998495588 2.01567562,0.998495588 C2.36033267,0.998495588 2.69923282,1.08687096 3,1.25517896 Z" id="Rectangle-5-Copy"></path>
                </g>
                <g id="Group-6-Copy-3" transform="translate(120.000000, 133.000000)" fill="#F8E71C">
                    <path d="M3,1.25517896 L3,1.25517896 C4.8525235,2.29184302 6,4.24888944 6,6.37174499 L6,6.98582879 C6,8.0990557 5.09755128,9.00150441 3.98432438,9.00150441 C3.63966733,9.00150441 3.30076718,8.91312904 3,8.74482104 L3,8.74482104 C1.1474765,7.70815698 3.55271368e-15,5.75111056 3.55271368e-15,3.62825501 L2.66453526e-15,3.01417121 C2.66453526e-15,1.9009443 0.902448716,0.998495588 2.01567562,0.998495588 C2.36033267,0.998495588 2.69923282,1.08687096 3,1.25517896 Z" id="Rectangle-5-Copy"></path>
                </g>
                <g id="Group-6-Copy-4" transform="translate(120.000000, 144.000000)" fill="#F8E71C">
                    <path d="M3,1.25517896 L3,1.25517896 C4.8525235,2.29184302 6,4.24888944 6,6.37174499 L6,6.98582879 C6,8.0990557 5.09755128,9.00150441 3.98432438,9.00150441 C3.63966733,9.00150441 3.30076718,8.91312904 3,8.74482104 L3,8.74482104 C1.1474765,7.70815698 3.55271368e-15,5.75111056 3.55271368e-15,3.62825501 L2.66453526e-15,3.01417121 C2.66453526e-15,1.9009443 0.902448716,0.998495588 2.01567562,0.998495588 C2.36033267,0.998495588 2.69923282,1.08687096 3,1.25517896 Z" id="Rectangle-5-Copy"></path>
                </g>
                <g id="Group-8-Copy-2" transform="translate(121.000000, 148.000000)" stroke="#FFFFFF" stroke-linecap="square">
                    <path d="M1.5,2.5 L3.5,0.5" id="Line-4"></path>
                    <path d="M0.5,1.5 L1.5,2.5" id="Line-3"></path>
                </g>
                <g id="Group-8-Copy-3" transform="translate(121.000000, 137.000000)" stroke="#FFFFFF" stroke-linecap="square">
                    <path d="M1.5,2.5 L3.5,0.5" id="Line-4"></path>
                    <path d="M0.5,1.5 L1.5,2.5" id="Line-3"></path>
                </g>
                <g id="Group-8-Copy-4" transform="translate(121.000000, 126.000000)" stroke="#FFFFFF" stroke-linecap="square">
                    <path d="M1.5,2.5 L3.5,0.5" id="Line-4"></path>
                    <path d="M0.5,1.5 L1.5,2.5" id="Line-3"></path>
                </g>
                <g id="Rectangle-24" transform="translate(196.500000, 163.002605) scale(-1, 1) translate(-196.500000, -163.002605) ">
                    <use fill="black" fill-opacity="1" filter="url(#filter-6)" xlink:href="#path-5"></use>
                    <use fill="#4CFFB6" fill-rule="evenodd" xlink:href="#path-5"></use>
                </g>
                <path d="M193.043813,176.96543 L198.043813,174.243762 C199.013967,173.715674 200.228531,174.07404 200.756618,175.044193 C200.916327,175.337595 201,175.666327 201,176.00038 L201,191.283161 C201,192.015669 200.599555,192.689572 199.956187,193.039779 L194.956187,195.761448 C193.986033,196.289535 192.771469,195.931169 192.243382,194.961016 C192.083673,194.667614 192,194.338882 192,194.00483 L192,178.722048 C192,177.98954 192.400445,177.315637 193.043813,176.96543 Z" id="Rectangle-24-Copy" fill="#FF595D" transform="translate(196.500000, 185.002605) scale(-1, 1) translate(-196.500000, -185.002605) "></path>
                <g id="Group-7" transform="translate(277.000000, 214.000000)">
                    <g id="Group-2-Copy-2">
                        <path d="M3.0864165e-05,21.5209819 C1.46224434,20.7045036 24.1289007,19.2430415 68,17.1365954 C68,22.7126242 68,25.8330929 68,26.4980014 C68,27.4953641 67.180956,28.1293258 66.0494313,28.7687026 L33.5857898,47.1355799 C31.6521303,48.1962684 27.739587,48.2094907 25.830931,47.1355799 L1.66598318,33.4201101 C0.546936001,32.7778995 -0.00475462111,31.8415928 3.08641652e-05,30.9096084 C0.00321450144,30.2895876 0.00321450144,27.1600454 3.0864165e-05,21.5209819 Z" id="Path-5" fill="#65B4C1"></path>
                        <path d="M1.66598318,19.1032593 L33.7244728,0.929066196 C35.917793,-0.295651147 39.4936291,-0.32364723 41.7120383,0.929066196 L66.0494313,14.7541613 C67.2005945,15.4090267 68,16.0408123 68,17.0591005 C68,18.0773887 67.2460031,18.7668562 66.0494313,19.4429883 L33.5857898,37.8098656 C31.6521303,38.8705541 27.739587,38.8837764 25.830931,37.8098656 L1.66598318,24.0943958 C-0.569765891,22.8113205 -0.540842484,20.354325 1.66598318,19.1032593 Z" id="Path-5-Copy" fill="#92EDE1"></path>
                    </g>
                    <path d="M35.5377083,42.9946546 C34.922677,42.9349998 34.9330314,42.300355 35.0916039,41.8963833 C35.2501764,41.4924117 35.7606332,40.9974038 36.2526442,41.0000102 C36.7446551,41.0026167 37.1308901,41.3484428 36.9580837,41.9783294 C36.7852774,42.6082161 36.1527397,43.0543095 35.5377083,42.9946546 Z" id="Oval-10-Copy-6" fill="#FFED0E"></path>
                    <path d="M38.5377083,40.9946546 C37.922677,40.9349998 37.9330314,40.300355 38.0916039,39.8963833 C38.2501764,39.4924117 38.7606332,38.9974038 39.2526442,39.0000102 C39.7446551,39.0026167 40.1308901,39.3484428 39.9580837,39.9783294 C39.7852774,40.6082161 39.1527397,41.0543095 38.5377083,40.9946546 Z" id="Oval-10-Copy-7" fill="#FFED0E"></path>
                    <g id="Line" stroke-linecap="round">
                        <use fill="black" fill-opacity="1" filter="url(#filter-8)" xlink:href="#path-7"></use>
                        <use stroke="#FFFFFF" stroke-width="0.5" xlink:href="#path-7"></use>
                    </g>
                </g>
            </g>
        </g>
    </g>
</svg>