<?xml version="1.0" encoding="UTF-8"?>
<svg width="500px" height="500px" viewBox="0 0 500 500" version="1.1" xmlns="http://www.w3.org/2000/svg" xmlns:xlink="http://www.w3.org/1999/xlink">
    <!-- Generator: Sketch 50.2 (55047) - http://www.bohemiancoding.com/sketch -->
    <title>HighlightR@1440</title>
    <desc>Created with Sketch.</desc>
    <defs></defs>
    <g id="HighlightR" stroke="none" stroke-width="1" fill="none" fill-rule="evenodd">
        <circle id="Oval-12" fill="#EFEFEF" cx="250.5" cy="250.5" r="182.5"></circle>
        <rect id="Rectangle-Copy" fill="#FFFFFF" x="93" y="144" width="318" height="213"></rect>
        <rect id="Rectangle" fill="#FAE568" x="198" y="142" width="213" height="43"></rect>
        <path d="M132.896552,385.896552 L132.896552,382.103448 C132.896552,380.389461 134.286013,379 136,379 C137.713987,379 139.103448,380.389461 139.103448,382.103448 L139.103448,385.896552 L142.896552,385.896552 C144.610539,385.896552 146,387.286013 146,389 C146,390.713987 144.610539,392.103448 142.896552,392.103448 L139.103448,392.103448 L139.103448,395.896552 C139.103448,397.610539 137.713987,399 136,399 C134.286013,399 132.896552,397.610539 132.896552,395.896552 L132.896552,392.103448 L129.103448,392.103448 C127.389461,392.103448 126,390.713987 126,389 C126,387.286013 127.389461,385.896552 129.103448,385.896552 L132.896552,385.896552 Z" id="Combined-Shape" fill="#616161"></path>
        <path d="M107.038687,97.8965517 L107.038687,94.1034483 C107.038687,92.3894611 108.428148,91 110.142136,91 C111.856123,91 113.245584,92.3894611 113.245584,94.1034483 L113.245584,97.8965517 L117.038687,97.8965517 C118.752675,97.8965517 120.142136,99.2860128 120.142136,101 C120.142136,102.713987 118.752675,104.103448 117.038687,104.103448 L113.245584,104.103448 L113.245584,107.896552 C113.245584,109.610539 111.856123,111 110.142136,111 C108.428148,111 107.038687,109.610539 107.038687,107.896552 L107.038687,104.103448 L103.245584,104.103448 C101.531597,104.103448 100.142136,102.713987 100.142136,101 C100.142136,99.2860128 101.531597,97.8965517 103.245584,97.8965517 L107.038687,97.8965517 Z" id="Combined-Shape-Copy" fill="#616161" transform="translate(110.142136, 101.000000) rotate(45.000000) translate(-110.142136, -101.000000) "></path>
        <path d="M275.408399,387.408399 L275.408399,385.54997 C275.408399,384.710203 276.089165,384.029437 276.928932,384.029437 C277.768699,384.029437 278.449465,384.710203 278.449465,385.54997 L278.449465,387.408399 L280.307894,387.408399 C281.147661,387.408399 281.828427,388.089165 281.828427,388.928932 C281.828427,389.768699 281.147661,390.449465 280.307894,390.449465 L278.449465,390.449465 L278.449465,392.307894 C278.449465,393.147661 277.768699,393.828427 276.928932,393.828427 C276.089165,393.828427 275.408399,393.147661 275.408399,392.307894 L275.408399,390.449465 L273.54997,390.449465 C272.710203,390.449465 272.029437,389.768699 272.029437,388.928932 C272.029437,388.089165 272.710203,387.408399 273.54997,387.408399 L275.408399,387.408399 Z" id="Combined-Shape-Copy-2" fill="#616161" transform="translate(276.928932, 388.928932) rotate(45.000000) translate(-276.928932, -388.928932) "></path>
        <circle id="Oval-13-Copy-3" fill="#616161" cx="369" cy="96" r="5"></circle>
        <circle id="Oval-13-Copy-4" fill="#616161" cx="365.5" cy="416.5" r="3.5"></circle>
        <rect id="Rectangle-33" stroke="#5F65A5" stroke-width="9" x="88.5" y="141.5" width="324" height="219" rx="16"></rect>
        <path d="M91.5,186.5 L410.514106,186.5" id="Line" stroke="#5F65A5" stroke-width="9" stroke-linecap="square"></path>
        <path d="M197.5,149.5 L197.5,185.5" id="Line-Copy" stroke="#5F65A5" stroke-width="9" stroke-linecap="square"></path>
        <rect id="Rectangle-2" fill="#EFEFEF" x="77" y="250" width="17" height="43"></rect>
        <rect id="Rectangle-2-Copy" fill="#EFEFEF" x="407" y="250" width="17" height="43"></rect>
        <circle id="Oval-17" fill="#5F65A5" cx="115" cy="164" r="5"></circle>
        <circle id="Oval-17-Copy-4" fill="#5F65A5" cx="87.5" cy="272.5" r="6.5"></circle>
        <circle id="Oval-17-Copy-5" fill="#5F65A5" cx="413.5" cy="272.5" r="6.5"></circle>
        <circle id="Oval-17-Copy" fill="#5F65A5" cx="141" cy="164" r="5"></circle>
        <circle id="Oval-17-Copy-2" fill="#5F65A5" cx="167" cy="164" r="5"></circle>
        <rect id="Rectangle-34" fill="#92A6ED" x="115" y="211" width="272" height="122"></rect>
        <rect id="Rectangle-34-Copy" stroke="#5F65A5" stroke-width="9" fill="#FFFFFF" x="156.5" y="245.5" width="189" height="53" rx="13"></rect>
        <rect id="Rectangle-35" fill="#5F65A5" x="180" y="268" width="9" height="9"></rect>
        <rect id="Rectangle-35-Copy" fill="#5F65A5" x="195" y="268" width="45" height="9"></rect>
        <rect id="Rectangle-35-Copy-2" fill="#5F65A5" x="101" y="268" width="38" height="9" rx="4.5"></rect>
        <rect id="Rectangle-35-Copy-3" fill="#5F65A5" x="361" y="268" width="38" height="9" rx="4.5"></rect>
        <circle id="Oval-17-Copy-3" fill="#000000" cx="312.5" cy="272.5" r="7.5"></circle>
        <path d="M246.5,214.156984 L246.5,300.960487 C246.5,333.172246 269.701576,360.586503 316.989574,383.211024 C362.949143,360.9722 385.5,333.5949 385.5,301.008568 L385.5,214.151732 C362.598117,213.63602 339.765454,209.182952 317.019622,200.802866 C294.239902,209.214522 270.726554,213.66714 246.5,214.156978 Z" id="Rectangle-36" stroke="#5F65A5" stroke-width="9" fill="#50E391"></path>
        <path d="M284.478271,286.478271 L307.5,309.5" id="Line-2" stroke="#5F65A5" stroke-width="9" stroke-linecap="round"></path>
        <path d="M308.5,309.5 L351.546487,266.453513" id="Line-2-Copy" stroke="#5F65A5" stroke-width="9" stroke-linecap="round"></path>
    </g>
</svg>