<?xml version="1.0" encoding="UTF-8"?>
<svg width="500px" height="500px" viewBox="0 0 500 500" version="1.1" xmlns="http://www.w3.org/2000/svg" xmlns:xlink="http://www.w3.org/1999/xlink">
    <!-- Generator: Sketch 50.2 (55047) - http://www.bohemiancoding.com/sketch -->
    <title>HighlightMM@1440</title>
    <desc>Created with Sketch.</desc>
    <defs></defs>
    <g id="HighlightMM" stroke="none" stroke-width="1" fill="none" fill-rule="evenodd">
        <circle id="Oval-12" fill="#EFEFEF" cx="250.5" cy="250.5" r="182.5"></circle>
        <path d="M105.896552,402.896552 L105.896552,399.103448 C105.896552,397.389461 107.286013,396 109,396 C110.713987,396 112.103448,397.389461 112.103448,399.103448 L112.103448,402.896552 L115.896552,402.896552 C117.610539,402.896552 119,404.286013 119,406 C119,407.713987 117.610539,409.103448 115.896552,409.103448 L112.103448,409.103448 L112.103448,412.896552 C112.103448,414.610539 110.713987,416 109,416 C107.286013,416 105.896552,414.610539 105.896552,412.896552 L105.896552,409.103448 L102.103448,409.103448 C100.389461,409.103448 99,407.713987 99,406 C99,404.286013 100.389461,402.896552 102.103448,402.896552 L105.896552,402.896552 Z" id="Combined-Shape" fill="#616161"></path>
        <path d="M360.038687,69.0386873 L360.038687,65.2455839 C360.038687,63.5315967 361.428148,62.1421356 363.142136,62.1421356 C364.856123,62.1421356 366.245584,63.5315967 366.245584,65.2455839 L366.245584,69.0386873 L370.038687,69.0386873 C371.752675,69.0386873 373.142136,70.4281485 373.142136,72.1421356 C373.142136,73.8561228 371.752675,75.2455839 370.038687,75.2455839 L366.245584,75.2455839 L366.245584,79.0386873 C366.245584,80.7526745 364.856123,82.1421356 363.142136,82.1421356 C361.428148,82.1421356 360.038687,80.7526745 360.038687,79.0386873 L360.038687,75.2455839 L356.245584,75.2455839 C354.531597,75.2455839 353.142136,73.8561228 353.142136,72.1421356 C353.142136,70.4281485 354.531597,69.0386873 356.245584,69.0386873 L360.038687,69.0386873 Z" id="Combined-Shape-Copy" fill="#616161" transform="translate(363.142136, 72.142136) rotate(45.000000) translate(-363.142136, -72.142136) "></path>
        <path d="M275.408399,387.408399 L275.408399,385.54997 C275.408399,384.710203 276.089165,384.029437 276.928932,384.029437 C277.768699,384.029437 278.449465,384.710203 278.449465,385.54997 L278.449465,387.408399 L280.307894,387.408399 C281.147661,387.408399 281.828427,388.089165 281.828427,388.928932 C281.828427,389.768699 281.147661,390.449465 280.307894,390.449465 L278.449465,390.449465 L278.449465,392.307894 C278.449465,393.147661 277.768699,393.828427 276.928932,393.828427 C276.089165,393.828427 275.408399,393.147661 275.408399,392.307894 L275.408399,390.449465 L273.54997,390.449465 C272.710203,390.449465 272.029437,389.768699 272.029437,388.928932 C272.029437,388.089165 272.710203,387.408399 273.54997,387.408399 L275.408399,387.408399 Z" id="Combined-Shape-Copy-2" fill="#616161" transform="translate(276.928932, 388.928932) rotate(45.000000) translate(-276.928932, -388.928932) "></path>
        <circle id="Oval-13-Copy-3" fill="#616161" cx="115" cy="131" r="5"></circle>
        <circle id="Oval-13-Copy-4" fill="#616161" cx="410.5" cy="388.5" r="3.5"></circle>
        <rect id="Rectangle-2" fill="#EFEFEF" x="77" y="250" width="17" height="43"></rect>
        <rect id="Rectangle-2-Copy" fill="#EFEFEF" x="407" y="250" width="17" height="43"></rect>
        <rect id="Rectangle-37-Copy-2" stroke="#5F65A5" stroke-width="9" fill="#FF6969" transform="translate(222.037700, 206.807209) rotate(-78.000000) translate(-222.037700, -206.807209) " x="102.238451" y="133.677938" width="239.598498" height="146.258542" rx="16"></rect>
        <rect id="Rectangle-37-Copy" stroke="#5F65A5" stroke-width="9" fill="#92A6ED" transform="translate(271.640094, 204.545107) rotate(-60.000000) translate(-271.640094, -204.545107) " x="151.840845" y="131.415836" width="239.598498" height="146.258542" rx="16"></rect>
        <rect id="Rectangle-39" fill="#5F65A5" transform="translate(279.869546, 136.216334) rotate(-60.000000) translate(-279.869546, -136.216334) " x="227.369546" y="114.716334" width="105" height="43"></rect>
        <rect id="Rectangle-37" stroke="#5F65A5" stroke-width="9" fill="#FFFFFF" x="103.761549" y="174.584164" width="286" height="194" rx="16"></rect>
        <path d="M146.5,200.5 L346.5,200.5" id="Line" stroke="#5F65A5" stroke-width="9" stroke-linecap="round"></path>
        <path d="M146.761549,342.584164 L346.761549,342.584164" id="Line-Copy-2" stroke="#5F65A5" stroke-width="9" stroke-linecap="round"></path>
        <path d="M127.761549,258.584164 L127.761549,326.783942" id="Line-Copy" stroke="#5F65A5" stroke-width="9" stroke-linecap="round"></path>
        <path d="M127.761549,217.584164 L127.761549,222.584164" id="Line-Copy-3" stroke="#5F65A5" stroke-width="9" stroke-linecap="round"></path>
        <rect id="Rectangle-34-Copy-2" fill="#92A6ED" x="146.261549" y="217.084164" width="201" height="110" rx="55"></rect>
        <rect id="Rectangle-38" stroke="#5F65A5" stroke-width="9" fill="#FAE568" x="298.761549" y="237.584164" width="100" height="69" rx="17"></rect>
        <circle id="Oval-18" stroke="#5F65A5" stroke-width="9" fill="#FFFFFF" cx="331.261549" cy="272.084164" r="14"></circle>
    </g>
</svg>