<?xml version="1.0" encoding="UTF-8"?>
<svg width="82px" height="55px" viewBox="0 0 82 55" version="1.1" xmlns="http://www.w3.org/2000/svg" xmlns:xlink="http://www.w3.org/1999/xlink">
    <!-- Generator: Sketch 50.2 (55047) - http://www.bohemiancoding.com/sketch -->
    <title>Logo@1440</title>
    <desc>Created with Sketch.</desc>
    <defs></defs>
    <g id="Page-1" stroke="none" stroke-width="1" fill="none" fill-rule="evenodd">
        <g id="Artboard-2-Copy-2" transform="translate(-132.000000, -76.000000)" fill="#323232">
            <g id="Group-3" transform="translate(131.000000, 76.000000)">
                <g id="Logo">
                    <path d="M5.5,0 C6.88071187,-2.53632657e-16 8,1.11928813 8,2.5 L8,33.5 C8,34.8807119 6.88071187,36 5.5,36 C4.11928813,36 3,34.8807119 3,33.5 L3,2.5 C3,1.11928813 4.11928813,2.53632657e-16 5.5,0 Z M29.5,0 C30.8807119,-2.53632657e-16 32,1.11928813 32,2.5 L32,33.5 C32,34.8807119 30.8807119,36 29.5,36 C28.1192881,36 27,34.8807119 27,33.5 L27,2.5 C27,1.11928813 28.1192881,2.53632657e-16 29.5,0 Z M47.5,0 C48.8807119,-2.53632657e-16 50,1.11928813 50,2.5 L50,33.5 C50,34.8807119 48.8807119,36 47.5,36 C46.1192881,36 45,34.8807119 45,33.5 L45,2.5 C45,1.11928813 46.1192881,2.53632657e-16 47.5,0 Z M71.5,0 C72.8807119,-2.53632657e-16 74,1.11928813 74,2.5 L74,33.5 C74,34.8807119 72.8807119,36 71.5,36 C70.1192881,36 69,34.8807119 69,33.5 L69,2.5 C69,1.11928813 70.1192881,2.53632657e-16 71.5,0 Z M14.5,12 C15.8807119,12 17,13.1192881 17,14.5 L17,30.5 C17,31.8807119 15.8807119,33 14.5,33 C13.1192881,33 12,31.8807119 12,30.5 L12,14.5 C12,13.1192881 13.1192881,12 14.5,12 Z M38.5,17 C39.8807119,17 41,18.1192881 41,19.5 L41,33.5 C41,34.8807119 39.8807119,36 38.5,36 C37.1192881,36 36,34.8807119 36,33.5 L36,19.5 C36,18.1192881 37.1192881,17 38.5,17 Z M64.5,22 C65.8807119,22 67,23.1192881 67,24.5 L67,33.5 C67,34.8807119 65.8807119,36 64.5,36 C63.1192881,36 62,34.8807119 62,33.5 L62,24.5 C62,23.1192881 63.1192881,22 64.5,22 Z M80.5,0 C81.8807119,-2.53632657e-16 83,1.11928813 83,2.5 L83,11.5 C83,12.8807119 81.8807119,14 80.5,14 C79.1192881,14 78,12.8807119 78,11.5 L78,2.5 C78,1.11928813 79.1192881,2.53632657e-16 80.5,0 Z" id="logo-copy-2"></path>
                    <text id="DIMENSION" font-family=".AppleSystemUIFont" font-size="14" font-weight="normal" letter-spacing="0.300000012">
                        <tspan x="0" y="54">DIMENSIO</tspan>
                        <tspan x="69.5357423" y="54">N</tspan>
                    </text>
                </g>
            </g>
        </g>
    </g>
</svg>