<?xml version="1.0" encoding="UTF-8"?>
<svg width="546px" height="474px" viewBox="0 0 546 474" version="1.1" xmlns="http://www.w3.org/2000/svg" xmlns:xlink="http://www.w3.org/1999/xlink">
    <!-- Generator: Sketch 50.2 (55047) - http://www.bohemiancoding.com/sketch -->
    <title>PermanentStorage@1440</title>
    <desc>Created with Sketch.</desc>
    <defs>
        <polygon id="path-1" points="57.1657873 95.7522179 62.0916586 90.0856512 329.173641 183.035388 451.538605 406.075964 446.701873 411.639988 148.064944 352.048904"></polygon>
        <filter x="-15.7%" y="-7.5%" width="122.8%" height="128.0%" filterUnits="objectBoundingBox" id="filter-2">
            <feOffset dx="-17" dy="21" in="SourceAlpha" result="shadowOffsetOuter1"></feOffset>
            <feGaussianBlur stdDeviation="11.5" in="shadowOffsetOuter1" result="shadowBlurOuter1"></feGaussianBlur>
            <feColorMatrix values="0 0 0 0 0   0 0 0 0 0.00195518749   0 0 0 0 0.267724277  0 0 0 0.120442708 0" type="matrix" in="shadowBlurOuter1"></feColorMatrix>
        </filter>
        <path d="M117.934783,32.5769231 L174.577295,0.423076923" id="path-3"></path>
        <filter x="-16.5%" y="-28.8%" width="133.1%" height="157.6%" filterUnits="objectBoundingBox" id="filter-4">
            <feMorphology radius="1.5" operator="dilate" in="SourceAlpha" result="shadowSpreadOuter1"></feMorphology>
            <feOffset dx="0" dy="0" in="shadowSpreadOuter1" result="shadowOffsetOuter1"></feOffset>
            <feMorphology radius="2" operator="erode" in="SourceAlpha" result="shadowInner"></feMorphology>
            <feOffset dx="0" dy="0" in="shadowInner" result="shadowInner"></feOffset>
            <feComposite in="shadowOffsetOuter1" in2="shadowInner" operator="out" result="shadowOffsetOuter1"></feComposite>
            <feGaussianBlur stdDeviation="2" in="shadowOffsetOuter1" result="shadowBlurOuter1"></feGaussianBlur>
            <feColorMatrix values="0 0 0 0 1   0 0 0 0 1   0 0 0 0 1  0 0 0 0.5 0" type="matrix" in="shadowBlurOuter1"></feColorMatrix>
        </filter>
        <path d="M117.934783,74.0384615 L174.577295,41.8846154" id="path-5"></path>
        <filter x="-16.5%" y="-28.8%" width="133.1%" height="157.6%" filterUnits="objectBoundingBox" id="filter-6">
            <feMorphology radius="1.5" operator="dilate" in="SourceAlpha" result="shadowSpreadOuter1"></feMorphology>
            <feOffset dx="0" dy="0" in="shadowSpreadOuter1" result="shadowOffsetOuter1"></feOffset>
            <feMorphology radius="2" operator="erode" in="SourceAlpha" result="shadowInner"></feMorphology>
            <feOffset dx="0" dy="0" in="shadowInner" result="shadowInner"></feOffset>
            <feComposite in="shadowOffsetOuter1" in2="shadowInner" operator="out" result="shadowOffsetOuter1"></feComposite>
            <feGaussianBlur stdDeviation="2" in="shadowOffsetOuter1" result="shadowBlurOuter1"></feGaussianBlur>
            <feColorMatrix values="0 0 0 0 0.561237374   0 0 0 0 0.763808294   0 0 0 0 1  0 0 0 1 0" type="matrix" in="shadowBlurOuter1"></feColorMatrix>
        </filter>
        <path d="M117.934783,116.346154 L174.577295,84.1923077" id="path-7"></path>
        <filter x="-16.5%" y="-28.8%" width="133.1%" height="157.6%" filterUnits="objectBoundingBox" id="filter-8">
            <feMorphology radius="1.5" operator="dilate" in="SourceAlpha" result="shadowSpreadOuter1"></feMorphology>
            <feOffset dx="0" dy="0" in="shadowSpreadOuter1" result="shadowOffsetOuter1"></feOffset>
            <feMorphology radius="2" operator="erode" in="SourceAlpha" result="shadowInner"></feMorphology>
            <feOffset dx="0" dy="0" in="shadowInner" result="shadowInner"></feOffset>
            <feComposite in="shadowOffsetOuter1" in2="shadowInner" operator="out" result="shadowOffsetOuter1"></feComposite>
            <feGaussianBlur stdDeviation="2" in="shadowOffsetOuter1" result="shadowBlurOuter1"></feGaussianBlur>
            <feColorMatrix values="0 0 0 0 0.561237374   0 0 0 0 0.763808294   0 0 0 0 1  0 0 0 1 0" type="matrix" in="shadowBlurOuter1"></feColorMatrix>
        </filter>
        <linearGradient x1="35.9939617%" y1="50%" x2="55.5492657%" y2="76.2441315%" id="linearGradient-9">
            <stop stop-color="#FCF53C" stop-opacity="0.338230299" offset="0%"></stop>
            <stop stop-color="#FFFFFF" stop-opacity="0" offset="100%"></stop>
        </linearGradient>
    </defs>
    <g id="Page-1" stroke="none" stroke-width="1" fill="none" fill-rule="evenodd">
        <g id="Artboard-2-Copy-2" transform="translate(-1145.000000, -2378.000000)">
            <g id="PermanentStorage" transform="translate(1163.000000, 2378.000000)">
                <circle id="Oval-10" fill="#E4E7F0" cx="256.5" cy="2.5" r="2.5"></circle>
                <g id="Group-4-Copy-11" transform="translate(0.000000, 29.000000)">
                    <g id="Rectangle-2-Copy-12" transform="translate(254.352196, 250.862819) rotate(-41.000000) translate(-254.352196, -250.862819) ">
                        <use fill="black" fill-opacity="1" filter="url(#filter-2)" xlink:href="#path-1"></use>
                        <use fill="#AFB8D7" fill-rule="evenodd" xlink:href="#path-1"></use>
                    </g>
                    <polygon id="Rectangle-2-Copy-13" fill="#EDF0FD" transform="translate(254.394425, 247.079834) rotate(-41.000000) translate(-254.394425, -247.079834) " points="59.6677044 89.038057 359.216316 149.955239 449.121146 405.121611 150.536759 344.995459"></polygon>
                </g>
                <g id="Group" transform="translate(244.000000, 169.500000) scale(-1, 1) translate(-244.000000, -169.500000) translate(139.000000, 9.000000)">
                    <path d="M5.14494804,260.877684 L104.149107,204.863452 C110.922596,201.088781 121.965619,201.002495 128.816589,204.863452 L203.976185,247.473436 C207.531248,249.491781 210,251.438991 210,254.577432 C210,257.715873 207.67148,259.840864 203.976185,261.924754 L103.720821,318.532853 C97.7492258,321.801975 85.6663717,321.842727 79.7719929,318.532853 L5.14494804,276.260742 C-1.75957114,272.306208 -1.67024885,264.733562 5.14494804,260.877684 Z" id="Path-5-Copy-3" fill="#192763" opacity="0.401381341"></path>
                    <g id="Group-2" transform="translate(0.000000, 149.000000)">
                        <path d="M9.53158044e-05,66.3563607 C4.51575457,63.8388862 74.5157228,59.3327112 210,52.8378357 C210,70.0305914 210,79.6520365 210,81.702171 C210,84.7773727 207.4706,86.7320879 203.976185,88.7034998 L103.720821,145.334705 C97.7492258,148.605161 85.6663717,148.64593 79.7719929,145.334705 L5.14494804,103.045339 C1.68906706,101.06519 -0.0146833887,98.1782443 9.53158049e-05,95.3046258 C0.00992713681,93.392895 0.00992713681,83.7434734 9.53158044e-05,66.3563607 Z" id="Path-5" fill="#7B8ACF"></path>
                        <path d="M5.14494804,58.9017162 L104.149107,2.86462077 C110.922596,-0.911591036 121.965619,-0.997912292 128.816589,2.86462077 L203.976185,45.4919973 C207.531248,47.5111656 210,49.4591712 210,52.5988931 C210,55.7386151 207.67148,57.8644732 203.976185,59.9492141 L103.720821,116.580419 C97.7492258,119.850875 85.6663717,119.891644 79.7719929,116.580419 L5.14494804,74.2910537 C-1.75957114,70.3349049 -1.67024885,62.7591687 5.14494804,58.9017162 Z" id="Path-5-Copy" fill="#92A6ED"></path>
                    </g>
                    <path d="M13.7039525,207.929979 L104.222041,156.622826 C110.414945,153.165354 120.511423,153.086319 126.775167,156.622826 L195.492512,195.652139 C198.742855,197.500875 201,199.284454 201,202.159161 C201,205.033867 198.871068,206.980287 195.492512,208.889061 L103.830465,260.740176 C98.3707208,263.734582 87.3235398,263.77191 81.9343935,260.740176 L13.7039525,222.020344 C7.39124925,218.398123 7.47291534,211.461834 13.7039525,207.929979 Z" id="Path-5-Copy-2" fill="#000000" opacity="0.394474638"></path>
                    <g id="Group-2-Copy" transform="translate(0.000000, 107.000000)">
                        <path d="M9.53158044e-05,66.3563607 C4.51575457,63.8388862 74.5157228,59.3327112 210,52.8378357 C210,70.0305914 210,79.6520365 210,81.702171 C210,84.7773727 207.4706,86.7320879 203.976185,88.7034998 L103.720821,145.334705 C97.7492258,148.605161 85.6663717,148.64593 79.7719929,145.334705 L5.14494804,103.045339 C1.68906706,101.06519 -0.0146833887,98.1782443 9.53158049e-05,95.3046258 C0.00992713681,93.392895 0.00992713681,83.7434734 9.53158044e-05,66.3563607 Z" id="Path-5" fill="#7B8ACF"></path>
                        <path d="M5.14494804,58.9017162 L104.149107,2.86462077 C110.922596,-0.911591036 121.965619,-0.997912292 128.816589,2.86462077 L203.976185,45.4919973 C207.531248,47.5111656 210,49.4591712 210,52.5988931 C210,55.7386151 207.67148,57.8644732 203.976185,59.9492141 L103.720821,116.580419 C97.7492258,119.850875 85.6663717,119.891644 79.7719929,116.580419 L5.14494804,74.2910537 C-1.75957114,70.3349049 -1.67024885,62.7591687 5.14494804,58.9017162 Z" id="Path-5-Copy" fill="#92A6ED"></path>
                    </g>
                    <path d="M13.7039525,166.929979 L104.222041,115.622826 C110.414945,112.165354 120.511423,112.086319 126.775167,115.622826 L195.492512,154.652139 C198.742855,156.500875 201,158.284454 201,161.159161 C201,164.033867 198.871068,165.980287 195.492512,167.889061 L103.830465,219.740176 C98.3707208,222.734582 87.3235398,222.77191 81.9343935,219.740176 L13.7039525,181.020344 C7.39124925,177.398123 7.47291534,170.461834 13.7039525,166.929979 Z" id="Path-5-Copy" fill="#000000" opacity="0.394474638"></path>
                    <g id="Group-2-Copy-2" transform="translate(0.000000, 64.000000)">
                        <path d="M9.53158044e-05,66.3563607 C4.51575457,63.8388862 74.5157228,59.3327112 210,52.8378357 C210,70.0305914 210,79.6520365 210,81.702171 C210,84.7773727 207.4706,86.7320879 203.976185,88.7034998 L103.720821,145.334705 C97.7492258,148.605161 85.6663717,148.64593 79.7719929,145.334705 L5.14494804,103.045339 C1.68906706,101.06519 -0.0146833887,98.1782443 9.53158049e-05,95.3046258 C0.00992713681,93.392895 0.00992713681,83.7434734 9.53158044e-05,66.3563607 Z" id="Path-5" fill="#7B8ACF"></path>
                        <path d="M5.14494804,58.9017162 L104.149107,2.86462077 C110.922596,-0.911591036 121.965619,-0.997912292 128.816589,2.86462077 L203.976185,45.4919973 C207.531248,47.5111656 210,49.4591712 210,52.5988931 C210,55.7386151 207.67148,57.8644732 203.976185,59.9492141 L103.720821,116.580419 C97.7492258,119.850875 85.6663717,119.891644 79.7719929,116.580419 L5.14494804,74.2910537 C-1.75957114,70.3349049 -1.67024885,62.7591687 5.14494804,58.9017162 Z" id="Path-5-Copy" fill="#92A6ED"></path>
                    </g>
                    <g id="Group-9" transform="translate(19.000000, 145.000000)">
                        <g id="Group-8" transform="translate(93.840580, 38.076923)" fill="#FFED0E">
                            <path d="M1.47566474,52.4410279 C-0.212202147,52.2391916 -0.183785788,50.0919325 0.251393991,48.7251336 C0.686573771,47.3583347 2.08745063,45.6835238 3.4377054,45.6923424 C4.78796016,45.7011609 5.84792757,46.8712302 5.37368486,49.0023903 C4.89944216,51.1335505 3.16353162,52.6428642 1.47566474,52.4410279 Z" id="Oval-10-Copy-3"></path>
                            <path d="M1.47566474,94.7487202 C-0.212202147,94.5468839 -0.183785788,92.3996248 0.251393991,91.0328259 C0.686573771,89.666027 2.08745063,87.9912161 3.4377054,88.0000347 C4.78796016,88.0088532 5.84792757,89.1789225 5.37368486,91.3100826 C4.89944216,93.4412428 3.16353162,94.9505565 1.47566474,94.7487202 Z" id="Oval-10-Copy-9"></path>
                            <path d="M1.47566474,10.9794894 C-0.212202147,10.7776531 -0.183785788,8.63039402 0.251393991,7.26359513 C0.686573771,5.89679624 2.08745063,4.22198538 3.4377054,4.23080391 C4.78796016,4.23962244 5.84792757,5.40969171 5.37368486,7.54085185 C4.89944216,9.67201199 3.16353162,11.1813258 1.47566474,10.9794894 Z" id="Oval-10-Copy-6"></path>
                            <path d="M8.23894976,48.2102587 C6.55108288,48.0084223 6.57949924,45.8611633 7.01467902,44.4943644 C7.4498588,43.1275655 8.85073565,41.4527546 10.2009904,41.4615731 C11.5512452,41.4703917 12.6112126,42.6404609 12.1369699,44.7716211 C11.6627272,46.9027812 9.92681664,48.412095 8.23894976,48.2102587 Z" id="Oval-10-Copy-4"></path>
                            <path d="M8.23894976,6.7487202 C6.55108288,6.54688386 6.57949924,4.39962479 7.01467902,3.0328259 C7.4498588,1.66602701 8.85073565,-0.00878385187 10.2009904,3.46781932e-05 C11.5512452,0.00885320826 12.6112126,1.17892248 12.1369699,3.31008262 C11.6627272,5.44124276 9.92681664,6.95055653 8.23894976,6.7487202 Z" id="Oval-10-Copy-7"></path>
                            <path d="M15.0022348,43.9794894 C13.3143679,43.7776531 13.3427843,41.630394 13.777964,40.2635951 C14.2131438,38.8967962 15.6140207,37.2219854 16.9642754,37.2308039 C18.3145302,37.2396224 19.3744976,38.4096917 18.9002549,40.5408519 C18.4260122,42.672012 16.6901017,44.1813258 15.0022348,43.9794894 Z" id="Oval-10-Copy-5"></path>
                            <path d="M15.0022348,86.2871817 C13.3143679,86.0853454 13.3427843,83.9380863 13.777964,82.5712874 C14.2131438,81.2044885 15.6140207,79.5296777 16.9642754,79.5384962 C18.3145302,79.5473147 19.3744976,80.717384 18.9002549,82.8485442 C18.4260122,84.9797043 16.6901017,86.4890181 15.0022348,86.2871817 Z" id="Oval-10-Copy-11"></path>
                        </g>
                        <g id="Group-7">
                            <g id="Line" stroke-linecap="round">
                                <use fill="black" fill-opacity="1" filter="url(#filter-4)" xlink:href="#path-3"></use>
                                <use stroke="#FFFFFF" stroke-width="1" xlink:href="#path-3"></use>
                            </g>
                            <g id="Line-Copy-29" stroke-linecap="round">
                                <use fill="black" fill-opacity="1" filter="url(#filter-6)" xlink:href="#path-5"></use>
                                <use stroke="#C5E0FF" stroke-width="1" xlink:href="#path-5"></use>
                            </g>
                            <g id="Line-Copy-30" stroke-linecap="round">
                                <use fill="black" fill-opacity="1" filter="url(#filter-8)" xlink:href="#path-7"></use>
                                <use stroke="#C5E0FF" stroke-width="1" xlink:href="#path-7"></use>
                            </g>
                            <path d="M49.4565217,30.0384615 L49.4565217,58.0766857" id="Line-3" stroke="#6C78A2" stroke-linecap="round"></path>
                            <path d="M49.4565217,72.3461538 L49.4565217,100.384378" id="Line-3-Copy-2" stroke="#6C78A2" stroke-linecap="round"></path>
                            <path d="M49.4565217,114.653846 L49.4565217,142.69207" id="Line-3-Copy-4" stroke="#6C78A2" stroke-linecap="round"></path>
                            <path d="M0.422705314,2.11538462 L0.422705314,30.1536087" id="Line-3-Copy" stroke="#6C78A2" stroke-linecap="round"></path>
                            <path d="M0.422705314,44.4230769 L0.422705314,72.461301" id="Line-3-Copy-3" stroke="#6C78A2" stroke-linecap="round"></path>
                            <path d="M0.422705314,86.7307692 L0.422705314,114.768993" id="Line-3-Copy-5" stroke="#6C78A2" stroke-linecap="round"></path>
                            <path d="M0.422705314,16.5 L49.4565217,44.4230769" id="Line-4" stroke="#6C78A2" stroke-linecap="square"></path>
                            <path d="M0.422705314,58.8076923 L49.4565217,86.7307692" id="Line-4-Copy" stroke="#6C78A2" stroke-linecap="square"></path>
                            <path d="M0.422705314,101.115385 L49.4565217,129.038462" id="Line-4-Copy-2" stroke="#6C78A2" stroke-linecap="square"></path>
                        </g>
                    </g>
                    <path d="M58.7344529,148.919852 L155.824113,94.5701367 C157.209122,93.7948243 158.900984,93.8102533 160.271622,94.6106959 L160.271622,94.6106959 C160.969371,95.0181761 161.20468,95.9141412 160.7972,96.61189 C160.665339,96.8376828 160.475375,97.0240113 160.247077,97.1514859 L62.9919583,151.45575 C61.6536811,152.203003 60.0185912,152.180369 58.7015109,151.396359 L58.7015109,151.396359 C58.0228947,150.992403 57.8002383,150.114806 58.2041939,149.436189 C58.3325712,149.220525 58.5154499,149.042447 58.7344529,148.919852 Z" id="Rectangle" fill-opacity="0.400000006" fill="#1B1D27"></path>
                    <g id="Group-15" transform="translate(58.000000, 0.000000)">
                        <path d="M-7.95807864e-13,126.713036 L-7.95807864e-13,69.8058095 C-7.95807864e-13,54.9213776 -7.95807864e-13,54.9634149 12.2823515,47.7403995 C46.0105609,28.5766485 71.27404,14.1026803 88.0727887,4.31849499 C93.3292767,1.25693045 96.1910079,-0.405890778 97.7489883,0.0850986554 L101.368827,1.868483 C101.698382,3.85163909 99.6107728,7.85409812 99.6107728,12.3608693 L99.6107728,70.0246527 C99.6107728,84.7177207 99.6107728,84.6774223 88.1675801,91.1176918 L13.5406598,133.692486 C10.4344606,135.444886 6.91726981,139.372708 5.0727231,140.236342 L1.29194029,138.258576 C-7.95807864e-13,137.016804 -7.95807864e-13,133.389549 -7.95807864e-13,126.713036 Z" id="Path-14-Copy" fill="#7B8ACF"></path>
                        <path d="M3.37704918,128.411831 L3.37704918,71.5046047 C3.37704918,56.6201728 3.37704918,56.66221 15.6594007,49.4391947 C49.3876101,30.2754436 74.6510892,15.8014755 91.4498378,6.01729017 C102.987822,-0.702839796 102.987822,-0.683797931 102.987822,14.0596645 L102.987822,71.7234479 C102.987822,86.4165158 102.987822,86.3762175 91.5446293,92.816487 L16.917709,135.391281 C3.37704918,143.03041 3.37704918,143.022905 3.37704918,128.411831 Z" id="Path-14" fill="#5F65A5"></path>
                    </g>
                    <path d="M70.4226804,91.5789474 L151.57732,44.4210526" id="Line-9-Copy" stroke="#767CC1" stroke-linecap="round"></path>
                    <path d="M70.4226804,113.578947 L151.57732,66.4210526" id="Line-9-Copy-2" stroke="#767CC1" stroke-linecap="round"></path>
                    <path d="M70.4226804,126.578947 L151.57732,79.4210526" id="Line-9-Copy-3" stroke="#767CC1" stroke-linecap="round"></path>
                    <path d="M77.4285714,104.571429 L88.5714286,75.4285714" id="Line-6" stroke="#F8E71C" stroke-linecap="round"></path>
                    <path d="M88.4285714,75.4285714 L105.571429,80.5714286" id="Line-7" stroke="#F8E71C" stroke-linecap="round"></path>
                    <path d="M105.427083,80.5757576 L145.572917,25.4242424" id="Line-8" stroke="#F8E71C" stroke-linecap="round"></path>
                    <path d="M70.4226804,66.5789474 L151.57732,19.4210526" id="Line-9" stroke="#767CC1" stroke-linecap="round"></path>
                    <polygon id="Path-15" fill="url(#linearGradient-9)" points="78 104.147504 88.9745453 75.1829516 105.833847 80.5520046 145.379024 25 146 81.7732087 78 122"></polygon>
                    <path d="M151.537708,88.991982 C150.922677,88.9024997 150.933031,87.9505325 151.091604,87.344575 C151.250176,86.7386175 151.760633,85.9961058 152.252644,86.0000154 C152.744655,86.003925 153.13089,86.5226643 152.958084,87.4674942 C152.785277,88.4123241 152.15274,89.0814642 151.537708,88.991982 Z" id="Oval-10-Copy-11" fill="#FFED0E"></path>
                    <path d="M146.537708,90.991982 C145.922677,90.9024997 145.933031,89.9505325 146.091604,89.344575 C146.250176,88.7386175 146.760633,87.9961058 147.252644,88.0000154 C147.744655,88.003925 148.13089,88.5226643 147.958084,89.4674942 C147.785277,90.4123241 147.15274,91.0814642 146.537708,90.991982 Z" id="Oval-10-Copy-13" fill="#FFED0E"></path>
                    <circle id="Oval" fill="#F9EB26" cx="145.5" cy="26.5" r="1.5"></circle>
                    <path d="M70.4,63.5 L74,61" id="Line-10" stroke="#F9F9FF" stroke-width="2" stroke-linecap="round"></path>
                    <path d="M70.4166667,87.625 L74.5833333,85.375" id="Line-10-Copy" stroke="#FFFFFF" stroke-width="2" stroke-linecap="round"></path>
                    <path d="M70.4444444,109.583333 L77.5555556,105.416667" id="Line-10-Copy-2" stroke="#ADB4FF" stroke-linecap="round"></path>
                    <path d="M70.4166667,121.625 L74.5833333,119.375" id="Line-10-Copy-3" stroke="#8792FF" stroke-linecap="round"></path>
                </g>
            </g>
        </g>
    </g>
</svg>