<?xml version="1.0" encoding="UTF-8"?>
<svg width="32px" height="32px" viewBox="0 0 32 32" version="1.1" xmlns="http://www.w3.org/2000/svg" xmlns:xlink="http://www.w3.org/1999/xlink">
    <!-- Generator: Sketch 50.2 (55047) - http://www.bohemiancoding.com/sketch -->
    <title>linkedin-logo</title>
    <desc>Created with Sketch.</desc>
    <defs></defs>
    <g id="Page-1" stroke="none" stroke-width="1" fill="none" fill-rule="evenodd">
        <g id="Artboard-2-Copy-2" transform="translate(-469.000000, -11516.000000)" fill="#0E76A8" fill-rule="nonzero">
            <g id="linkedin-logo" transform="translate(469.000000, 11516.000000)">
                <path d="M16,32 C24.836556,32 32,24.836556 32,16 C32,7.163444 24.836556,0 16,0 C7.163444,0 0,7.163444 0,16 C0,24.836556 7.163444,32 16,32 Z M10.9769772,25.3845895 L6.35689352,25.3845895 L6.35689352,11.5778874 L10.9769772,11.5778874 L10.9769772,25.3845895 Z M8.66739745,9.69166176 L8.63633006,9.69166176 C7.08701276,9.69166176 6.08269002,8.63201961 6.08269002,7.30540507 C6.08269002,5.95205776 7.11651612,4.92113913 8.69654535,4.92113913 C10.2767168,4.92113913 11.2486924,5.95177336 11.2794044,7.30540507 C11.2794044,8.632304 10.2770722,9.69166176 8.66739745,9.69166176 Z M27.6310184,25.3845895 L23.0124277,25.3845895 L23.0124277,17.9975243 C23.0124277,16.1413731 22.3432347,14.8748362 20.6729892,14.8748362 C19.3952449,14.8748362 18.6367598,15.72929 18.3036918,16.5542382 C18.1802753,16.8488677 18.1497056,17.2609507 18.1497056,17.672465 L18.1497056,25.3843051 L13.531968,25.3843051 C13.531968,25.3843051 13.5923965,12.872579 13.531968,11.5776741 L18.1504165,11.5776741 L18.1504165,13.5350686 C18.7635176,12.5945153 19.859123,11.2528281 22.3117407,11.2528281 C25.351653,11.2528281 27.6310184,13.2250109 27.6310184,17.4677743 L27.6310184,25.3845895 Z M18.1205577,13.5966819 C18.1316577,13.5784819 18.1471577,13.5565819 18.1625577,13.5352819 L18.1625577,13.5966819 L18.1205577,13.5966819 Z" id="LinkedIn__x28_alt_x29_"></path>
            </g>
        </g>
    </g>
</svg>