<?xml version="1.0" encoding="utf-8"?>
<!-- Generator: Adobe Illustrator 16.0.3, SVG Export Plug-In . SVG Version: 6.00 Build 0)  -->
<svg version="1.2" baseProfile="tiny" id="Layer_1" xmlns="http://www.w3.org/2000/svg" xmlns:xlink="http://www.w3.org/1999/xlink"
	 x="0px" y="0px" width="8px" height="301px" viewBox="0 0 8 301" xml:space="preserve">
<circle fill="#FFB726" cx="4" cy="4" r="4"/>
<circle fill="#FFB726" cx="4" cy="26.539" r="4"/>
<circle fill="#FFB726" cx="4" cy="49.077" r="4"/>
<circle fill="#FFB726" cx="4" cy="71.615" r="4"/>
<circle fill="#FFB726" cx="3.999" cy="94.154" r="3.999"/>
<circle fill="#FFB726" cx="3.999" cy="116.692" r="3.999"/>
<circle fill="#FFB726" cx="3.999" cy="139.231" r="3.999"/>
<circle fill="#FFB726" cx="3.999" cy="161.77" r="3.999"/>
<path fill="#FFB726" d="M7.996,184.308c0,2.209-1.791,4-3.996,4c-2.209,0-4-1.791-4-4s1.791-4,4-4
	C6.205,180.308,7.996,182.099,7.996,184.308z"/>
<path fill="#FFB726" d="M7.996,206.846c0,2.209-1.791,4-3.996,4c-2.209,0-4-1.791-4-4s1.791-4,4-4
	C6.205,202.846,7.996,204.637,7.996,206.846z"/>
<path fill="#FFB726" d="M7.996,229.385c0,2.209-1.791,4-3.996,4c-2.209,0-4-1.791-4-4s1.791-4,4-4
	C6.205,225.385,7.996,227.176,7.996,229.385z"/>
<path fill="#FFB726" d="M7.995,251.923c0,2.209-1.791,4-3.995,4c-2.209,0-4-1.791-4-4s1.791-4,4-4
	C6.204,247.923,7.995,249.714,7.995,251.923z"/>
<path fill="#FFB726" d="M7.994,274.462c0,2.209-1.791,4-3.994,4c-2.209,0-4-1.791-4-4s1.791-4,4-4
	C6.203,270.462,7.994,272.253,7.994,274.462z"/>
<path fill="#FFB726" d="M7.997,297c0,2.209-1.791,4-3.994,4c-2.209,0-4-1.791-4-4s1.791-4,4-4C6.206,293,7.997,294.791,7.997,297z"
	/>
</svg>
