<?xml version="1.0" encoding="utf-8"?>
<!-- Generator: Adobe Illustrator 16.0.3, SVG Export Plug-In . SVG Version: 6.00 Build 0)  -->
<svg version="1.2" baseProfile="tiny" id="Layer_1" xmlns="http://www.w3.org/2000/svg" xmlns:xlink="http://www.w3.org/1999/xlink"
	 x="0px" y="0px" width="436px" height="8px" viewBox="0 0 436 8" xml:space="preserve">
<circle fill="#8CB2BA" cx="4" cy="4" r="4"/>
<circle fill="#8CB2BA" cx="26.526" cy="4" r="4"/>
<circle fill="#8CB2BA" cx="49.053" cy="4" r="4"/>
<circle fill="#8CB2BA" cx="71.579" cy="4" r="4"/>
<circle fill="#8CB2BA" cx="94.105" cy="4" r="4"/>
<circle fill="#8CB2BA" cx="116.631" cy="4" r="4"/>
<circle fill="#8CB2BA" cx="139.158" cy="4" r="4"/>
<circle fill="#8CB2BA" cx="161.684" cy="4" r="4"/>
<circle fill="#8CB2BA" cx="184.21" cy="4" r="4"/>
<circle fill="#8CB2BA" cx="206.737" cy="4" r="4"/>
<circle fill="#8CB2BA" cx="229.263" cy="4" r="4"/>
<circle fill="#8CB2BA" cx="251.789" cy="4" r="4"/>
<circle fill="#8CB2BA" cx="274.315" cy="4" r="4"/>
<circle fill="#8CB2BA" cx="296.842" cy="4" r="4"/>
<circle fill="#8CB2BA" cx="319.368" cy="4" r="4"/>
<circle fill="#8CB2BA" cx="341.895" cy="4" r="4"/>
<circle fill="#8CB2BA" cx="364.421" cy="4" r="4"/>
<circle fill="#8CB2BA" cx="386.947" cy="4" r="4"/>
<circle fill="#8CB2BA" cx="409.474" cy="4" r="4"/>
<circle fill="#8CB2BA" cx="432" cy="4" r="4"/>
</svg>
