<?xml version="1.0" encoding="utf-8"?>
<!-- Generator: Adobe Illustrator 16.0.3, SVG Export Plug-In . SVG Version: 6.00 Build 0)  -->
<svg version="1.2" baseProfile="tiny" id="Layer_1" xmlns="http://www.w3.org/2000/svg" xmlns:xlink="http://www.w3.org/1999/xlink"
	 x="0px" y="0px" width="435px" height="8px" viewBox="0 0 435 8" xml:space="preserve">
<circle fill="#D7D7D7" cx="4" cy="4" r="4"/>
<circle fill="#D7D7D7" cx="26.474" cy="4" r="4"/>
<circle fill="#D7D7D7" cx="48.947" cy="4" r="4"/>
<circle fill="#D7D7D7" cx="71.421" cy="4" r="4"/>
<circle fill="#D7D7D7" cx="93.895" cy="4" r="4"/>
<circle fill="#D7D7D7" cx="116.369" cy="4" r="4"/>
<circle fill="#D7D7D7" cx="138.842" cy="4" r="4"/>
<circle fill="#D7D7D7" cx="161.316" cy="4" r="4"/>
<circle fill="#D7D7D7" cx="183.79" cy="4" r="4"/>
<circle fill="#D7D7D7" cx="206.263" cy="4" r="4"/>
<circle fill="#D7D7D7" cx="228.737" cy="4" r="4"/>
<circle fill="#D7D7D7" cx="251.211" cy="4" r="4"/>
<circle fill="#D7D7D7" cx="273.685" cy="4" r="4"/>
<circle fill="#D7D7D7" cx="296.158" cy="4" r="4"/>
<circle fill="#D7D7D7" cx="318.632" cy="4" r="4"/>
<circle fill="#D7D7D7" cx="341.105" cy="4" r="4"/>
<circle fill="#D7D7D7" cx="363.579" cy="4" r="4"/>
<circle fill="#D7D7D7" cx="386.053" cy="4" r="4"/>
<circle fill="#D7D7D7" cx="408.526" cy="4" r="4"/>
<circle fill="#D7D7D7" cx="431" cy="4" r="4"/>
</svg>
