<?xml version="1.0" encoding="utf-8"?>
<!-- Generator: Adobe Illustrator 16.0.3, SVG Export Plug-In . SVG Version: 6.00 Build 0)  -->
<!DOCTYPE svg PUBLIC "-//W3C//DTD SVG 1.1 Basic//EN" "http://www.w3.org/Graphics/SVG/1.1/DTD/svg11-basic.dtd">
<svg version="1.1" baseProfile="basic" id="Layer_1"
	 xmlns="http://www.w3.org/2000/svg" xmlns:xlink="http://www.w3.org/1999/xlink" x="0px" y="0px" width="44px" height="52px"
	 viewBox="0 0 44 52" xml:space="preserve">
<g>
	<g>
		<g>
			
				<linearGradient id="SVGID_1_" gradientUnits="userSpaceOnUse" x1="21.7432" y1="34.8291" x2="14.4235" y2="21.2306" gradientTransform="matrix(0.9996 -0.0298 0.0298 0.9996 0.6931 11.2893)">
				<stop  offset="0" style="stop-color:#485D71"/>
				<stop  offset="1" style="stop-color:#5D778E"/>
			</linearGradient>
			<path fill-rule="evenodd" clip-rule="evenodd" fill="url(#SVGID_1_)" d="M14.782,32.638l0.074,1.634
				c1.429,0.221,7.794-0.025,7.043,11.95c-0.025,0.393,0.441-0.385,0.441-0.385C22.55,33.887,16.798,33.824,14.782,32.638z"/>
		</g>
		<path fill-rule="evenodd" clip-rule="evenodd" fill="#5D778E" d="M13.109,30.096c1.771-0.053,3.248,1.338,3.301,3.107
			s-1.339,3.248-3.109,3.3c-1.769,0.053-3.248-1.34-3.299-3.108C9.949,31.624,11.341,30.147,13.109,30.096z"/>
	</g>
	<g>
		
			<linearGradient id="SVGID_2_" gradientUnits="userSpaceOnUse" x1="16.9985" y1="21.2227" x2="20.9224" y2="21.2227" gradientTransform="matrix(0.9996 -0.0298 0.0298 0.9996 0.6931 11.2893)">
			<stop  offset="0" style="stop-color:#B3A47E"/>
			<stop  offset="1" style="stop-color:#F6AC1A"/>
		</linearGradient>
		<path fill-rule="evenodd" clip-rule="evenodd" fill="url(#SVGID_2_)" d="M18.884,13.889c3.407,8.706,3.417,10.45,3.57,36.122
			c0.002,0.143-0.61,0.673-0.621-0.337c-0.315-27.506-0.536-27.697-4.005-35.228C17.581,13.909,18.61,13.187,18.884,13.889z"/>
		<g>
			<circle fill-rule="evenodd" clip-rule="evenodd" fill="#F6AC1A" cx="17.418" cy="12.298" r="2.969"/>
		</g>
	</g>
	<g>
		
			<linearGradient id="SVGID_3_" gradientUnits="userSpaceOnUse" x1="21.6831" y1="40.3711" x2="21.6831" y2="14.6172" gradientTransform="matrix(0.9996 -0.0298 0.0298 0.9996 0.6931 11.2893)">
			<stop  offset="0" style="stop-color:#569FAF"/>
			<stop  offset="1" style="stop-color:#65B6C8"/>
		</linearGradient>
		<path fill-rule="evenodd" clip-rule="evenodd" fill="url(#SVGID_3_)" d="M24.161,25.652l-0.563-0.422c0,0-2.472,9.95-1.765,24.443
			c0.122,2.25,0.608,1.368,0.508-0.113c-0.1-1.48-0.525-12.184,0.272-16.825C23.559,27.214,25.325,25.947,24.161,25.652z"/>
	</g>
	
		<linearGradient id="SVGID_4_" gradientUnits="userSpaceOnUse" x1="27.7095" y1="39.5459" x2="27.7095" y2="-0.1582" gradientTransform="matrix(0.9996 -0.0298 0.0298 0.9996 0.6931 11.2893)">
		<stop  offset="0" style="stop-color:#624672"/>
		<stop  offset="1" style="stop-color:#935F6A"/>
	</linearGradient>
	<path fill-rule="evenodd" clip-rule="evenodd" fill="url(#SVGID_4_)" d="M34.243,10.131c-5.684,7.35-12.818,11.204-12.354,38.188
		c0.016,0.909,0.592,2.432,0.564,1.691c-1.112-29.068,7.511-32.566,13.572-39.445"/>
	<g>
		
			<linearGradient id="SVGID_5_" gradientUnits="userSpaceOnUse" x1="15.1812" y1="38.6582" x2="15.1812" y2="2.0205" gradientTransform="matrix(0.9996 -0.0298 0.0298 0.9996 0.6931 11.2893)">
			<stop  offset="0" style="stop-color:#82ABB1"/>
			<stop  offset="1" style="stop-color:#8499AD"/>
		</linearGradient>
		<path fill-rule="evenodd" clip-rule="evenodd" fill="url(#SVGID_5_)" d="M12.413,13.628c7.22,8.573,9.562,14.37,10.097,34.973
			c0,0-0.603,1.28-0.621,0.451c-0.418-19.581-2.461-26.902-10.794-33.994C9.535,13.731,11.094,12.062,12.413,13.628z"/>
		<g>
			<circle fill-rule="evenodd" clip-rule="evenodd" fill="#8EB2BA" cx="8.888" cy="12.42" r="3.91"/>
		</g>
	</g>
	<g>
		
			<linearGradient id="SVGID_6_" gradientUnits="userSpaceOnUse" x1="19.8848" y1="24.4688" x2="37.2109" y2="24.4688" gradientTransform="matrix(0.9996 -0.0298 0.0298 0.9996 0.6931 11.2893)">
			<stop  offset="0" style="stop-color:#62544E"/>
			<stop  offset="1" style="stop-color:#788A6F"/>
		</linearGradient>
		<path fill-rule="evenodd" clip-rule="evenodd" fill="url(#SVGID_6_)" d="M38.116,22.756c-8.056,1.285-16.385,3.005-16.482,23.608
			c-0.004,0.956,0.669,0.857,0.667-0.103c-0.017-19.393,6.063-20.79,16.002-22.17L38.116,22.756z"/>
		<g>
			<circle fill-rule="evenodd" clip-rule="evenodd" fill="#788A6F" cx="38.937" cy="23.112" r="4.442"/>
		</g>
	</g>
	<g>
		
			<linearGradient id="SVGID_7_" gradientUnits="userSpaceOnUse" x1="1.2026" y1="25.6465" x2="20.5649" y2="25.6465" gradientTransform="matrix(0.9996 -0.0298 0.0298 0.9996 0.6931 11.2893)">
			<stop  offset="0" style="stop-color:#A1475E"/>
			<stop  offset="1" style="stop-color:#CB5D77"/>
		</linearGradient>
		<path fill-rule="evenodd" clip-rule="evenodd" fill="url(#SVGID_7_)" d="M2.281,24.188c9.549,1.498,20.23-5.931,20.032,24.781
			c0,0-0.36,0.243-0.367-0.311C21.586,18.13,12.569,27.221,2.71,25.585"/>
		<g>
			<circle fill-rule="evenodd" clip-rule="evenodd" fill="#CB5D77" cx="5.284" cy="25.125" r="4.659"/>
		</g>
	</g>
	<g>
		<path fill-rule="evenodd" clip-rule="evenodd" fill="#925F8F" d="M33.825,8.506c-1.997,0.057-3.568,1.727-3.51,3.725
			c0.061,1.998,1.728,3.568,3.726,3.508c1.998-0.058,3.57-1.728,3.509-3.725C37.491,10.016,35.823,8.445,33.825,8.506z"/>
	</g>
	<g>
		<g>
			
				<linearGradient id="SVGID_8_" gradientUnits="userSpaceOnUse" x1="20.1284" y1="30.126" x2="29.6323" y2="30.126" gradientTransform="matrix(0.9996 -0.0298 0.0298 0.9996 0.6931 11.2893)">
				<stop  offset="0" style="stop-color:#63475E"/>
				<stop  offset="1" style="stop-color:#B16476"/>
			</linearGradient>
			<path fill-rule="evenodd" clip-rule="evenodd" fill="url(#SVGID_8_)" d="M31.027,34.329l-0.592-1.269
				c-4.553,3.597-8.799,1.945-8.517,14.666c0.009,0.449,0.514,0.768,0.508,0.339C22.215,35.434,25.273,37.207,31.027,34.329z"/>
		</g>
		<g>
			<circle fill-rule="evenodd" clip-rule="evenodd" fill="#B16476" cx="30.881" cy="34.255" r="3.75"/>
		</g>
	</g>
	<g>
		<g>
			
				<linearGradient id="SVGID_9_" gradientUnits="userSpaceOnUse" x1="21.835" y1="41.0449" x2="21.835" y2="-5.2275" gradientTransform="matrix(0.9996 -0.0298 0.0298 0.9996 0.6931 11.2893)">
				<stop  offset="0" style="stop-color:#AA5859"/>
				<stop  offset="1" style="stop-color:#B36321"/>
			</linearGradient>
			<path fill-rule="evenodd" clip-rule="evenodd" fill="url(#SVGID_9_)" d="M24.935,5.646l-1.861-0.255
				c-2.115,15.146-1.286,38.799-1.895,46.305h1.556C22.275,41.267,20.958,21.722,24.935,5.646z"/>
		</g>
		<g>
			<circle fill-rule="evenodd" clip-rule="evenodd" fill="#C5661A" cx="24.125" cy="4.564" r="4.258"/>
		</g>
	</g>
	<path fill-rule="evenodd" clip-rule="evenodd" fill="#65B6C8" d="M28.557,22.334c0.065,2.16-1.634,3.963-3.793,4.027
		c-2.161,0.064-3.964-1.634-4.029-3.794c-0.063-2.159,1.635-3.962,3.794-4.027S28.493,20.175,28.557,22.334z"/>
</g>
</svg>
