<?xml version="1.0" encoding="utf-8"?>
<!-- Generator: Adobe Illustrator 22.1.0, SVG Export Plug-In . SVG Version: 6.00 Build 0)  -->
<svg version="1.1" xmlns="http://www.w3.org/2000/svg" xmlns:xlink="http://www.w3.org/1999/xlink" x="0px" y="0px"
	 viewBox="0 0 174 87" style="enable-background:new 0 0 174 87;" xml:space="preserve">
<style type="text/css">
	.st0{display:none;}
	.st1{display:inline;}
	.st2{fill:#DA5372;}
	.st3{fill:none;stroke:#595857;stroke-width:0.8;stroke-linecap:round;stroke-linejoin:round;stroke-miterlimit:10;}
	.st4{fill:#949599;}
	.st5{clip-path:url(#SVGID_2_);fill:#949599;}
	.st6{fill:#231915;}
	.st7{clip-path:url(#SVGID_4_);fill:#231915;}
	.st8{clip-path:url(#SVGID_6_);fill:#231915;}
	.st9{clip-path:url(#SVGID_8_);fill:#231915;}
	.st10{fill:#717276;}
	.st11{clip-path:url(#SVGID_10_);fill:#030000;}
	.st12{clip-path:url(#SVGID_12_);fill:#231915;}
	.st13{fill:#030000;}
	.st14{fill:none;stroke:#030000;stroke-width:0.5;stroke-miterlimit:10;}
</style>
<g id="Layer_1" class="st0">
	<g class="st1">
		<g>
			<path class="st2" d="M42,56H30.6c-0.5,0-0.9-0.4-0.9-0.9c0-0.5,0.4-0.9,0.9-0.9H42c0.5,0,0.9,0.4,0.9,0.9
				C42.9,55.6,42.5,56,42,56z"/>
		</g>
		<g>
			<path class="st2" d="M36.3,86.6c-0.5,0-0.9-0.4-0.9-0.9V55.1c0-0.5,0.4-0.9,0.9-0.9c0.5,0,0.9,0.4,0.9,0.9v30.6
				C37.2,86.2,36.8,86.6,36.3,86.6z"/>
		</g>
		<g>
			<path class="st2" d="M97.4,56H75.6c-0.5,0-0.9-0.4-0.9-0.9c0-0.5,0.4-0.9,0.9-0.9h21.9c0.5,0,0.9,0.4,0.9,0.9
				C98.3,55.6,97.9,56,97.4,56z"/>
		</g>
		<g>
			<path class="st2" d="M100.4,67.5H72.2c-0.5,0-0.9-0.4-0.9-0.9c0-0.5,0.4-0.9,0.9-0.9h28.1c0.5,0,0.9,0.4,0.9,0.9
				S100.9,67.5,100.4,67.5z"/>
		</g>
		<g>
			<path class="st2" d="M86.5,86.6c-0.5,0-0.9-0.4-0.9-0.9V55.1c0-0.5,0.4-0.9,0.9-0.9c0.5,0,0.9,0.4,0.9,0.9v30.6
				C87.4,86.2,87,86.6,86.5,86.6z"/>
		</g>
		<g>
			<path class="st2" d="M68.9,86.6c-0.3,0-0.5-0.1-0.7-0.3L54.7,71c-0.3-0.4-0.3-0.9,0.1-1.3c0.4-0.3,0.9-0.3,1.3,0.1l12.8,14.5
				L85,66c0.3-0.4,0.9-0.4,1.3-0.1c0.4,0.3,0.4,0.9,0.1,1.3L69.5,86.3C69.4,86.5,69.1,86.6,68.9,86.6z"/>
		</g>
		<g>
			<path class="st2" d="M103.9,87c-0.3,0-0.5-0.1-0.7-0.3L86.1,67.2c-0.3-0.4-0.3-0.9,0.1-1.3c0.4-0.3,0.9-0.3,1.3,0.1l16.5,18.7
				L119.6,66c0.3-0.4,0.9-0.4,1.3-0.1c0.4,0.3,0.4,0.9,0.1,1.3l-16.4,19.5C104.4,86.9,104.2,87,103.9,87C103.9,87,103.9,87,103.9,87
				z"/>
		</g>
		<g>
			<path class="st2" d="M133.9,86.6h-17c-0.5,0-0.9-0.4-0.9-0.9c0-0.5,0.4-0.9,0.9-0.9h15l-5.4-6.2c-0.3-0.4-0.3-0.9,0.1-1.3
				c0.4-0.3,0.9-0.3,1.3,0.1l6.7,7.6c0.2,0.3,0.3,0.6,0.1,1C134.6,86.4,134.3,86.6,133.9,86.6z"/>
		</g>
		<g>
			<path class="st2" d="M105.3,67.8c-0.2,0-0.4-0.1-0.6-0.2c-0.4-0.3-0.4-0.9-0.1-1.3L115,54.5c0.3-0.4,0.9-0.4,1.3-0.1
				c0.4,0.3,0.4,0.9,0.1,1.3L106,67.5C105.8,67.7,105.5,67.8,105.3,67.8z"/>
		</g>
		<g>
			<path class="st2" d="M134.1,67.8c-0.2,0-0.5-0.1-0.7-0.3L123,55.7c-0.3-0.4-0.3-0.9,0.1-1.3c0.4-0.3,0.9-0.3,1.3,0.1l10.4,11.8
				c0.3,0.4,0.3,0.9-0.1,1.3C134.5,67.8,134.3,67.8,134.1,67.8z"/>
		</g>
		<g>
			<path class="st2" d="M170.5,86.6c-0.5,0-0.9-0.4-0.9-0.9V67.4h-10c-0.5,0-0.9-0.4-0.9-0.9V55.1c0-0.5,0.4-0.9,0.9-0.9h10.9
				c0.5,0,0.9,0.4,0.9,0.9v30.6C171.4,86.2,171,86.6,170.5,86.6z M160.5,65.6h9.1V56h-9.1V65.6z"/>
		</g>
		<g>
			<path class="st2" d="M170.5,61.7h-10.9c-0.5,0-0.9-0.4-0.9-0.9c0-0.5,0.4-0.9,0.9-0.9h10.9c0.5,0,0.9,0.4,0.9,0.9
				C171.4,61.3,171,61.7,170.5,61.7z"/>
		</g>
		<g>
			<path class="st2" d="M140,86.6c-0.5,0-0.9-0.4-0.9-0.9V55.1c0-0.5,0.4-0.9,0.9-0.9h10.9c0.5,0,0.9,0.4,0.9,0.9v11.4
				c0,0.5-0.4,0.9-0.9,0.9h-10v18.2C140.9,86.2,140.5,86.6,140,86.6z M140.9,65.6h9.1V56h-9.1V65.6z"/>
		</g>
		<g>
			<path class="st2" d="M150.9,61.7H140c-0.5,0-0.9-0.4-0.9-0.9c0-0.5,0.4-0.9,0.9-0.9h10.9c0.5,0,0.9,0.4,0.9,0.9
				C151.8,61.3,151.4,61.7,150.9,61.7z"/>
		</g>
		<g>
			<path class="st2" d="M155.1,72.5c-0.2,0-0.5-0.1-0.7-0.3l-4-4.6c-0.3-0.4-0.3-0.9,0.1-1.3c0.4-0.3,0.9-0.3,1.3,0.1l4,4.6
				c0.3,0.4,0.3,0.9-0.1,1.3C155.5,72.5,155.3,72.5,155.1,72.5z"/>
		</g>
		<g>
			<path class="st2" d="M155.4,72.5c-0.2,0-0.4-0.1-0.6-0.2c-0.4-0.3-0.4-0.9-0.1-1.3l4-4.6c0.3-0.4,0.9-0.4,1.3-0.1
				c0.4,0.3,0.4,0.9,0.1,1.3l-4,4.6C155.8,72.4,155.6,72.5,155.4,72.5z"/>
		</g>
		<g>
			<path class="st2" d="M164.3,72.8h-18.4c-0.5,0-0.9-0.4-0.9-0.9c0-0.5,0.4-0.9,0.9-0.9h18.4c0.5,0,0.9,0.4,0.9,0.9
				C165.2,72.4,164.8,72.8,164.3,72.8z"/>
		</g>
		<g>
			<path class="st2" d="M165.7,78.8h-20.7c-0.5,0-0.9-0.4-0.9-0.9c0-0.5,0.4-0.9,0.9-0.9h20.7c0.5,0,0.9,0.4,0.9,0.9
				C166.6,78.4,166.1,78.8,165.7,78.8z"/>
		</g>
		<g>
			<path class="st2" d="M148.1,86.2c-0.2,0-0.4-0.1-0.6-0.2c-0.4-0.3-0.4-0.9-0.1-1.3l7.1-7.9c0.3-0.4,0.9-0.4,1.3-0.1
				c0.4,0.3,0.4,0.9,0.1,1.3l-7.1,7.9C148.6,86,148.4,86.2,148.1,86.2z"/>
		</g>
		<g>
			<path class="st2" d="M162.1,86.2c-0.2,0-0.5-0.1-0.7-0.3l-7.2-7.9c-0.3-0.4-0.3-0.9,0.1-1.3c0.4-0.3,0.9-0.3,1.3,0.1l7.2,7.9
				c0.3,0.4,0.3,0.9-0.1,1.3C162.6,86.1,162.4,86.2,162.1,86.2z"/>
		</g>
		<g>
			<path class="st2" d="M155,78.3c-0.5,0-0.9-0.4-0.9-0.9v-5.3c0-0.5,0.4-0.9,0.9-0.9c0.5,0,0.9,0.4,0.9,0.9v5.3
				C155.9,77.9,155.5,78.3,155,78.3z"/>
		</g>
		<g>
			<path class="st2" d="M42,86.6H30.6c-0.5,0-0.9-0.4-0.9-0.9c0-0.5,0.4-0.9,0.9-0.9h11L66.9,56H53.7L43.4,67.2
				c-0.2,0.2-0.4,0.3-0.7,0.3H30.6c-0.5,0-0.9-0.4-0.9-0.9c0-0.5,0.4-0.9,0.9-0.9h11.8l10.2-11.2c0.2-0.2,0.4-0.3,0.7-0.3h15.6
				c0.4,0,0.7,0.2,0.8,0.5c0.1,0.3,0.1,0.7-0.1,1L42.7,86.3C42.5,86.5,42.2,86.6,42,86.6z"/>
		</g>
	</g>
	<g class="st1">
		<g>
			<path class="st2" d="M50.7,0.3C39.1,0.6,29.9,10.3,30.3,22c0.3,11.6,10,20.8,21.7,20.4c11.6-0.3,20.8-10,20.4-21.7
				C72,9.1,62.3-0.1,50.7,0.3z"/>
		</g>
		<polyline class="st3" points="150.1,41.1 133.4,41.1 133.4,1.6 150.1,1.6 		"/>
		<line class="st3" x1="134.1" y1="21.3" x2="149" y2="21.3"/>
		<line class="st3" x1="107.3" y1="21.3" x2="124.2" y2="21.3"/>
		<line class="st3" x1="124.6" y1="1.6" x2="124.6" y2="41.1"/>
		<line class="st3" x1="106.1" y1="1.6" x2="106.1" y2="41.1"/>
		<path class="st3" d="M2.5,41.1c9.4,0,9.4-9.4,9.4-9.4v-30"/>
		<path class="st3" d="M79.5,1.7v30c0,0,0,9.4,9.4,9.4c9.4,0,9.4-9.4,9.4-9.4v-30"/>
		<line class="st3" x1="23.7" y1="1.6" x2="23.7" y2="41.1"/>
	</g>
</g>
<g id="图层_2">
	<g>
		<g>
			<path class="st4" d="M30.4,67.5H30v-1.3h0.4V67.5z M30.4,65.4H30v-1.3h0.4V65.4z M30.4,63.3H30V62h0.4V63.3z M30.4,61.1H30v-1.3
				h0.4V61.1z M30.4,59H30v-1.3h0.4V59z M30.4,56.9H30v-1.3h0.4V56.9z M30.4,54.8H30v-1.3h0.4V54.8z M30.4,52.7H30v-1.3h0.4V52.7z
				 M30.4,50.6H30v-0.4h0.4V50.6z"/>
			<g>
				<g>
					<defs>
						<rect id="SVGID_1_" x="4.9" y="6.8" width="65.5" height="75.6"/>
					</defs>
					<clipPath id="SVGID_2_">
						<use xlink:href="#SVGID_1_"  style="overflow:visible;"/>
					</clipPath>
					<path class="st5" d="M38,82h-0.4v-1.3H38V82z M38,79.8h-0.4v-1.3H38V79.8z M38,77.6h-0.4v-1.3H38V77.6z M38,75.3h-0.4V74H38
						V75.3z M38,73.1h-0.4v-1.3H38V73.1z M38,70.9h-0.4v-1.3H38V70.9z M38,68.7h-0.4v-1.3H38V68.7z M38,66.4h-0.4v-1.3H38V66.4z
						 M38,64.2h-0.4v-1.3H38V64.2z M38,62h-0.4v-1.3H38V62z M38,59.7h-0.4v-1.3H38V59.7z M38,57.5h-0.4v-1.3H38V57.5z M38,55.3h-0.4
						V54H38V55.3z"/>
				</g>
			</g>
			<rect x="37.2" y="44.6" class="st6" width="0.9" height="9.2"/>
			<g>
				<g>
					<defs>
						
							<rect id="SVGID_3_" x="-3.3" y="-2.5" transform="matrix(0.4983 -0.867 0.867 0.4983 -15.8122 43.2648)" width="65.5" height="75.6"/>
					</defs>
					<clipPath id="SVGID_4_">
						<use xlink:href="#SVGID_3_"  style="overflow:visible;"/>
					</clipPath>
					
						<rect x="25.1" y="32.8" transform="matrix(0.4983 -0.867 0.867 0.4983 -27.976 45.7348)" class="st7" width="0.9" height="28.5"/>
				</g>
				<g>
					<defs>
						
							<rect id="SVGID_5_" x="11.5" y="13.6" transform="matrix(0.8672 -0.498 0.498 0.8672 -19.7479 28.8702)" width="65.5" height="75.6"/>
					</defs>
					<clipPath id="SVGID_6_">
						<use xlink:href="#SVGID_5_"  style="overflow:visible;"/>
					</clipPath>
					
						<rect x="35.3" y="35.3" transform="matrix(0.8672 -0.498 0.498 0.8672 -10.6453 31.5189)" class="st8" width="36.9" height="0.9"/>
				</g>
				<g>
					<defs>
						
							<rect id="SVGID_7_" x="7.2" y="14.9" transform="matrix(0.8672 -0.498 0.498 0.8672 -20.9663 26.8871)" width="65.5" height="75.6"/>
					</defs>
					<clipPath id="SVGID_8_">
						<use xlink:href="#SVGID_7_"  style="overflow:visible;"/>
					</clipPath>
					
						<rect x="35.6" y="44.1" transform="matrix(0.8672 -0.498 0.498 0.8672 -14.9868 32.7963)" class="st9" width="36.9" height="0.9"/>
				</g>
			</g>
			<rect x="44.5" y="40.7" class="st6" width="0.9" height="9.1"/>
			<rect x="20.2" y="44" class="st6" width="0.9" height="10.8"/>
			<rect x="54" y="44" class="st6" width="0.9" height="18.9"/>
			<path class="st4" d="M45.4,67.6h-0.4v-1.4h0.4V67.6z M45.4,65.3h-0.4V64h0.4V65.3z M45.4,63h-0.4v-1.4h0.4V63z M45.4,60.8h-0.4
				v-1.4h0.4V60.8z M45.4,58.5h-0.4v-1.4h0.4V58.5z M45.4,56.2h-0.4v-1.4h0.4V56.2z M45.4,53.9h-0.4v-1.4h0.4V53.9z M45.4,51.6h-0.4
				v-1.4h0.4V51.6z"/>
			<path class="st10" d="M37.9,36.6h-0.4v-1.3h0.4V36.6z M37.9,34.6h-0.4v-1.3h0.4V34.6z M37.9,32.5h-0.4v-1.3h0.4V32.5z M37.9,30.4
				h-0.4v-1.3h0.4V30.4z M37.9,28.3h-0.4V27h0.4V28.3z M37.9,26.2h-0.4v-1.3h0.4V26.2z M37.9,24.1h-0.4v-1.3h0.4V24.1z M37.9,22
				h-0.4v-1.3h0.4V22z M37.9,19.9h-0.4v-1.3h0.4V19.9z M37.9,17.8h-0.4v-1.3h0.4V17.8z"/>
			<path class="st10" d="M30.4,32.3H30v-1.1h0.4V32.3z M30.4,30.5H30v-1.1h0.4V30.5z"/>
			<path class="st10" d="M54.7,26.5L54.7,26.5l0.1-0.4l0.1,0L54.7,26.5z M53.9,26l-1.1-0.7l0.2-0.4l1.1,0.7L53.9,26z M52,24.9
				l-1.1-0.7l0.2-0.4l1.1,0.7L52,24.9z M50.2,23.9L49,23.2l0.2-0.4l1.1,0.7L50.2,23.9z M48.3,22.8l-1.1-0.7l0.2-0.4l1.1,0.7
				L48.3,22.8z M46.4,21.8l-1.1-0.7l0.2-0.4l1.1,0.7L46.4,21.8z M44.6,20.7l-1.1-0.7l0.2-0.4l1.1,0.7L44.6,20.7z M42.7,19.7L41.6,19
				l0.2-0.4l1.1,0.7L42.7,19.7z M40.8,18.6l-1.1-0.7l0.2-0.4l1.1,0.7L40.8,18.6z M39,17.5l-1.1-0.7l0.2-0.4l1.1,0.7L39,17.5z"/>
			<path class="st10" d="M47.2,30.6L46,30l0.2-0.4l1.2,0.7L47.2,30.6z M45.1,29.5l-1.2-0.7l0.2-0.4l1.2,0.7L45.1,29.5z M43.1,28.4
				l-1.2-0.7l0.2-0.4l1.2,0.7L43.1,28.4z M41,27.2l-1.2-0.7l0.2-0.4l1.2,0.7L41,27.2z M38.9,26l-1.2-0.7l0.2-0.4l1.2,0.7L38.9,26z"
				/>
			<path class="st10" d="M28.3,30.4L28.1,30l1.2-0.7l0.2,0.4L28.3,30.4z M30.3,29.3l-0.2-0.4l1.2-0.7l0.2,0.4L30.3,29.3z M32.4,28.2
				l-0.2-0.4l1.2-0.7l0.2,0.4L32.4,28.2z M34.4,27l-0.2-0.4l1.2-0.7l0.2,0.4L34.4,27z M36.5,25.9l-0.2-0.4l1.2-0.7l0.2,0.4
				L36.5,25.9z"/>
			<path class="st10" d="M20,27l-0.2-0.4l1.1-0.6l0.2,0.4L20,27z M21.8,26l-0.2-0.4l1.1-0.6l0.2,0.4L21.8,26z M23.7,24.9l-0.2-0.4
				l1.1-0.6l0.2,0.4L23.7,24.9z M25.6,23.9l-0.2-0.4l1.1-0.6l0.2,0.4L25.6,23.9z M27.5,22.8l-0.2-0.4l1.1-0.6l0.2,0.4L27.5,22.8z
				 M29.3,21.8l-0.2-0.4l1.1-0.6l0.2,0.4L29.3,21.8z M31.2,20.8L31,20.4l1.1-0.6l0.2,0.4L31.2,20.8z M33.1,19.7l-0.2-0.4l1.1-0.6
				l0.2,0.4L33.1,19.7z M34.9,18.7l-0.2-0.4l1.1-0.6l0.2,0.4L34.9,18.7z M36.8,17.6l-0.2-0.4l1.1-0.6l0.2,0.4L36.8,17.6z"/>
			<path class="st10" d="M45.1,32.1h-0.4V31h0.4V32.1z M45.1,30.3h-0.4v-1.1h0.4V30.3z"/>
			<path class="st4" d="M37.5,72.1l-1.2-0.7l0.2-0.4l1.2,0.7L37.5,72.1z M35.6,71l-1.2-0.7l0.2-0.4l1.2,0.7L35.6,71z M33.6,69.8
				l-1.2-0.7l0.2-0.4l1.2,0.7L33.6,69.8z M31.7,68.7L30.5,68l0.2-0.4l1.2,0.7L31.7,68.7z M29.7,67.5l-1.2-0.7l0.2-0.4l1.2,0.7
				L29.7,67.5z M27.7,66.4l-1.2-0.7l0.2-0.4l1.2,0.7L27.7,66.4z M25.8,65.2l-1.2-0.7l0.2-0.4l1.2,0.7L25.8,65.2z M23.8,64.1
				l-1.2-0.7l0.2-0.4l1.2,0.7L23.8,64.1z M21.8,62.9l-1.2-0.7l0.2-0.4l1.2,0.7L21.8,62.9z M19.9,61.8l-1.2-0.7l0.2-0.4l1.2,0.7
				L19.9,61.8z M17.9,60.7L16.7,60l0.2-0.4l1.2,0.7L17.9,60.7z M15.9,59.5l-1.2-0.7l0.2-0.4l1.2,0.7L15.9,59.5z M14,58.4l-1.2-0.7
				l0.2-0.4l1.2,0.7L14,58.4z"/>
			<path class="st4" d="M37.9,72.1l-0.2-0.4l1.1-0.7l0.2,0.4L37.9,72.1z M39.7,71l-0.2-0.4l1.1-0.7l0.2,0.4L39.7,71z M41.6,70
				l-0.2-0.4l1.1-0.7l0.2,0.4L41.6,70z M43.4,68.9l-0.2-0.4l1.1-0.7l0.2,0.4L43.4,68.9z M45.2,67.8L45,67.5l1.1-0.7l0.2,0.4
				L45.2,67.8z M47.1,66.8l-0.2-0.4l1.1-0.7l0.2,0.4L47.1,66.8z M48.9,65.7l-0.2-0.4l1.1-0.7l0.2,0.4L48.9,65.7z M50.7,64.7
				l-0.2-0.4l1.1-0.7l0.2,0.4L50.7,64.7z M52.6,63.6l-0.2-0.4l1.1-0.7l0.2,0.4L52.6,63.6z M54.4,62.6l-0.2-0.4l1.1-0.7l0.2,0.4
				L54.4,62.6z M56.3,61.5L56,61.1l1.1-0.7l0.2,0.4L56.3,61.5z M58.1,60.4l-0.2-0.4l1.1-0.7l0.2,0.4L58.1,60.4z M59.9,59.4L59.7,59
				l1.1-0.7l0.2,0.4L59.9,59.4z M61.8,58.3L61.6,58l1.1-0.7l0.2,0.4L61.8,58.3z"/>
			<path class="st4" d="M62.3,57.9L61,57.3l0.2-0.4l1.2,0.6L62.3,57.9z M60.2,56.9L59,56.4l0.2-0.4l1.2,0.6L60.2,56.9z M58.2,56
				L57,55.5l0.2-0.4l1.2,0.6L58.2,56z M56.2,55.1L55,54.5l0.2-0.4l1.2,0.6L56.2,55.1z"/>
			
				<rect x="11.6" y="59.9" transform="matrix(0.8883 -0.4593 0.4593 0.8883 -24.8426 18.4717)" class="st6" width="27.9" height="0.9"/>
			
				<rect x="20.5" y="45.9" transform="matrix(0.8998 -0.4363 0.4363 0.8998 -18.0163 14.1361)" class="st6" width="2.6" height="0.9"/>
			
				<rect x="49.5" y="46.6" transform="matrix(0.4689 -0.8832 0.8832 0.4689 -19.14 71.614)" class="st6" width="0.9" height="10.2"/>
			
				<rect x="52.8" y="45.2" transform="matrix(0.4363 -0.8998 0.8998 0.4363 -11.796 74.1439)" class="st6" width="0.9" height="2.6"/>
			
				<rect x="49.7" y="46.6" transform="matrix(0.4593 -0.8883 0.8883 0.4593 -26.631 77.2461)" class="st6" width="0.9" height="27.9"/>
			<path class="st4" d="M45.1,60.5l-0.2-0.4l1.1-0.6l0.2,0.4L45.1,60.5z M46.9,59.5l-0.2-0.4l1.1-0.6l0.2,0.4L46.9,59.5z M48.8,58.5
				l-0.2-0.4l1.1-0.6l0.2,0.4L48.8,58.5z M50.6,57.5l-0.2-0.4l1.1-0.6l0.2,0.4L50.6,57.5z M52.4,56.5l-0.2-0.4l1.1-0.6l0.2,0.4
				L52.4,56.5z M54.2,55.5L54,55.1l1.1-0.6l0.2,0.4L54.2,55.5z"/>
			<path class="st4" d="M30.2,60.5l-1.1-0.6l0.2-0.4l1.1,0.6L30.2,60.5z M28.4,59.5l-1.1-0.6l0.2-0.4l1.1,0.6L28.4,59.5z M26.6,58.5
				l-1.1-0.6l0.2-0.4l1.1,0.6L26.6,58.5z M24.8,57.5l-1.1-0.6l0.2-0.4l1.1,0.6L24.8,57.5z M23.1,56.5L22,55.9l0.2-0.4l1.1,0.6
				L23.1,56.5z M21.3,55.5l-1.1-0.6l0.2-0.4l1.1,0.6L21.3,55.5z"/>
			<g>
				<g>
					<defs>
						<rect id="SVGID_9_" x="4.9" y="6.8" width="65.5" height="75.6"/>
					</defs>
					<clipPath id="SVGID_10_">
						<use xlink:href="#SVGID_9_"  style="overflow:visible;"/>
					</clipPath>
					<path class="st11" d="M37.7,82.4L4.9,63.5V25.7L37.7,6.8l32.8,18.9v37.8L37.7,82.4z M6.7,62.5l31,17.9l31-17.9V26.7l-31-17.9
						l-31,17.9L6.7,62.5L6.7,62.5z"/>
				</g>
				<g>
					<defs>
						
							<rect id="SVGID_11_" x="4.7" y="-11.4" transform="matrix(0.4978 -0.8673 0.8673 0.4978 -4.1204 45.7873)" width="65.5" height="75.6"/>
					</defs>
					<clipPath id="SVGID_12_">
						<use xlink:href="#SVGID_11_"  style="overflow:visible;"/>
					</clipPath>
					
						<rect x="21.5" y="17.3" transform="matrix(0.4978 -0.8673 0.8673 0.4978 -19.9739 36.9177)" class="st12" width="0.9" height="36.9"/>
				</g>
			</g>
			<rect x="35.7" y="28.7" transform="matrix(0.8689 -0.495 0.495 0.8689 -7.8147 28.6748)" class="st6" width="29" height="0.9"/>
			<rect x="62.1" y="39.5" class="st6" width="0.9" height="27.6"/>
			
				<rect x="28.6" y="13.1" transform="matrix(0.4978 -0.8673 0.8673 0.4978 -12.7929 41.0153)" class="st6" width="0.9" height="36.9"/>
			
				<rect x="12.8" y="28.3" transform="matrix(0.8891 -0.4578 0.4578 0.8891 -11.275 10.8874)" class="st6" width="8.1" height="0.9"/>
			<path class="st13" d="M6.1,53.9c2.1,1.3,4.3,2.5,6.5,3.8c0.6,0.3,1.1-0.5,0.5-0.8c-2.1-1.3-4.3-2.5-6.5-3.8
				C6,52.7,5.5,53.6,6.1,53.9L6.1,53.9z"/>
			
				<rect x="11.8" y="53.8" transform="matrix(0.8832 -0.469 0.469 0.8832 -22.9502 16.385)" class="st6" width="19.2" height="0.9"/>
			<rect x="12.6" y="30.4" class="st6" width="0.9" height="36.7"/>
		</g>
	</g>
</g>
<g id="图层_3">
	<g>
		<g>
			<path class="st13" d="M93,52c-0.5,0-2.2-0.9-2.8-1.6c-0.5-0.5-0.6-0.9-1.2-1.3c-0.6-0.1-1.4,0.8-1.9,1.2
				c-0.1,0.1-1.2,1.1-1.6,1.1c-0.3,0.2-1,1.2-1.2,1.2c-0.6,0-0.6-1.3-1.7-1.6c-0.1-0.3,0.2-0.3,0.5-0.4c0.7-0.6,1.8-0.7,2.6-1.4
				c0.4-0.1,1.1-0.9,1.7-0.9c0.2-0.1,1-0.7,1-0.8s-0.1-0.5-0.1-0.6c0-1.1,0.4-2.9-0.6-2.9c-0.4,0-0.6,0.3-1,0.4
				c-0.5,0.2-1,0.2-1.5,0.3c-0.1,0-0.8,0.3-0.9,0.3c0,0-0.3,0.1-0.4,0.1c-0.5,0.1-0.6-0.5-0.6-0.7c0-0.1,0-0.2,0.1-0.2
				c0.8-0.2,1.6-0.4,2.3-0.5c0.7-0.1,1.4-0.5,2.4-0.5c0.9-0.2,0.2-1.6,0.8-1.6c0.1-0.1,0.6,0.3,0.7,0.5c0.3,0.2,0.6,0.2,0.9,0.5
				c0,0.8-0.6,1.4-0.6,2.1s-0.1,1.2-0.1,1.6c0,0,0.1,1,0.1,1.4c0.1,1.3,1.7,2.7,3.1,2.7c0.5,0,1.3,0.2,1.9,0.2l0.1,0.1h1.8
				c0.2,0.1,0.4,0.1,0.6,0.1c1.2-0.1,2.6-0.1,3.9-0.2c1.1-0.1,1.8-0.2,2.9-0.2h0.5c1.1-0.3,2.2-0.3,3.2-0.6c0.5,0,1.1-0.4,1.7-0.4
				c0.1,0,0.4,0.1,0.4,0.2c0,0.2-0.6,0.5-0.8,0.6c-1,0.6-1.2,1.1-2,2.2c-0.1,0.2-0.2,0.9-0.5,0.9h-1.9c-0.2,0.1-0.3,0.1-0.4,0.1
				c-0.3,0-0.5-0.1-0.6-0.1s-0.4,0-0.6,0.1c-1.3,0.1-1.5-0.1-1.9-0.1c-0.1,0-0.3,0.1-0.4,0.1H99c-1-0.5-2,0.2-4.1-0.7
				c-0.2-0.1-1.5-0.5-1.7-0.6L93,52z M84.6,38.2c0.4,0,0.6,0.3,0.8,0.4c0.7,0,0.8,0.5,1,0.5h0.1c0,0,0.4,0.2,0.5,0.6
				c0.1,0.7-0.3,1.1-0.8,1.6c-1.2,0.1-1.1-0.6-1.3-1.1c-0.2,0.1-0.5-0.7-0.6-1c-0.1-0.1-0.3-0.3-0.2-0.4
				C84,38.3,84.3,38.2,84.6,38.2z M86.3,33.8c0.6,0,1.2,0.3,1.8,0.6c0.7,0.2,1.6,0.6,1.6,1.4c0,0.4-1.1,1.3-1.3,1.1
				c-1.5-0.5-0.9-0.6-1.2-1.2c-0.6-0.7-0.7-1-1.2-1.6C86,33.8,86.2,33.8,86.3,33.8z M90.2,39.2c0.1,0,0.8,0.1,0.9,0.1
				c0.7-0.3,1-1.2,1.3-1.7c0.6-1,0.9-2.3,0.9-3.4c0-0.2-0.1-0.3-0.1-0.6c0-0.1,0-0.2,0.2-0.2c0.1,0,0.5,0.3,0.6,0.5
				c0.1,0.1,0.7,0.6,0.8,0.6c1.1,0.6,0.6,1.4,1.7,1.4c0.4,0,0.6-0.4,0.6-0.6c0-0.6,0.2-1.1,0.2-1.6c0-0.3-0.1-0.9-0.1-1.5
				c0.1,0-0.4-0.5-0.4-0.7c0-0.3,0-0.4,0.4-0.4c0.6,0,0.9,0.4,1.5,0.6c0.3,0.1,1.7,0.2,1.7,0.6c0,0.5-0.6,0.7-0.6,1.2
				c0,0.7,0.1,1.3,0.1,2l0.3,0.3c0,0,0.6,0.1,0.9,0.1c1.4,0.1,1.8-1.7,2.1-1.7c0.5,0,0.8,0.5,1.1,0.6c0.4,0.1,0.6,0.5,0.6,0.8
				c0,1-2,0.7-2.4,1H101c-0.9,0-0.8,1.1-0.9,1.2v0.1c0,0.2,0.1,1,0.1,1.2c0,0.2,0.4,0.5,0.5,0.5h3.2c0.1,0,0.4,0.1,0.5,0.1
				c0.5-0.2,1.1-0.7,1.2-1c0-0.1,0.5-0.3,0.5-0.4c0.2-0.3,0.2-0.4,0.6-0.6c0.4,0,1.2,0.7,1.6,1c0.5,0.3,1,0.5,1,1
				c0,0.2-0.1,0.5-0.2,0.5h-1.9c-0.1,0-0.4,0.2-0.5,0.2c-1,0-1.7-0.1-2.9-0.1c-0.1,0-0.3,0.1-0.4,0.1c-0.6,0-1.9,0-1.9,0.1
				c-0.8,0-1.3-0.1-1.4-0.2c-0.7,0-1.6,0.1-2.3,0.1c-2,0-3-0.2-4.3-0.2c-0.6,0-0.9,0.3-1.5,0.3c-1.3,0-2.1,0.1-2.1-0.6
				C89.7,39.2,89.8,39.2,90.2,39.2z M96.5,39.2c0.4,0,0.6,0,0.9-0.4c0-0.3,0.1-1.4,0.1-1.6c0-0.7-0.3-0.6-0.6-0.8
				c-0.6,0-1.2,0-1.7,0.2c-0.4,0-0.6,0.6-1,0.9c-0.5,0.6-1.6,1-1.6,1.5C92.5,39.2,95.8,39.2,96.5,39.2z M93.6,44.1
				c-0.1-0.5-0.1-0.7-0.1-1.2c0-0.3,0.1-0.6,0.6-0.6c0.6,0,1,0.6,1.7,0.6c0.2,0,0.6-0.1,0.7-0.1c0.9,0,1.9-0.1,2.5-0.1
				c0.4,0,0.8,0.1,1.2,0.1c0.8,0,2.3,0.1,2.6-0.5c0.2-0.3,0.6-1.1,0.9-1.1c0-0.1,0.6,0.2,0.8,0.5c0.5,0.2,1.5,0.6,1.5,1.1
				c0,0.5-0.5,0.6-0.6,0.8c0.1,0.3-0.1,0.5-0.1,0.7c-0.1,0.8,0.2,1.7,0.2,2.1c-0.1,0-0.1,0.6-0.1,0.8c0,1-1,1.7-1.9,1.7
				s-0.9-0.9-1.4-1.4c-1.3-0.1-2-0.3-3.1-0.3c-3,0-2.9,0-3.7,0.5c0,0.1,0,0.3,0.1,0.4c0,0.6-0.6,1.1-1.3,1.1c-0.4,0-0.6-0.4-0.8-0.6
				C93.4,47,93.2,45.7,93.6,44.1z M96,46.9h5c0.6,0,1.4,0,1.6-0.6c0-0.4,0.1-0.8,0.1-1.3l-0.1-0.2v-1.2c0-0.3-0.5-0.3-1-0.3
				c-0.2,0-3.6,0.2-3.7,0.2l-0.2-0.1c-1.2,0-1,0.2-1.4,0.2H96c-0.1,0-0.3,0-0.4,0.2c-0.1,0.9-0.1,1.6-0.1,2.7
				C95.6,46.5,95.7,46.9,96,46.9z"/>
			<path class="st13" d="M112.5,52.2c0.1,0,0.5-0.4,0.6-0.4c0.6-0.4,1-0.7,1.5-1.3c0.5-0.5,0.8-0.7,1.1-1.3c0.4-1.1,0.6-1.8,0.6-2.9
				l-0.1-0.2h-0.7c-0.3,0-0.4-0.3-0.6-0.4c0,0.5-1.6,0.6-2.3,0.6c-0.6,0-0.6,0-0.6-0.6c0-0.6,0.6-0.5,1-0.5c1,0,1.5,0.1,1.9,0.1
				c0.3,0,1-0.2,1.5-0.4c0.4-1,0.4-1,0.4-2c0-0.5-0.1-0.9-0.7-0.8c-0.2,0-1.6,0.2-1.7,0.2c-1.2,0-1.2,0.2-1.8,0.2
				c-0.6,0-0.8-0.1-0.8-0.5s0.4-0.5,0.8-0.5c0.9,0,1.8,0.1,1.9,0.3c0.2,0.1,0.3-0.7,0.3-1.2c0-0.1,0.2-0.3,0.2-0.4
				c0.2-0.6,0.2-1.2,0.6-1.7v-2.6h-2.3c-0.4,0-0.6-0.4-0.6-0.6c0-0.2,0.1-0.3,0.2-0.3c0.4,0,0.6,0.3,0.8,0.3c0.2,0,0.4-0.2,0.6-0.2
				c0.4-0.1,0.7-0.1,1.1-0.1c0.4,0,0.6,0.1,0.9,0.1c0.2-0.1,0.6-0.1,0.7-0.2c0.3-0.2,0.4-0.6,0.4-0.8v-0.9c0-0.5-0.1-0.9-0.4-1.3
				c-0.2-0.2-0.6-0.3-0.6-0.5c0-0.3,1.3-0.3,1.3-0.3c0.6,0.2,2-0.1,2,0.7c0,0.4-0.2,0.5-0.5,0.6l0.1,1.8c0,0.4,1.4,0.4,1.5,0.4
				c0-0.1,0.6-1.1,0.7-1c0.3,0,1.1,1,1.1,1.5c0,0.6-1.9,0-1.9,0.7c0,0.3,0.1,0.6,0.1,0.8c0,0.8-0.4,1.5-0.6,2.2
				c0,0.5-0.5,0.6-0.5,0.8c0,0.3-0.3,0.6-0.4,0.6c0,0.2,0.4,0.5,0.9,0.5c0.6-0.1,1-0.9,1.2-0.9c0.4,0,0.6,0.8,0.6,1
				c0,0.2,0,0.3-0.2,0.4c-0.2,0-1.2,0.1-1.4,0.1c-0.1,0-0.5,0.2-0.6,0.2c-1,0-1.3,0.1-1.3,0.7c0,0.2,0,0.4,0,0.5
				c0,0.4,0,1.6,0.6,1.6c0.5,0,0.9,0,1.3-0.2c0.2-0.1,0.6-0.6,0.7-0.6c0.2,0,0.2,0.3,0.2,0.4c0,0.6,0.5,0.7,0.5,1.2
				c-1,0.1-1.3,0.1-2,0.3c-0.6,0.1-0.8,0-1.2,0.3c0,0.2-0.2,0.6-0.3,0.8c-0.4,0.7-0.5,1.9-1.2,2.8c-0.9,0.7-0.9,0.7-1.1,1.1
				c-0.9,0.6-1.5,1.2-3,2c-0.9,0.3-1.7,1-2.8,1c-0.1-0.1-0.1-0.1-0.1-0.2C110.4,53.2,111.5,53.1,112.5,52.2z M116.8,41.6
				c1.2,0,1.1-0.5,1.3-1.1c0.1-0.7,0.5-1.3,0.5-2c0-0.4-0.1-0.7-0.2-1.1c-0.1-0.3,0.6-0.6,0.8-0.7l0.1-0.1c-0.1-0.3-0.6-0.5-0.8-0.5
				c-0.1,0-0.1,0.1-0.2,0.1c-0.2,0-0.4-0.1-0.6-0.1c-0.3,0-0.5,0.2-0.6,0.2l-0.1-0.1c-0.2,0.1-0.8,0.1-0.8,0.5c0,0.2,0.1,0.8,0.2,1
				c0,0,0.2,0.3,0.2,0.4c0,0.6,0.2,0.8,0.4,1.2v1.2c0,0.2-0.6,0.6-0.6,1C116.2,41.5,116.5,41.6,116.8,41.6z M118.6,51.4
				c0.2-0.2,0.6-0.3,0.6-0.5c0-0.1,0.4-0.6,0.4-0.6c0.3-0.5,0.9-1,0.9-1.3c0-0.5,0.6-0.8,0.6-1c0.6-0.9,0.8-1.9,1.2-2.9
				c0-0.1,0.5-1,0.5-1c0.1-0.3,0.2-0.6,0.2-1.2c0.2-1,0.2-1.9,0.4-2.9c0-0.1,0.1-0.4,0.1-0.5l-0.1-1.1l-0.2-0.2c-0.1,0-0.2,0-0.2,0
				c-0.4,0-0.8-0.2-0.8-0.6c0-0.2,0.2-0.2,0.4-0.2c0,0,0.4,0,0.6,0.1c0.6,0.2,0.6-1.7,0.6-3.1c0-0.6-0.1-1.1-0.6-1.5
				c-0.2-0.2-0.6,0-0.7-0.3c0.1-0.1,0.2-0.2,0.2-0.2c0.7,0,1.2-0.4,1.9-0.4c0.7,0.2,1,0.6,1,1.2c0,0.3,0,0.4-0.1,0.6
				c0,0.3-0.3,0.5-0.3,0.8c0,0.1,0.1,0.6,0.1,0.6c0,0.3-0.1,0.6-0.1,1c0,0.4,0.3,0.7,0.6,0.7c1.4,0,1.1-1.3,1.9-1.3
				c0.1,0.1,0.5,0.4,0.6,0.5c0,0.2,0.6,0.6,0.6,0.8c0,0.2-0.2,0.6-0.2,0.8c0,0.8-0.2,1.5-0.2,2.2c0,0.7,0,1.4-0.2,1.6
				c0,0.1,0,0.2,0.1,0.3c0,1,0.1,2.1-0.2,3.1c-0.1,0.3-0.3,0.6-0.3,0.8c0,0.2,0,0.5-0.2,0.6c0,0.2,0.1,0.3,0.1,0.5
				c0,1.3-1.4,2.9-1.7,3c-0.3,0.3-0.3,0.5-0.6,0.6c-0.5,0-0.6,0.4-1,0.4c-0.5,0-0.4-0.6-0.6-0.8c-0.3-0.2-0.9-0.6-0.9-0.6
				c0-0.5,1.5-0.4,2-0.8c0.1-0.2,0.4-0.7,0.6-0.8c0-0.6,0.4-1,0.4-1.5c0-0.6,0.2-1.2,0.3-1.7c0-1.2,0.4-2.4,0.4-3.6
				c0-0.9,0.1-2.1,0.1-2.4c0-0.2,0.1-0.5-0.2-0.6c-1.7,0-1.4,0.3-1.4,1c-0.1,0.2-0.2,0.5-0.2,1.2c0,0.6-0.6,2.2-0.6,2.2
				c0,1.1-0.2,1.3-0.4,2c0,0.6-0.3,0.7-0.6,1l0.1,0.2c-0.3,0.7-1.1,1.9-1.1,2.5c0,0.2-0.6,0.8-1.2,1.6c-0.2,0.2-0.1,0.4-0.2,0.6
				c0,0.2-0.7,0.5-0.7,0.7c-0.3,0.5-1,0.8-1.6,1.3c-0.1,0.1-0.7,0.3-0.9,0.6c-0.2,0-0.5,0-0.5-0.1C117.2,52.4,118.2,51.8,118.6,51.4
				z M129.8,42.2C129.8,42.3,129.8,42.3,129.8,42.2L129.8,42.2c0,0.1-0.4-0.3-0.4-0.5c-0.1-0.6,0.9-0.2,0.9-0.8v-0.2
				c0-0.5,0.3-0.8,0.3-1.3c0-0.4,0.1-0.9,0.5-1c0-0.1-0.1-0.3-0.1-0.7l-0.1-0.1c0-0.6,0.1-1-0.2-1.5c-0.2,0-0.4,0-0.6,0
				c-0.6,0-1.3-0.1-1.3-0.7c0-0.6,2.1,0.1,2.6-0.9c0.1-0.3,0-0.3,0.2-0.5c0-2.1-0.6-1.6-0.6-2.2c0-0.5,1.1-0.6,1.7-0.6
				c0.4,0,1.7,0.3,1.7,0.6c0,0.3-0.3,0.3-0.4,0.6c0,0.6-0.2,1.4-0.2,1.7c0,0.8,0.8,0.7,1.7,0.7c0.3-0.2,0.6-0.6,1.1-0.6
				c0.4,0,1.3,0.8,1.3,1.2c0,0.2-0.2,0.2-0.4,0.2c-0.4,0-0.6-0.1-1.1-0.1c-0.1-0.1-0.4,0.2-0.6,0.2c-0.4,0.1-0.6,0.1-0.9,0.1
				c-1.7,0-1.9-0.1-2.6-0.1c-0.9-0.1-0.6,0.6-0.6,0.7c0,0.2,0.4,1.2,0.4,1.4c0,0.6,0.4,1.3,0.4,1.9c0,0.4-0.6,0.9-0.6,1.1
				c0,0.2,0.2,0.2,0.4,0.2c0.5,0,0.3-0.2,0.5-0.5c0.7-0.9,1.4-1.7,1.6-2.7c0-0.1,0.2-0.8,0.2-0.9c0-0.3,0.1-0.6,0.9-0.6
				c0.3-0.2,1.4,1,1.4,1.2c0,0.2-0.2,0.3-0.4,0.5c-0.5,0.7-0.8,1.3-1.5,1.8c-0.3,0.3-0.8,0.6-0.8,0.9c0,0.2,0.8,0.3,1,0.3
				c1,0,1.2-0.4,1.6-0.8c0.2,0,0.4-0.2,0.5-0.1c0.2,0,1,0.8,1,1.1c0,0.1-0.4,0.4-0.4,0.4h-1.2l-0.2-0.1c-0.1,0.1-0.5,0.2-0.6,0.2
				c-0.3,0-0.4-0.1-0.6-0.1c-0.1,0-0.6,0.2-0.6,0.2c0,0.6-0.5-0.2-0.5,2c0,0.4-0.1,0.9,0.4,0.9c0.9,0,1.4-0.5,2-0.5
				c0,0.1,0.6,0.1,0.8,0.1c0.2,0.1,0.8,0.6,0.8,0.8c0,0.2-0.3,0.5-0.6,0.5c-0.3,0-0.8,0-1-0.2c-0.2-0.2-0.1-0.2-0.2-0.2
				c-0.4,0-0.6,0.3-0.8,0.4c-0.2,0-0.8,0.2-1,0.2c-0.4,0-0.6,0-0.6,0.3c0,1.3,0.2,1.7,0.2,2.4c0,0.5-0.1,0.6-0.1,0.8
				c0.1,0.1,0.1,0.9,0.1,1.4h-0.2V51c0.2,0,0.2,0.3,0.2,0.4c-0.6,1.1-0.5,0.8-0.7,1c0.1,0.1-0.6,0.6-1.3,0.8
				c-0.3-0.2-0.6-0.6-0.6-0.8c0-1.2,0.3-2.2,0.3-3.4c0-0.6,0.1-1.7,0.1-1.8c0-1-0.9-1.1-1.7-1.1c-0.2,0-0.3,0-0.5,0
				c-0.3-0.1-0.5-0.3-0.5-0.5c0-0.1,0.1-0.3,0.1-0.4c0,0,0.1,0.1,0.5,0.1s0.7-0.2,1.1-0.2c1.2,0,1-0.5,1-1.3c0-0.1,0.1-1.7-0.5-1.7
				L129.8,42.2C129.9,42.3,129.9,42.3,129.8,42.2C129.9,42.2,129.9,42.2,129.8,42.2L129.8,42.2z"/>
			<path class="st13" d="M138.2,52.4c1.7-1,3.1-1.8,4-4.2c0.1-0.2,0.4-0.4,0.5-0.6c0.2-0.6,0.4-1.2,0.6-1.7c0.1-0.6,0.2-1.7,0.5-2
				c-0.1-1.3,0.3-1.7,0.3-2.4c0-0.2-0.1-0.5-0.1-0.6c0-0.1,0-0.2,0.1-0.3c0-0.7-0.1-1.2-0.1-1.6c0.2-0.3-0.2-0.6-0.2-0.7
				c0-0.2,0.1-0.3,0.1-0.6s-0.2-1.7-1.2-2c0-0.2,0.2-0.2,0.4-0.2c0.7,0.4,1.6,0.2,2.3,0.5c0.2,0.2,0.3,0.2,0.6,0.2
				c0.4,0,0.5,0.7,0.7,0.6c0.7,0,1-0.3,1.8-0.3c0.8,0,2.8,0.1,2.8-0.5v-2.1l-0.1-0.2l0.1-0.2c0,0-0.1-0.7-0.1-0.9
				c-0.1,0-0.4-0.2-0.5-0.2c0.1,0,0.3-0.2,0.3-0.2c0-0.9-1.6-1.6-1.6-1.8c0-0.2,0.1-0.2,0.2-0.3c0.8,0,1,0.1,3,0.1
				c0.1,0.1,0.6,0.5,0.8,0.5c0.2,0.1,0.2,0.4,0.6,0.5c0.9,0.4,1.2,0.4,1.2,0.9c0,0.6-0.4,0.5-0.6,0.8c0.1,0.2-0.1,0.2-0.2,0.4
				c0,0.2,0.6,0.4,0.8,0.6c0.2-0.1,0.4-0.2,0.6-0.2h0.5c0-0.2,0.7,0.1,1.7-0.3c0.5-0.2,0.8-1,1.4-1c0.4,0,0.6,0.6,1.1,0.8
				c-0.1,0.2,0.6,0.4,0.6,0.6c0.1,0.2,0.1,0.3,0.1,0.5c0,0.5-0.4,0.3-0.4,0.6c0,0.4,0.7,0.6,0.9,0.8c1,0.6,2.9,1.1,2.9,2.4
				c0,0.4-0.4,0.8-0.7,0.8c-1.1,0-2.2,0.7-3.4,0.7l-0.2-0.3V38c0-0.3-0.2-0.7-0.6-0.8c-2,0-1.9,0.1-2.5,0.1c-1.4,0-3.5-0.3-3.5,0.8
				c0,0.2,0.1,1.1,0.1,1.2l0.1,0.1c0,0,0.6,0.1,1,0.1c1.1,0.1,1.7-1.2,2.5-1.2c0.1,0,0.2,0,0.2,0.1l1.1,1c0.1,0.5-0.8,0.6-1,0.6
				c-1.6,0-2.7,0.2-3.7,0.4v0.5c0,0.3,0.6,0.3,0.7,0.3c0.6,0,1.1-0.1,1.7-0.1c0.4,0,0.6,0.1,0.8,0.1c0.6-0.2,0.8,0,1.4-0.3h1.1
				c0.2,0.6,1.2,0.8,1.2,1.5c0,0.3-0.2,0.5-0.4,0.5c-0.5,0-0.8-0.2-1.1-0.2c-0.1,0-1.2,0.1-1.3,0.1c-2.3,0-3.1,0.1-6.1,0.1
				c-0.1-0.1-0.2-0.3-0.2-0.4l-0.2-1.3c-0.1-0.2-0.1-0.5-0.3-0.6c-0.8,0-1.4,0.2-2.1,0.2c-0.5,0-1,0-1.1,0.1
				c-1.1,0.2-1.1-0.7-1.7-0.7c-0.4,0-0.4,0.7-0.5,0.9v0.6c0,1-0.1,1.7-0.3,2.6c0,0.6-0.4,0.9-0.4,1.3V46c0,0.1-0.2,0.5-0.2,0.6h0.3
				c0,0,0.6-0.5,0.9-0.6c0.2-0.2,0.2-0.5,0.5-0.6c0.6-0.6,1.1-1.3,1.5-2c0.2-0.2,0-0.7,0.6-0.7c0.2,0,1,0.6,1,0.7s-0.4,0.5-0.4,0.6
				c0,0.1,0,0.3,0.8,0.3c0.3-0.1,0.6-0.2,0.8-0.2c0.6-0.6,1-0.3,1.3-0.6c0.3,0,0.6,0.1,0.6,0.2l1.1,0.9v0.2c-0.6,0.3-1,0.8-1,1
				c0,0.1-0.5,0.4-0.5,0.5c0,0.1-0.8,1.1-1.3,1.2c-0.1,0.2-0.8,0.7-0.8,1.2c0,0.1,0.2,0.6,0.4,0.6c0.8,0.1,1.1,0.4,2,0.4
				c0.8,0.3,1.2-1.3,1.2-1.9c0.1,0,0-0.1-0.1-0.2c0.3-0.3,0.4-1.1,0.4-1.8v-2.1c0-0.1,0.1-0.1,0.2-0.1c0.3,0,0.6,0.2,0.6,0.3
				c0.6,0,0.9,0.3,1.6,0.3c0.6,0,1.3-0.4,1.7-0.7c0.6,0,1.5,0.2,1.5,0.7c0,0.6-0.6,0.6-0.4,1.2c0,0.1-0.4,0.6-0.4,0.6
				c-0.1,1,0.2,0.3,0.7,0.7c0.8,0,1.1-0.5,1.5-1h0.1c0.3,0.7,1,1.4,1.5,2.1c0,0.5-1.5,0.6-1.9,0.6c-1.5,0-2.9-0.2-3.2-0.2
				c-0.6,0-0.6-0.9-0.6-1.4c0-0.6,0.2-1,0.2-1.6c-0.2-0.2-0.4-0.3-0.6-0.3c-0.6,0-1,0.1-1,0.6c0,0.6-0.2,1.3-0.7,2.4
				c0,0.1-0.5,0.5-0.5,0.6c-0.2,0.3-0.1,0.4-0.4,0.6c0,0.5,0,0.6,0.5,0.6c0.2,0,0.6-0.1,0.8-0.1c0.1,0,0.2,0.2,0.2,0.2
				c0.2,0,0.6,0,0.8,0s0.6,0,0.7,0.2h1.9c0.1,0,0.5-0.2,0.6-0.2c0.6,0,1,0.1,1.4,0.1c0.3,0,0.5-0.1,0.6-0.1c0.3,0,0.5,0.1,0.6,0.1
				c0.6,0,1.7-0.2,2-0.2c0.1,0.1,1.5-0.3,1.5,0.2c0,0.3-0.9,0.5-1.1,0.5c0,0.1-0.9,0.5-1.4,0.8c-0.6,0.3-1.2,0.9-1.6,0.9
				c0-0.1-3.6-0.2-6.3-0.2c-0.1,0-0.6-0.1-0.8-0.1c-0.2,0-0.4,0-0.6,0c-0.2,0-0.3,0-0.5-0.1c-0.5-0.6-1.3-0.6-1.9-1
				c-0.1-0.2-0.6-0.3-1-0.6c-0.6-0.4-0.8-0.4-1.4-0.8c-0.8-0.1-1,0.6-1.6,0.9c-0.4,0.2-0.8,0.5-1.1,0.7c-0.2,0.1-0.4,0.1-0.6,0.2
				c-1,0.4-1.1,0.6-1.7,0.8c-0.4,0-1.7,1.3-3.3,1.3v-0.1l0.5-0.4c1.3-0.6,2.4-1.3,3.5-2c0.6-0.4,0.7-0.8,1.2-1.2
				c0.6-0.4,1.4-1.1,1.4-1.2c0-0.5-0.9-0.8-0.6-1.2l-0.6-0.5h-0.3l-1.7,1.4c-0.3,0.3-1.2,0.1-1.2,0.6c-0.3,0.5-0.4,0.5-0.4,0.6
				c-0.9,0.4-1.6,1.6-2.9,2.3c-0.2,0.2-1.2,0.8-1.4,0.9c-0.6,0.2-1.5,0.9-2.2,0.9l-0.2-0.1C136.9,53.2,137.9,52.5,138.2,52.4z
				 M146.8,39.2h1.8l0.1-0.1c0.1,0,0.3,0.1,0.3,0.1h1.6c0,0,0.5-0.2,0.6-0.3c0-0.6,0.1-1.6-0.6-1.6c-0.1,0.1-0.6,0.1-0.9,0.1
				c-0.7,0-1.5,0.3-1.8,0.3c-1.5,0-1.6-0.1-1.6,1c-0.1,0.1-0.1,0.2-0.1,0.2C146.5,38.9,146.7,39.2,146.8,39.2z M148.9,47
				c0.6,0,0.8-0.6,1-0.8c0.2-0.2,0.6-0.4,0.6-0.7c0-0.1,0.4-0.4,0.4-0.5c0-0.2,0-0.3-0.1-0.5c-0.7,0-1.1,0.1-1.7,0.1
				c-0.3,0.4-1.4,0.4-1.6,1.1C147.5,46.2,148.4,47,148.9,47z M154.1,35.4l0.8,0.5c0.2,0,0.8-0.1,1.4-0.1c0.1,0,0.8-0.2,0.8-0.2
				c0.6,0,1.2-0.1,1.5-0.1c1,0,1.6-0.5,1.6-0.7c-0.1-0.2-0.5-0.4-0.6-0.4c-0.1,0-0.6,0.1-0.6,0.1c-0.2-0.1-0.5-0.1-0.6-0.1
				c-0.3,0-2,0.1-2.3,0.1c-0.3,0-1.9-0.1-1.9,0.6C154,35.2,154,35.4,154.1,35.4z"/>
		</g>
		<g>
			<path class="st13" d="M87.7,60.4V61h-1.6v3.4h-0.6V61H84v-0.5L87.7,60.4L87.7,60.4z"/>
			<path class="st13" d="M88.5,60.4h0.6v1.7h2.4v-1.7h0.6v3.9h-0.6v-1.8h-2.4v1.8h-0.6V60.4z"/>
			<path class="st13" d="M93.3,60.4h3.3V61h-2.8v1.2h2.6v0.5h-2.6v1.3h2.8v0.5h-3.4L93.3,60.4L93.3,60.4z"/>
			<path class="st13" d="M99.7,60.4h2.1c0.4,0,0.6,0,0.8,0.1c0.5,0.2,0.6,0.5,0.6,0.9c0,0.3-0.1,0.5-0.2,0.6
				c-0.1,0.2-0.3,0.3-0.5,0.4c0.2,0.1,0.3,0.2,0.4,0.3c0.1,0.1,0.2,0.3,0.2,0.5v0.6c0,0.2,0,0.3,0,0.4c0,0.1,0.1,0.2,0.2,0.3v0.1
				h-0.7c0,0,0-0.1-0.1-0.1c0-0.1,0-0.2,0-0.3v-0.6c0-0.3-0.1-0.5-0.4-0.6c-0.1-0.1-0.3-0.1-0.6-0.1h-1.4v1.7h-0.6L99.7,60.4
				L99.7,60.4z M101.8,62.3c0.3,0,0.6-0.1,0.6-0.2c0.2-0.1,0.3-0.3,0.3-0.6c0-0.3-0.1-0.5-0.4-0.6c-0.1-0.1-0.3-0.1-0.5-0.1h-1.5
				v1.4L101.8,62.3L101.8,62.3z"/>
			<path class="st13" d="M108.2,61.1c0.3,0.4,0.5,0.8,0.5,1.3c0,0.6-0.2,1.1-0.6,1.5c-0.4,0.5-1,0.6-1.7,0.6c-0.7,0-1.3-0.2-1.7-0.6
				c-0.4-0.4-0.6-0.8-0.6-1.5c0-0.6,0.2-1,0.5-1.4c0.4-0.5,1-0.7,1.7-0.7C107.2,60.3,107.9,60.6,108.2,61.1z M107.7,63.6
				c0.3-0.4,0.4-0.7,0.4-1.2s-0.2-0.8-0.5-1.1c-0.3-0.3-0.6-0.5-1.2-0.5c-0.5,0-0.8,0.2-1.2,0.5c-0.3,0.3-0.5,0.6-0.5,1.2
				c0,0.5,0.1,0.8,0.4,1.1c0.3,0.3,0.6,0.5,1.3,0.5C107,64,107.5,63.8,107.7,63.6z"/>
			<path class="st13" d="M109.2,60.4h0.7l1.3,1.8l1.3-1.8h0.7l-1.7,2.3v1.6h-0.6v-1.6L109.2,60.4z"/>
			<path class="st13" d="M114.9,60.4h0.7l1.7,3.9h-0.6l-0.5-1.2h-1.8l-0.5,1.2h-0.6L114.9,60.4z M115.9,62.8l-0.7-1.7l-0.7,1.7
				H115.9z"/>
			<path class="st13" d="M118.1,60.4h0.6v3.4h2.3v0.5h-2.9V60.4z"/>
			<path class="st13" d="M123.9,60.4l0.8,3.1l1-3.1h0.6l1,3.2l0.8-3.2h0.6l-1.2,3.9H127l-1.1-3.2l-1.1,3.2h-0.5l-1.2-3.9H123.9z"/>
			<path class="st13" d="M133.5,61.1c0.3,0.4,0.5,0.8,0.5,1.3c0,0.6-0.2,1.1-0.6,1.5c-0.4,0.5-1,0.6-1.7,0.6c-0.7,0-1.3-0.2-1.7-0.6
				c-0.4-0.4-0.6-0.8-0.6-1.5c0-0.6,0.2-1,0.5-1.4c0.4-0.5,1-0.7,1.7-0.7C132.6,60.3,133.1,60.6,133.5,61.1z M133,63.6
				c0.3-0.4,0.4-0.7,0.4-1.2s-0.2-0.8-0.5-1.1c-0.3-0.3-0.6-0.5-1.2-0.5c-0.5,0-0.8,0.2-1.2,0.5c-0.3,0.3-0.5,0.6-0.5,1.2
				c0,0.5,0.1,0.8,0.4,1.1c0.3,0.3,0.6,0.5,1.3,0.5C132.3,64,132.8,63.8,133,63.6z"/>
			<path class="st13" d="M135,60.4h2.1c0.4,0,0.6,0,0.8,0.1c0.5,0.2,0.6,0.5,0.6,0.9c0,0.3-0.1,0.5-0.2,0.6
				c-0.1,0.2-0.3,0.3-0.5,0.4c0.2,0.1,0.3,0.2,0.4,0.3c0.1,0.1,0.2,0.3,0.2,0.5v0.6c0,0.2,0,0.3,0,0.4c0,0.1,0.1,0.2,0.2,0.3v0.1
				h-0.7c0,0,0-0.1-0.1-0.1c0-0.1,0-0.2,0-0.3v-0.6c0-0.3-0.1-0.5-0.4-0.6c-0.1-0.1-0.3-0.1-0.6-0.1h-1.4v1.7h-0.6L135,60.4
				L135,60.4z M137,62.3c0.3,0,0.6-0.1,0.6-0.2c0.2-0.1,0.3-0.3,0.3-0.6c0-0.3-0.1-0.5-0.4-0.6c-0.1-0.1-0.3-0.1-0.5-0.1h-1.5v1.4
				L137,62.3L137,62.3z"/>
			<path class="st13" d="M139.8,60.4h0.6v1.9l2.3-1.9h0.9l-1.9,1.6l2,2.3h-1l-1.7-1.9l-0.7,0.6v1.4h-0.6L139.8,60.4L139.8,60.4z"/>
			<path class="st13" d="M144.5,63.1c0,0.2,0.1,0.4,0.2,0.6c0.2,0.3,0.6,0.4,1,0.4c0.2,0,0.5,0,0.6-0.1c0.4-0.1,0.6-0.3,0.6-0.6
				c0-0.2-0.1-0.4-0.2-0.5c-0.2-0.1-0.4-0.2-0.7-0.3l-0.6-0.1c-0.4-0.1-0.6-0.2-0.8-0.3c-0.3-0.2-0.5-0.4-0.5-0.7
				c0-0.4,0.2-0.6,0.5-0.8c0.3-0.2,0.6-0.4,1.2-0.4c0.5,0,0.8,0.1,1.2,0.3c0.4,0.2,0.5,0.6,0.5,0.9h-0.6c0-0.2-0.1-0.4-0.2-0.5
				c-0.2-0.2-0.5-0.3-0.9-0.3c-0.4,0-0.6,0.1-0.7,0.2c-0.2,0.1-0.3,0.3-0.3,0.5s0.1,0.4,0.3,0.5c0.1,0.1,0.4,0.1,0.8,0.2l0.6,0.1
				c0.3,0.1,0.6,0.2,0.7,0.3c0.3,0.2,0.5,0.5,0.5,0.8c0,0.5-0.2,0.7-0.6,0.9c-0.4,0.2-0.8,0.3-1.3,0.3c-0.6,0-1-0.1-1.3-0.4
				c-0.3-0.3-0.5-0.6-0.5-1L144.5,63.1L144.5,63.1z"/>
			<path class="st13" d="M148.7,60.4h0.6v1.7h2.4v-1.7h0.6v3.9h-0.6v-1.8h-2.4v1.8h-0.6V60.4z"/>
			<path class="st13" d="M157.2,61.1c0.3,0.4,0.5,0.8,0.5,1.3c0,0.6-0.2,1.1-0.6,1.5c-0.4,0.5-1,0.6-1.7,0.6c-0.7,0-1.3-0.2-1.7-0.6
				c-0.4-0.4-0.6-0.8-0.6-1.5c0-0.6,0.2-1,0.5-1.4c0.4-0.5,1-0.7,1.7-0.7C156.2,60.3,156.9,60.6,157.2,61.1z M156.7,63.6
				c0.3-0.4,0.4-0.7,0.4-1.2s-0.2-0.8-0.5-1.1c-0.3-0.3-0.6-0.5-1.2-0.5c-0.5,0-0.8,0.2-1.2,0.5c-0.3,0.3-0.5,0.6-0.5,1.2
				c0,0.5,0.1,0.8,0.4,1.1c0.3,0.3,0.6,0.5,1.3,0.5C156,64,156.4,63.8,156.7,63.6z"/>
			<path class="st13" d="M158.7,60.4h2c0.4,0,0.7,0.1,1,0.3c0.3,0.2,0.4,0.5,0.4,0.8c0,0.3-0.1,0.6-0.4,0.8c-0.2,0.2-0.6,0.4-1,0.4
				h-1.5v1.7h-0.6L158.7,60.4L158.7,60.4z M161.1,61c-0.1-0.1-0.4-0.1-0.6-0.1h-1.3v1.4h1.2c0.3,0,0.5-0.1,0.6-0.2s0.3-0.3,0.3-0.6
				C161.5,61.3,161.4,61.1,161.1,61z"/>
		</g>
		<line class="st14" x1="85.3" y1="56.6" x2="162.5" y2="56.6"/>
	</g>
</g>
</svg>
